<svg width="439" height="436" viewBox="0 0 439 436" fill="none" xmlns="http://www.w3.org/2000/svg">
<path d="M359.102 216.09C281.478 171.575 156.038 171.575 78.9146 216.09C1.79112 260.606 2.2389 332.764 79.898 377.271C157.557 421.778 282.962 421.786 360.085 377.271C437.209 332.755 436.761 260.597 359.102 216.09Z" fill="#565656"/>
<path d="M135.818 288.353C161.824 273.442 203.854 273.442 229.685 288.353C252.513 301.529 255.05 321.934 237.402 336.793C251.644 335.921 266.376 338.615 277.281 344.893C296.378 355.907 296.272 373.774 277.062 384.796C257.851 395.818 226.787 395.818 207.7 384.796C192.51 376.024 189.481 362.926 198.551 352.393C176.662 355.532 152.57 352.192 135.519 342.356C109.68 327.445 109.811 303.264 135.818 288.353Z" fill="#E0E0E0"/>
<path d="M77.7206 325.439C71.9784 322.152 62.698 322.152 56.991 325.439C51.284 328.727 51.3191 334.072 57.0612 337.368C62.8033 340.664 72.0838 340.656 77.782 337.368C83.4802 334.081 83.4627 328.744 77.7206 325.439Z" fill="#E0E0E0"/>
<path d="M81.294 306.499L67.3865 306.944L53.4878 306.543C52.8907 315.865 54.717 325.369 57.2456 330.008C57.8457 331.202 58.8108 332.175 60.0025 332.79C64.1028 335.145 70.7317 335.145 74.8056 332.79C76.0143 332.168 76.9809 331.165 77.5537 329.939C80.0736 325.256 81.8823 315.777 81.294 306.499Z" fill="white"/>
<path d="M77.185 300.84C82.6286 303.97 82.6637 309.028 77.2464 312.176C71.8292 315.324 63.0404 315.306 57.588 312.176C52.1356 309.046 52.1181 303.997 57.5266 300.84C62.935 297.683 71.7414 297.718 77.185 300.84Z" fill="#EBEBEB"/>
<path d="M75.0339 302.087C79.2834 304.52 79.301 308.47 75.0866 310.912C70.8722 313.353 63.9974 313.344 59.7479 310.912C55.4984 308.479 55.472 304.52 59.6952 302.087C63.9184 299.654 70.7844 299.654 75.0339 302.087Z" fill="#E0E0E0"/>
<g opacity="0.15">
<path opacity="0.15" d="M75.0339 302.087C79.2834 304.52 79.301 308.47 75.0866 310.912C70.8722 313.353 63.9974 313.344 59.7479 310.912C55.4984 308.479 55.472 304.52 59.6952 302.087C63.9184 299.654 70.7844 299.654 75.0339 302.087Z" fill="black"/>
</g>
<path d="M90.2408 247.587C58.9138 257.772 58.6328 278.587 65.6568 293.411C67.4128 296.41 72.8301 298.023 77.5274 279.589L69.362 280.636L78.9585 275.805L81.4433 268.41L73.4535 269.003L83.5944 264.765C85.4524 258.909 87.6721 253.172 90.2408 247.587Z" fill="#2FF395"/>
<path opacity="0.2" d="M90.2408 247.587C58.9138 257.772 58.6328 278.587 65.6568 293.411C67.4128 296.41 72.8301 298.023 77.5274 279.589L69.362 280.636L78.9585 275.805L81.4433 268.41L73.4535 269.003L83.5944 264.765C85.4524 258.909 87.6721 253.172 90.2408 247.587Z" fill="black"/>
<path opacity="0.2" d="M90.2408 247.587C58.9138 257.772 58.6328 278.587 65.6568 293.411C67.4128 296.41 72.8301 298.023 77.5274 279.589L69.362 280.636L78.9585 275.805L81.4433 268.41L73.4535 269.003L83.5944 264.765C85.4524 258.909 87.6721 253.172 90.2408 247.587Z" fill="white"/>
<path d="M81.3818 252.793C64.8666 265.245 63.374 279.52 68.0362 294.422C66.3856 281.298 64.6032 268.027 81.3818 252.793Z" fill="white"/>
<path d="M37.1833 268.724C68.0625 273.084 71.8116 292.382 67.7114 307.354C66.5524 310.432 61.8024 312.83 54.3482 296.48L62.1887 296.096L52.4517 293.184L48.8958 286.714L56.4378 285.938L46.2794 283.67C43.5583 278.508 40.5206 273.517 37.1833 268.724Z" fill="#2FF395"/>
<path opacity="0.2" d="M37.1833 268.724C68.0625 273.084 71.8116 292.382 67.7114 307.354C66.5524 310.432 61.8024 312.83 54.3482 296.48L62.1887 296.096L52.4517 293.184L48.8958 286.714L56.4378 285.938L46.2794 283.67C43.5583 278.508 40.5206 273.517 37.1833 268.724Z" fill="white"/>
<path opacity="0.1" d="M37.1833 268.724C68.0625 273.084 71.8116 292.382 67.7114 307.354C66.5524 310.432 61.8024 312.83 54.3482 296.48L62.1887 296.096L52.4517 293.184L48.8958 286.714L56.4378 285.938L46.2794 283.67C43.5583 278.508 40.5206 273.517 37.1833 268.724Z" fill="black"/>
<path d="M46.3057 272.116C63.7779 280.985 67.5533 294.038 65.7007 308.688C65.0422 296.192 64.4803 283.54 46.3057 272.116Z" fill="white"/>
<path d="M99.2842 275.971C70.96 276.433 65.411 293.411 67.4128 307.363C68.1065 310.275 72.1189 312.952 80.6882 299.009L73.6642 297.788L82.7691 296.245L86.7025 290.803L79.9946 289.277L89.4067 288.353C92.4416 284.029 95.7402 279.894 99.2842 275.971Z" fill="#2FF395"/>
<path d="M90.6798 278.011C73.9364 284.063 69.0547 295.407 69.081 308.819C71.118 297.631 73.0057 286.286 90.6798 278.011Z" fill="white"/>
<path opacity="0.2" d="M99.2842 275.971C70.96 276.433 65.411 293.411 67.4128 307.363C68.1065 310.275 72.1189 312.952 80.6882 299.009L73.6642 297.788L82.7691 296.245L86.7025 290.803L79.9946 289.277L89.4067 288.353C92.4416 284.029 95.7402 279.894 99.2842 275.971Z" fill="white"/>
<path d="M217.121 236.975C225.988 243.079 235.98 247.325 243.39 255.522C257.254 270.843 257.544 295.486 246.718 313.048C235.892 330.61 215.654 341.092 195.074 343.498C173.484 346.027 150.832 340.106 133.895 326.573C116.958 313.039 106.185 291.893 106.194 270.311C106.203 248.729 117.336 227.226 135.546 215.428C152.157 204.676 176.021 201.606 192.686 213.91C201.115 220.136 206.734 229.327 215.136 235.562C215.76 236.016 216.436 236.504 217.121 236.975Z" fill="#455A64"/>
<path opacity="0.2" d="M217.121 236.975C225.988 243.079 235.98 247.325 243.39 255.522C257.254 270.843 257.544 295.486 246.718 313.048C235.892 330.61 215.654 341.092 195.074 343.498C173.484 346.027 150.832 340.106 133.895 326.573C116.958 313.039 106.185 291.893 106.194 270.311C106.203 248.729 117.336 227.226 135.546 215.428C152.157 204.676 176.021 201.606 192.686 213.91C201.115 220.136 206.734 229.327 215.136 235.562C215.76 236.016 216.436 236.504 217.121 236.975Z" fill="black"/>
<path opacity="0.1" d="M217.121 236.975C225.988 243.079 235.98 247.325 243.39 255.522C257.254 270.843 257.544 295.486 246.718 313.048C235.892 330.61 215.654 341.092 195.074 343.498C173.484 346.027 150.832 340.106 133.895 326.573C116.958 313.039 106.185 291.893 106.194 270.311C106.203 248.729 117.336 227.226 135.546 215.428C152.157 204.676 176.021 201.606 192.686 213.91C201.115 220.136 206.734 229.327 215.136 235.562C215.76 236.016 216.436 236.504 217.121 236.975Z" fill="white"/>
<path opacity="0.1" d="M213.512 326.721C213.512 326.573 213.468 326.425 213.451 326.276C212.718 321.498 210.501 317.066 207.109 313.6C203.716 310.134 199.318 307.807 194.53 306.944C185.979 305.324 177.786 302.209 170.332 297.744C165.064 294.57 160.033 290.672 154.089 288.946C148.31 287.296 142.138 287.653 136.59 289.957C141.577 284.725 150.138 282.458 156.978 284.813C152.245 277.619 148.075 269.867 146.442 261.417C144.809 252.967 145.967 243.715 151.095 236.792C153.28 233.835 156.099 231.396 159.348 229.652C162.597 227.908 166.195 226.902 169.883 226.706C173.571 226.51 177.257 227.129 180.675 228.519C184.093 229.908 187.157 232.034 189.648 234.742C194.723 240.253 197.55 248.014 200.913 254.711C203.31 259.525 205.786 264.451 209.737 268.114C215.689 273.651 224.25 275.639 230.431 280.932C237.455 286.94 240.449 296.532 240.475 305.715C240.363 311.908 239.454 318.062 237.771 324.027C230.532 330.89 221.899 336.134 212.45 339.409C213.805 335.322 214.169 330.974 213.512 326.721Z" fill="black"/>
<path d="M117.74 267.303C118.012 252.395 123.6 238.066 133.51 226.865C143.42 215.664 157.009 208.318 171.86 206.132C173.93 206.331 175.983 206.671 178.006 207.152C162.394 207.972 147.675 214.634 136.809 225.797C125.944 236.96 119.739 251.797 119.443 267.32C119.039 287.376 128.934 307.886 145.906 322.099C159.208 333.235 176.882 340.621 196.303 343.28L195.056 343.437C193.3 343.646 191.544 343.786 189.788 343.882C172.527 340.56 156.907 333.496 144.817 323.372C127.45 308.854 117.336 287.891 117.74 267.303Z" fill="white"/>
<path d="M236.121 320.024C235.243 323.599 235.041 330.043 235.041 330.043L232.644 329.171C231.509 328.74 230.272 328.653 229.087 328.92C227.903 329.186 226.824 329.796 225.988 330.671L225.874 330.793C225.445 331.24 224.858 331.505 224.236 331.533C223.614 331.56 223.006 331.348 222.538 330.941C222.288 330.723 222.086 330.455 221.945 330.155C221.805 329.854 221.728 329.528 221.721 329.197L221.396 319.074L236.121 320.024Z" fill="#FFA8A7"/>
<path d="M226.875 357.625C231.845 362.909 240.993 367.522 247.64 363.022L246.894 364.697C240.247 369.205 231.09 364.592 226.129 359.308C221.168 354.023 224.373 350.37 219.913 345.687C218.227 344.082 216.907 342.137 216.041 339.984C216.243 339.478 216.436 338.824 216.664 338.066C217.633 340.264 218.985 342.274 220.659 344.004C225.128 348.695 221.906 352.349 226.875 357.625Z" fill="#F5F5F5"/>
<path d="M219.114 332.555C219.881 331.475 220.413 330.248 220.677 328.953C220.725 328.652 220.838 328.365 221.008 328.111C221.177 327.856 221.4 327.641 221.66 327.48L221.721 329.18C221.734 329.653 221.887 330.111 222.163 330.497C222.438 330.883 222.822 331.179 223.266 331.348C223.711 331.517 224.196 331.551 224.661 331.446C225.125 331.341 225.547 331.102 225.874 330.758L225.988 330.636C226.824 329.761 227.903 329.152 229.087 328.885C230.272 328.618 231.509 328.705 232.644 329.136L235.076 330.008C235.433 330.142 235.74 330.38 235.956 330.692C236.173 331.004 236.288 331.374 236.287 331.752C236.129 338.676 239.387 347.867 242.802 352.925C246.314 354.363 249.343 359.116 247.798 362.604L247.64 362.953C240.993 367.452 231.836 362.839 226.875 357.555C221.914 352.271 225.119 348.626 220.659 343.934C218.985 342.204 217.633 340.194 216.664 337.996C217.227 336.08 218.051 334.249 219.114 332.555Z" fill="#2FF395"/>
<path opacity="0.3" d="M219.114 332.555C219.881 331.475 220.413 330.248 220.677 328.953C220.725 328.652 220.838 328.365 221.008 328.111C221.177 327.856 221.4 327.641 221.66 327.48L221.721 329.18C221.734 329.653 221.887 330.111 222.163 330.497C222.438 330.883 222.822 331.179 223.266 331.348C223.711 331.517 224.196 331.551 224.661 331.446C225.125 331.341 225.547 331.102 225.874 330.758L225.988 330.636C226.824 329.761 227.903 329.152 229.087 328.885C230.272 328.618 231.509 328.705 232.644 329.136L235.076 330.008C235.433 330.142 235.74 330.38 235.956 330.692C236.173 331.004 236.288 331.374 236.287 331.752C236.129 338.676 239.387 347.867 242.802 352.925C246.314 354.363 249.343 359.116 247.798 362.604L247.64 362.953C240.993 367.452 231.836 362.839 226.875 357.555C221.914 352.271 225.119 348.626 220.659 343.934C218.985 342.204 217.633 340.194 216.664 337.996C217.227 336.08 218.051 334.249 219.114 332.555Z" fill="black"/>
<path opacity="0.2" d="M219.114 332.555C219.881 331.475 220.413 330.248 220.677 328.953C220.725 328.652 220.838 328.365 221.008 328.111C221.177 327.856 221.4 327.641 221.66 327.48L221.721 329.18C221.734 329.653 221.887 330.111 222.163 330.497C222.438 330.883 222.822 331.179 223.266 331.348C223.711 331.517 224.196 331.551 224.661 331.446C225.125 331.341 225.547 331.102 225.874 330.758L225.988 330.636C226.824 329.761 227.903 329.152 229.087 328.885C230.272 328.618 231.509 328.705 232.644 329.136L235.076 330.008C235.433 330.142 235.74 330.38 235.956 330.692C236.173 331.004 236.288 331.374 236.287 331.752C236.129 338.676 239.387 347.867 242.802 352.925C246.314 354.363 249.343 359.116 247.798 362.604L247.64 362.953C240.993 367.452 231.836 362.839 226.875 357.555C221.914 352.271 225.119 348.626 220.659 343.934C218.985 342.204 217.633 340.194 216.664 337.996C217.227 336.08 218.051 334.249 219.114 332.555Z" fill="white"/>
<path d="M228.842 342.548C228.639 342.638 228.41 342.648 228.2 342.577C227.989 342.506 227.814 342.358 227.709 342.164C227.618 341.968 227.604 341.745 227.669 341.539C227.733 341.333 227.873 341.158 228.06 341.048C229.515 340.227 231.159 339.795 232.832 339.795C234.505 339.795 236.15 340.227 237.604 341.048C237.754 341.589 237.912 342.138 238.078 342.67C235.304 341.275 232.407 340.751 228.842 342.548Z" fill="white"/>
<path d="M227.613 338.798C227.425 338.838 227.229 338.816 227.055 338.734C226.881 338.653 226.739 338.517 226.651 338.348C226.562 338.179 226.532 337.985 226.564 337.797C226.597 337.609 226.691 337.437 226.831 337.307C228.357 336.477 230.071 336.048 231.811 336.062C233.551 336.075 235.258 336.531 236.77 337.386C236.864 337.967 236.978 338.534 237.113 339.086C234.215 337.56 231.292 336.958 227.613 338.798Z" fill="white"/>
<path d="M230.185 346.271C229.983 346.361 229.753 346.372 229.543 346.301C229.333 346.23 229.158 346.082 229.053 345.888C228.962 345.691 228.947 345.469 229.012 345.262C229.077 345.056 229.216 344.881 229.404 344.771C230.826 343.973 232.43 343.547 234.063 343.531C235.697 343.516 237.308 343.913 238.746 344.684C238.956 345.266 239.176 345.847 239.404 346.428C238.013 345.611 236.432 345.166 234.816 345.139C233.199 345.111 231.604 345.502 230.185 346.271Z" fill="white"/>
<path d="M242.802 352.994C246.314 354.433 249.343 359.186 247.798 362.674L247.64 363.022C241.09 367.452 232.126 363.022 227.104 357.86C231.292 349.716 240.036 351.747 242.802 352.994Z" fill="white"/>
<path d="M231.652 349.908C231.462 349.951 231.263 349.93 231.086 349.849C230.91 349.767 230.765 349.63 230.676 349.458C230.586 349.287 230.557 349.09 230.592 348.9C230.627 348.71 230.725 348.537 230.87 348.408C232.296 347.608 233.902 347.181 235.54 347.167C237.177 347.153 238.791 347.553 240.23 348.329C240.528 348.974 240.835 349.594 241.108 350.187C238.245 348.669 235.304 348.059 231.652 349.908Z" fill="white"/>
<path d="M246.569 340.132C247.192 343.768 249.651 349.724 249.651 349.724L247.096 349.873C245.883 349.933 244.715 350.348 243.74 351.067C242.765 351.785 242.026 352.775 241.617 353.91L241.555 354.076C241.346 354.654 240.919 355.13 240.364 355.403C239.809 355.676 239.17 355.725 238.579 355.54C238.262 355.445 237.969 355.285 237.718 355.07C237.467 354.855 237.264 354.591 237.121 354.294L232.731 345.155L246.569 340.132Z" fill="#FFA8A7"/>
<path d="M253.4 378.256C260.09 381.099 270.336 381.648 274.586 374.864V376.704C270.336 383.488 260.09 382.939 253.4 380.096C246.709 377.253 248.132 372.623 242.17 370.129C239.976 369.335 237.979 368.083 236.314 366.458C236.314 365.917 236.2 365.237 236.112 364.452C237.886 366.078 239.938 367.377 242.17 368.289C248.167 370.783 246.718 375.422 253.4 378.256Z" fill="#F5F5F5"/>
<path d="M236.112 358.392C236.384 357.098 236.384 355.762 236.112 354.468C236.03 354.173 236.014 353.864 236.065 353.563C236.117 353.262 236.235 352.975 236.41 352.724L237.157 354.259C237.361 354.684 237.687 355.04 238.095 355.281C238.502 355.523 238.973 355.639 239.447 355.616C239.921 355.593 240.377 355.431 240.758 355.15C241.14 354.87 241.429 354.484 241.591 354.041L241.652 353.875C242.062 352.74 242.8 351.751 243.776 351.032C244.751 350.314 245.918 349.898 247.131 349.838L249.765 349.689C250.15 349.67 250.533 349.77 250.859 349.974C251.186 350.179 251.442 350.478 251.591 350.832C254.225 357.232 260.977 364.339 266.157 367.592C269.95 367.504 274.656 370.635 274.656 374.445V374.82C270.406 381.605 260.16 381.055 253.47 378.213C246.779 375.37 248.202 370.739 242.24 368.246C240.008 367.333 237.956 366.034 236.182 364.409C235.871 362.417 235.847 360.391 236.112 358.392Z" fill="#2FF395"/>
<path opacity="0.3" d="M236.112 358.392C236.384 357.098 236.384 355.762 236.112 354.468C236.03 354.173 236.014 353.864 236.065 353.563C236.117 353.262 236.235 352.975 236.41 352.724L237.157 354.259C237.361 354.684 237.687 355.04 238.095 355.281C238.502 355.523 238.973 355.639 239.447 355.616C239.921 355.593 240.377 355.431 240.758 355.15C241.14 354.87 241.429 354.484 241.591 354.041L241.652 353.875C242.062 352.74 242.8 351.751 243.776 351.032C244.751 350.314 245.918 349.898 247.131 349.838L249.765 349.689C250.15 349.67 250.533 349.77 250.859 349.974C251.186 350.179 251.442 350.478 251.591 350.832C254.225 357.232 260.977 364.339 266.157 367.592C269.95 367.504 274.656 370.635 274.656 374.445V374.82C270.406 381.605 260.16 381.055 253.47 378.213C246.779 375.37 248.202 370.739 242.24 368.246C240.008 367.333 237.956 366.034 236.182 364.409C235.871 362.417 235.847 360.391 236.112 358.392Z" fill="black"/>
<path opacity="0.2" d="M236.112 358.392C236.384 357.098 236.384 355.762 236.112 354.468C236.03 354.173 236.014 353.864 236.065 353.563C236.117 353.262 236.235 352.975 236.41 352.724L237.157 354.259C237.361 354.684 237.687 355.04 238.095 355.281C238.502 355.523 238.973 355.639 239.447 355.616C239.921 355.593 240.377 355.431 240.758 355.15C241.14 354.87 241.429 354.484 241.591 354.041L241.652 353.875C242.062 352.74 242.8 351.751 243.776 351.032C244.751 350.314 245.918 349.898 247.131 349.838L249.765 349.689C250.15 349.67 250.533 349.77 250.859 349.974C251.186 350.179 251.442 350.478 251.591 350.832C254.225 357.232 260.977 364.339 266.157 367.592C269.95 367.504 274.656 370.635 274.656 374.445V374.82C270.406 381.605 260.16 381.055 253.47 378.213C246.779 375.37 248.202 370.739 242.24 368.246C240.008 367.333 237.956 366.034 236.182 364.409C235.871 362.417 235.847 360.391 236.112 358.392Z" fill="white"/>
<path d="M249.062 363.676C248.906 363.79 248.716 363.848 248.522 363.843C248.328 363.838 248.142 363.769 247.991 363.648C247.841 363.527 247.735 363.359 247.691 363.172C247.646 362.985 247.666 362.788 247.745 362.613C248.748 361.284 250.079 360.236 251.61 359.568C253.14 358.9 254.818 358.637 256.481 358.802C256.841 359.247 257.201 359.674 257.579 360.101C254.427 359.935 251.6 360.607 249.062 363.676Z" fill="white"/>
<path d="M246.428 360.738C246.28 360.9 246.076 361 245.856 361.02C245.637 361.039 245.418 360.976 245.243 360.842C245.156 360.776 245.084 360.693 245.03 360.598C244.976 360.504 244.941 360.4 244.928 360.292C244.915 360.184 244.924 360.074 244.954 359.97C244.984 359.865 245.034 359.768 245.103 359.683C246.161 358.312 247.555 357.234 249.152 356.55C250.748 355.866 252.495 355.599 254.225 355.776C254.541 356.247 254.875 356.718 255.226 357.189C251.986 356.962 249.036 357.581 246.428 360.738Z" fill="white"/>
<path d="M251.81 366.545C251.662 366.707 251.458 366.808 251.238 366.827C251.019 366.847 250.8 366.783 250.625 366.65C250.459 366.508 250.352 366.309 250.326 366.093C250.3 365.876 250.357 365.658 250.485 365.481C251.461 364.181 252.754 363.147 254.242 362.478C255.73 361.809 257.364 361.525 258.992 361.653C259.423 362.107 259.87 362.525 260.301 362.97C257.157 362.804 254.339 363.476 251.81 366.545Z" fill="white"/>
<path d="M266.087 367.635C269.88 367.548 274.586 370.678 274.586 374.489V374.864C270.398 381.552 260.397 381.108 253.698 378.352C254.216 369.248 263.049 367.6 266.087 367.635Z" fill="white"/>
<path d="M254.62 369.283C254.464 369.398 254.274 369.459 254.08 369.456C253.886 369.452 253.698 369.385 253.547 369.264C253.395 369.144 253.288 368.976 253.243 368.789C253.197 368.602 253.215 368.404 253.294 368.228C254.273 366.924 255.57 365.888 257.063 365.218C258.556 364.549 260.196 364.267 261.828 364.4C262.364 364.871 262.891 365.272 263.418 365.734C260.16 365.499 257.254 366.118 254.62 369.283Z" fill="white"/>
<path d="M207.252 253.674L240.748 272.212C243.788 273.895 246.22 276.484 247.699 279.613C249.179 282.742 249.631 286.254 248.992 289.652L242.486 324.384L247.815 341.205C243.215 347.309 232.661 347.64 232.661 347.64C226.77 335.912 222.441 330.924 219.096 321.088C215.751 311.252 213.521 304.476 213.521 304.476L185.706 296.925C179.343 295.208 173.644 291.635 169.346 286.669C165.048 281.703 162.349 275.57 161.596 269.064C161.122 264.887 161.095 262.036 161.095 262.036L207.252 253.674Z" fill="#263238"/>
<path opacity="0.2" d="M206.997 263.021C206.99 266.735 205.662 270.327 203.248 273.163L226.884 287.856C230.354 290.012 232.924 293.341 234.119 297.23L242.486 324.384L234.944 294.117C234.073 290.637 231.868 287.633 228.798 285.746L206.971 272.352C209.201 266.832 206.997 263.021 206.997 263.021Z" fill="black"/>
<path d="M249.159 267.041L209.842 289.574L209.684 289.644H209.596C209.496 289.68 209.393 289.71 209.289 289.731L209.078 289.774H208.929H208.543H208.139L207.884 289.731L207.568 289.644C207.473 289.616 207.382 289.578 207.296 289.53L194.653 282.232L235.234 258.984L249.159 267.041Z" fill="#E0E0E0"/>
<path d="M211.774 260.841L219.166 265.201C219.279 265.267 219.373 265.36 219.438 265.473C219.504 265.585 219.538 265.712 219.538 265.842C219.538 265.972 219.504 266.1 219.438 266.212C219.373 266.325 219.279 266.418 219.166 266.483L208.086 272.788C207.898 272.897 207.685 272.955 207.467 272.955C207.249 272.955 207.036 272.897 206.848 272.788L199.455 268.471C199.342 268.406 199.248 268.313 199.183 268.2C199.118 268.088 199.084 267.96 199.084 267.83C199.084 267.701 199.118 267.573 199.183 267.461C199.248 267.348 199.342 267.255 199.455 267.19L210.509 260.85C210.7 260.737 210.918 260.676 211.14 260.675C211.363 260.673 211.581 260.731 211.774 260.841Z" fill="#E0E0E0"/>
<path opacity="0.4" d="M249.159 267.041L209.842 289.574L209.684 289.644H209.596C209.496 289.68 209.393 289.71 209.289 289.731L209.078 289.774H208.929H208.543H208.139L207.884 289.731L207.568 289.644C207.473 289.616 207.382 289.578 207.296 289.53L194.653 282.232L235.234 258.984L249.159 267.041Z" fill="black"/>
<path opacity="0.4" d="M211.774 260.841L219.166 265.201C219.279 265.267 219.373 265.36 219.438 265.473C219.504 265.585 219.538 265.712 219.538 265.842C219.538 265.972 219.504 266.1 219.438 266.212C219.373 266.325 219.279 266.418 219.166 266.483L208.086 272.788C207.898 272.897 207.685 272.955 207.467 272.955C207.249 272.955 207.036 272.897 206.848 272.788L199.455 268.471C199.342 268.406 199.248 268.313 199.183 268.2C199.118 268.088 199.084 267.96 199.084 267.83C199.084 267.701 199.118 267.573 199.183 267.461C199.248 267.348 199.342 267.255 199.455 267.19L210.509 260.85C210.7 260.737 210.918 260.676 211.14 260.675C211.363 260.673 211.581 260.731 211.774 260.841Z" fill="black"/>
<path d="M208.815 290.245L213.003 263.806C213.111 263.084 213.381 262.395 213.795 261.791C214.208 261.187 214.754 260.683 215.391 260.318L256.113 236.774C256.274 236.678 256.456 236.622 256.644 236.61C256.832 236.598 257.02 236.63 257.193 236.704L258.167 237.184L257.833 237.306C257.943 237.527 257.983 237.777 257.948 238.021L253.742 264.512C253.632 265.234 253.36 265.922 252.947 266.526C252.533 267.129 251.989 267.633 251.354 268L210.632 291.544C210.548 291.587 210.459 291.622 210.369 291.649V292.042L209.429 291.579C209.194 291.454 209.007 291.256 208.896 291.015C208.785 290.774 208.756 290.504 208.815 290.245Z" fill="#E0E0E0"/>
<path opacity="0.3" d="M208.815 290.245L213.003 263.806C213.111 263.084 213.381 262.395 213.795 261.791C214.208 261.187 214.754 260.683 215.391 260.318L256.113 236.774C256.274 236.678 256.456 236.622 256.644 236.61C256.832 236.598 257.02 236.63 257.193 236.704L258.167 237.184L257.833 237.306C257.943 237.527 257.983 237.777 257.948 238.021L253.742 264.512C253.632 265.234 253.36 265.922 252.947 266.526C252.533 267.129 251.989 267.633 251.354 268L210.632 291.544C210.548 291.587 210.459 291.622 210.369 291.649V292.042L209.429 291.579C209.194 291.454 209.007 291.256 208.896 291.015C208.785 290.774 208.756 290.504 208.815 290.245Z" fill="black"/>
<path d="M216.207 260.728L256.929 237.184C257.131 237.071 257.36 237.016 257.592 237.026C257.823 237.035 258.047 237.109 258.238 237.239C258.429 237.369 258.58 237.55 258.673 237.76C258.766 237.971 258.797 238.203 258.764 238.431L254.62 264.922C254.51 265.644 254.238 266.332 253.825 266.936C253.411 267.539 252.867 268.043 252.232 268.41L211.51 291.954C211.31 292.071 211.08 292.128 210.848 292.12C210.616 292.112 210.392 292.039 210.2 291.91C210.008 291.78 209.856 291.599 209.764 291.388C209.671 291.177 209.64 290.944 209.675 290.716L213.819 264.216C213.93 263.494 214.201 262.806 214.615 262.203C215.028 261.599 215.572 261.095 216.207 260.728Z" fill="#E0E0E0"/>
<path d="M235.945 261.434C234.911 262.074 234.02 262.917 233.325 263.911C232.631 264.906 232.148 266.03 231.906 267.216C231.634 269.274 233.012 270.041 234.979 268.907C236.012 268.265 236.903 267.422 237.598 266.428C238.294 265.434 238.78 264.311 239.027 263.126C239.29 261.068 237.938 260.301 235.945 261.434Z" fill="white"/>
<path d="M211.897 221.261L222.933 230.208L230.212 218.48L221.054 208.234C213.003 211.739 211.897 221.261 211.897 221.261Z" fill="#F28F8F"/>
<path d="M195.706 190.968C204.381 190 205.18 191.91 210.808 197.177C216.436 202.444 222.134 208.408 222.134 208.408C213.459 212.62 212.476 222.866 212.476 222.866C207.752 219.23 203.757 216.352 203.757 216.352L195.706 190.968Z" fill="#455A64"/>
<path opacity="0.5" d="M195.706 190.968C204.381 190 205.18 191.91 210.808 197.177C216.436 202.444 222.134 208.408 222.134 208.408C213.459 212.62 212.476 222.866 212.476 222.866C207.752 219.23 203.757 216.352 203.757 216.352L195.706 190.968Z" fill="white"/>
<path d="M164.028 197.822C176.364 192.084 185.618 191.413 195.706 190.977C210.808 200.63 205.154 208.67 204.89 221.558C204.627 234.446 201.808 242.233 210.808 255.636C191.018 271.332 166.03 266.37 160.051 262.612C156.196 226.921 157.32 200.56 164.028 197.822Z" fill="#455A64"/>
<path opacity="0.7" d="M164.028 197.822C176.364 192.084 185.618 191.413 195.706 190.977C210.808 200.63 205.154 208.67 204.89 221.558C204.627 234.446 201.808 242.233 210.808 255.636C191.018 271.332 166.03 266.37 160.051 262.612C156.196 226.921 157.32 200.56 164.028 197.822Z" fill="white"/>
<path d="M201.633 171.461C203.558 169.678 204.741 167.243 204.949 164.637C205.157 162.03 204.375 159.441 202.757 157.379C203.873 156.699 204.724 155.663 205.171 154.44C205.34 153.856 205.33 153.234 205.141 152.656C204.952 152.078 204.594 151.568 204.112 151.194C203.63 150.819 203.046 150.596 202.435 150.553C201.825 150.51 201.215 150.649 200.684 150.952C200.881 150.016 200.756 149.042 200.329 148.185C199.903 147.329 199.199 146.639 198.331 146.226C197.459 145.886 196.495 145.857 195.604 146.143C194.712 146.429 193.948 147.013 193.441 147.795C193.385 147.208 193.14 146.654 192.741 146.217C192.342 145.78 191.811 145.484 191.228 145.371C190.036 145.215 188.825 145.447 187.778 146.034C186.707 146.557 185.732 147.246 184.652 147.778C182.775 148.508 180.819 149.017 178.822 149.295C176.821 149.574 174.922 150.347 173.3 151.545C171.763 152.844 170.666 155.547 171.807 157.605C171.475 157.276 171.077 157.021 170.637 156.857C170.198 156.693 169.729 156.624 169.261 156.655C168.803 156.702 168.361 156.847 167.964 157.079C167.567 157.31 167.225 157.624 166.96 157.998C168.313 158.608 169.594 159.28 170.973 159.881C169.638 159.48 167.882 160.605 167.364 161.878C166.942 163.197 166.89 164.605 167.215 165.95C168.064 171.124 169.667 176.147 171.974 180.862C173.159 183.294 174.748 185.832 177.33 186.695L201.633 171.461Z" fill="#37474F"/>
<path d="M201.501 158.826C199.17 161.054 196.087 162.341 192.853 162.436C189.806 162.436 186.865 161.477 183.932 160.692C183.672 162.106 182.964 163.401 181.913 164.389C180.74 165.386 179.294 166.011 177.76 166.186C178.194 168.913 178.194 171.691 177.76 174.417C177.722 174.704 177.605 174.975 177.42 175.198C177.235 175.422 176.991 175.589 176.715 175.682C175.723 175.97 175.073 174.967 174.59 174.147C174.078 173.197 173.343 172.384 172.448 171.775C171.996 171.476 171.478 171.292 170.937 171.237C170.397 171.182 169.852 171.259 169.349 171.461C168.954 171.662 168.606 171.942 168.325 172.282C168.044 172.623 167.836 173.017 167.716 173.441C167.476 174.292 167.434 175.187 167.593 176.057C167.773 177.517 168.363 178.898 169.296 180.042C169.763 180.608 170.343 181.074 170.998 181.41C171.653 181.745 172.371 181.945 173.106 181.995C173.825 182.058 174.547 181.924 175.195 181.607C175.842 181.29 176.389 180.803 176.777 180.199L176.847 180.46C176.951 180.893 177.083 181.318 177.242 181.734C177.894 183.446 178.971 184.968 180.372 186.158C181.773 187.348 183.453 188.169 185.258 188.544C187.119 188.936 189.183 189.302 191.281 189.616C192.317 189.773 193.362 189.922 194.398 190.044C196.303 190.271 198.224 189.765 199.765 188.63C201.307 187.495 202.352 185.816 202.686 183.94C204.065 175.97 204.574 166.7 201.501 158.826Z" fill="#FFA8A7"/>
<path d="M177.207 181.707V195.572C178.523 197.343 180.208 198.811 182.148 199.877C184.087 200.942 186.235 201.58 188.445 201.746C189.871 201.945 191.319 201.579 192.475 200.726C192.85 200.392 193.142 199.978 193.329 199.514C193.515 199.05 193.592 198.55 193.552 198.052C193.512 197.554 193.357 197.072 193.098 196.643C192.84 196.215 192.486 195.851 192.063 195.581C191.814 195.42 191.609 195.2 191.467 194.942C191.324 194.683 191.248 194.393 191.246 194.098V189.59C189.148 189.276 187.084 188.91 185.223 188.518C183.418 188.143 181.738 187.322 180.337 186.132C178.936 184.941 177.859 183.42 177.207 181.707Z" fill="#FFA8A7"/>
<path opacity="0.2" d="M186.531 191.57C188.078 191.972 189.654 192.249 191.246 192.398V189.59C189.148 189.276 187.084 188.91 185.223 188.518C183.53 188.164 181.946 187.417 180.6 186.338C179.253 185.259 178.184 183.878 177.479 182.309C177.825 184.477 178.809 186.494 180.306 188.108C182.029 189.798 184.18 190.994 186.531 191.57Z" fill="black"/>
<path d="M195.385 168.885H193.576C191.767 167.662 189.68 166.907 187.503 166.686C185.327 166.465 183.129 166.786 181.108 167.621V169.513L181.609 169.775C181.881 170.993 182.034 172.234 182.065 173.481C182.098 174.71 182.593 175.883 183.453 176.768C184.445 177.64 185.867 177.71 187.167 177.727C188.217 177.811 189.274 177.659 190.257 177.283C191.375 176.681 192.217 175.676 192.61 174.475C193.058 173.298 192.979 172.609 193.532 171.196C193.611 170.999 193.748 170.831 193.925 170.713C194.102 170.595 194.311 170.532 194.524 170.533C194.728 170.535 194.926 170.6 195.091 170.719C195.257 170.838 195.381 171.004 195.446 171.196C195.964 172.609 195.894 173.298 196.324 174.475C196.675 175.654 197.463 176.657 198.528 177.283C199.441 177.657 200.432 177.81 201.417 177.727C202.667 177.857 203.921 177.515 204.929 176.768C205.737 175.858 206.194 174.694 206.219 173.481C206.251 172.235 206.395 170.995 206.649 169.775L207.115 169.513V167.621C205.222 166.78 203.139 166.454 201.077 166.676C199.016 166.898 197.052 167.661 195.385 168.885ZM192.672 169.853L192.593 170.525C192.443 171.746 192.148 172.947 191.715 174.1C191.394 175.054 190.732 175.858 189.853 176.358C189.148 176.637 188.39 176.759 187.632 176.716H187.228C186.15 176.826 185.065 176.568 184.155 175.983C183.486 175.273 183.11 174.34 183.101 173.367C183.101 173.053 183.049 172.731 183.022 172.399C182.961 171.527 183.022 169.522 183.093 168.092C184.125 167.807 185.191 167.663 186.262 167.664C188.513 167.674 190.715 168.312 192.619 169.504C192.698 169.539 192.672 169.853 192.672 169.853ZM205.288 172.373C205.288 172.705 205.245 173.027 205.218 173.341C205.215 174.303 204.863 175.232 204.226 175.957C203.389 176.537 202.37 176.797 201.355 176.69H201.013C200.301 176.732 199.588 176.609 198.932 176.332C198.09 175.816 197.466 175.013 197.176 174.074C196.748 172.919 196.453 171.719 196.298 170.498L196.228 169.827C196.228 169.827 196.228 169.513 196.298 169.452C198.055 168.268 200.127 167.627 202.251 167.612C203.253 167.611 204.249 167.755 205.209 168.039C205.297 169.496 205.341 171.475 205.288 172.373Z" fill="#2FF395"/>
<path d="M181.158 167.607L170.999 171.235C171.729 171.371 172.411 171.689 172.984 172.159C173.098 172.255 181.158 169.499 181.158 169.499V167.607Z" fill="#2FF395"/>
<path d="M194.521 170.677L199.64 176.833L194.942 178.49L194.521 170.677Z" fill="#F28F8F"/>
<path d="M187.277 171.444C187.274 171.722 187.354 171.995 187.506 172.228C187.659 172.461 187.878 172.643 188.136 172.752C188.393 172.862 188.678 172.892 188.953 172.841C189.228 172.79 189.481 172.658 189.681 172.463C189.881 172.269 190.018 172.019 190.075 171.747C190.132 171.475 190.106 171.192 190.001 170.934C189.896 170.677 189.716 170.456 189.484 170.3C189.253 170.143 188.98 170.059 188.7 170.057C188.515 170.055 188.331 170.089 188.159 170.158C187.987 170.226 187.83 170.328 187.698 170.457C187.566 170.586 187.461 170.739 187.389 170.909C187.316 171.078 187.279 171.26 187.277 171.444Z" fill="#37474F"/>
<path d="M199.095 171.069C199.094 171.347 199.175 171.619 199.329 171.85C199.483 172.082 199.702 172.264 199.96 172.371C200.217 172.479 200.501 172.509 200.776 172.456C201.051 172.404 201.303 172.272 201.502 172.077C201.701 171.881 201.837 171.632 201.893 171.36C201.95 171.088 201.924 170.806 201.818 170.548C201.713 170.291 201.533 170.071 201.301 169.915C201.07 169.76 200.797 169.675 200.518 169.674C200.332 169.673 200.148 169.708 199.976 169.777C199.804 169.847 199.648 169.949 199.516 170.079C199.383 170.208 199.278 170.362 199.206 170.532C199.134 170.702 199.096 170.885 199.095 171.069Z" fill="#37474F"/>
<path d="M198.358 164.86L202.124 165.288C202.06 164.886 201.875 164.514 201.592 164.219C201.31 163.925 200.945 163.723 200.544 163.64C200.101 163.622 199.663 163.726 199.277 163.942C198.89 164.158 198.572 164.475 198.358 164.86Z" fill="#37474F"/>
<path d="M189.648 164.389L186.136 165.95C186.069 165.549 186.129 165.137 186.306 164.77C186.484 164.403 186.771 164.1 187.128 163.901C187.551 163.734 188.014 163.691 188.46 163.777C188.907 163.864 189.32 164.076 189.648 164.389Z" fill="#37474F"/>
<path d="M189.876 181.08L194.047 182.466C193.764 182.947 193.333 183.326 192.819 183.547C192.304 183.768 191.731 183.82 191.185 183.696C190.696 183.476 190.3 183.095 190.061 182.619C189.823 182.142 189.758 181.598 189.876 181.08Z" fill="#F28F8F"/>
<path opacity="0.3" d="M189.876 181.08L194.047 182.466C193.764 182.947 193.333 183.326 192.819 183.547C192.304 183.768 191.731 183.82 191.185 183.696C190.696 183.476 190.3 183.095 190.061 182.619C189.823 182.142 189.758 181.598 189.876 181.08Z" fill="black"/>
<path d="M192.563 183.643C192.118 183.79 191.64 183.808 191.184 183.696C190.798 183.541 190.466 183.276 190.23 182.935C189.994 182.594 189.865 182.191 189.859 181.777C190.464 181.686 191.082 181.829 191.585 182.176C192.087 182.523 192.438 183.048 192.563 183.643Z" fill="#F28F8F"/>
<path d="M202.941 200.691L199.376 202.304C199.203 202.383 199.047 202.496 198.919 202.637C198.79 202.777 198.691 202.942 198.628 203.121C198.565 203.3 198.539 203.49 198.551 203.679C198.564 203.868 198.614 204.053 198.7 204.222C198.837 204.497 199.06 204.72 199.336 204.857C199.611 204.994 199.925 205.037 200.228 204.981L209.008 203.42L206.374 200.046L202.941 200.691Z" fill="#F28F8F"/>
<path d="M210.781 203.804L221.844 229.685C222.622 231.501 224.079 232.946 225.908 233.717C227.737 234.488 229.796 234.524 231.651 233.818C232.779 233.389 233.788 232.701 234.597 231.811C235.406 230.921 235.992 229.853 236.307 228.696C236.622 227.538 236.657 226.323 236.41 225.149C236.162 223.975 235.639 222.876 234.883 221.941L216.813 199.566C216.187 198.791 215.454 198.107 214.636 197.534L209.131 193.671C207.567 192.577 205.759 191.876 203.863 191.631L201.176 189.677C200.815 189.408 200.391 189.235 199.943 189.176C199.496 189.116 199.041 189.172 198.621 189.337L194.486 190.916C194.746 191.487 195.2 191.949 195.767 192.223C196.335 192.497 196.981 192.565 197.594 192.416L199.245 192.006L201.176 193.418L198.665 196.906C198.335 197.363 198.197 197.929 198.279 198.485C198.361 199.042 198.656 199.545 199.104 199.889L203.845 203.507C204.06 203.669 204.311 203.778 204.576 203.825C204.842 203.872 205.115 203.856 205.373 203.778C205.778 203.656 206.123 203.388 206.339 203.026C206.555 202.665 206.627 202.236 206.541 201.824C207.078 202.419 207.731 202.901 208.459 203.241C209.187 203.581 209.977 203.773 210.781 203.804Z" fill="#FFA8A7"/>
<path d="M201.211 193.418C201.709 192.849 202.303 192.371 202.967 192.006L199.648 192.25L201.211 193.418Z" fill="#F28F8F"/>
<path d="M167.303 231.202L163.536 244.047L186.593 260.309L194.345 263.545C196.399 264.408 198.175 265.813 199.482 267.608L205.803 276.328C206.506 277.784 203.169 280.156 201.633 280.557C200.715 280.794 199.753 280.799 198.833 280.572C197.913 280.345 197.064 279.893 196.365 279.258L191.483 274.82L190.14 274.349C186.196 272.964 182.774 270.414 180.332 267.041L153.308 256.621C150.938 255.704 148.991 253.952 147.84 251.7C146.688 249.448 146.412 246.854 147.065 244.413L151.552 227.845L167.303 231.202Z" fill="#FFA8A7"/>
<path d="M167.329 232.998L173.73 213.998C173.73 213.998 173.941 196.601 166.513 197.142C159.085 197.682 155.309 201.955 149.594 227.74L149.471 228.298C154.8 231.64 161.033 233.281 167.329 232.998Z" fill="#455A64"/>
<path opacity="0.5" d="M167.329 232.998L173.73 213.998C173.73 213.998 173.941 196.601 166.513 197.142C159.085 197.682 155.309 201.955 149.594 227.74L149.471 228.298C154.8 231.64 161.033 233.281 167.329 232.998Z" fill="white"/>
<path d="M274.972 224.863L274.946 217.895L270.24 215.201L270.257 222.002V222.151L274.972 224.863Z" fill="#E0E0E0"/>
<path d="M275.2 326.268L274.972 224.854L270.257 222.159L270.485 323.407C270.462 323.667 270.506 323.929 270.614 324.167C270.722 324.405 270.889 324.612 271.1 324.768L275.753 327.584C275.56 327.427 275.408 327.224 275.311 326.994C275.215 326.765 275.177 326.515 275.2 326.268Z" fill="#2FF395"/>
<path opacity="0.2" d="M275.2 326.268L274.972 224.854L270.257 222.159L270.485 323.407C270.462 323.667 270.506 323.929 270.614 324.167C270.722 324.405 270.889 324.612 271.1 324.768L275.753 327.584C275.56 327.427 275.408 327.224 275.311 326.994C275.215 326.765 275.177 326.515 275.2 326.268Z" fill="white"/>
<path d="M277.369 327.497C277.234 327.572 277.093 327.636 276.948 327.689C277.094 327.64 277.236 327.575 277.369 327.497Z" fill="#455A64"/>
<path d="M274.963 217.887V213.875C275 213.13 275.215 212.404 275.589 211.757C275.962 211.11 276.485 210.56 277.114 210.152L399.49 140C399.707 139.847 399.96 139.753 400.224 139.725C400.489 139.698 400.756 139.738 401 139.843L396.338 137.017C396.091 136.893 395.814 136.839 395.538 136.862C395.262 136.886 394.998 136.984 394.775 137.148L272.399 207.301C271.769 207.706 271.244 208.254 270.869 208.899C270.493 209.545 270.278 210.27 270.24 211.015V215.026V215.192L274.946 217.887H274.963Z" fill="#2FF395"/>
<path opacity="0.3" d="M274.963 217.887V213.875C275 213.13 275.215 212.404 275.589 211.757C275.962 211.11 276.485 210.56 277.114 210.152L399.49 140C399.707 139.847 399.96 139.753 400.224 139.725C400.489 139.698 400.756 139.738 401 139.843L396.338 137.017C396.091 136.893 395.814 136.839 395.538 136.862C395.262 136.886 394.998 136.984 394.775 137.148L272.399 207.301C271.769 207.706 271.244 208.254 270.869 208.899C270.493 209.545 270.278 210.27 270.24 211.015V215.026V215.192L274.946 217.887H274.963Z" fill="white"/>
<path opacity="0.2" d="M274.972 224.863L274.946 217.895L270.24 215.201L270.257 222.002V222.151L274.972 224.863Z" fill="black"/>
<path d="M399.49 140C400.684 139.319 401.659 139.869 401.659 141.238V145.249L274.99 217.887V213.875C275.027 213.13 275.241 212.404 275.615 211.757C275.989 211.11 276.512 210.56 277.141 210.152L399.49 140Z" fill="#2FF395"/>
<path d="M391.254 146.636C391.887 146.269 392.413 146.566 392.413 147.298C392.389 147.696 392.272 148.083 392.071 148.428C391.869 148.774 391.59 149.067 391.254 149.286C390.622 149.653 390.095 149.356 390.095 148.624C390.118 148.225 390.234 147.837 390.435 147.492C390.637 147.146 390.917 146.853 391.254 146.636Z" fill="white"/>
<path d="M394.784 144.612C395.425 144.246 395.943 144.543 395.952 145.266C395.93 145.665 395.813 146.053 395.612 146.398C395.41 146.744 395.13 147.037 394.793 147.255C394.152 147.621 393.634 147.324 393.634 146.601C393.652 146.202 393.766 145.814 393.966 145.468C394.166 145.122 394.447 144.829 394.784 144.612Z" fill="white"/>
<path d="M398.314 142.589C398.954 142.223 399.472 142.511 399.481 143.243C399.459 143.642 399.343 144.03 399.141 144.375C398.94 144.721 398.659 145.014 398.322 145.232C397.681 145.598 397.163 145.301 397.163 144.578C397.182 144.179 397.296 143.791 397.496 143.445C397.696 143.099 397.976 142.806 398.314 142.589Z" fill="white"/>
<path d="M300.443 199.296C300.917 199.025 301.321 199.069 301.584 199.418L302.734 201.162C302.963 201.51 303.402 201.563 303.876 201.292L401.624 145.24V152.216L274.954 224.854V217.878L278.712 215.724C279.242 215.382 279.643 214.876 279.854 214.285L280.986 211.216C281.197 210.627 281.598 210.124 282.128 209.786L300.443 199.296Z" fill="#E0E0E0"/>
<path d="M401.641 152.225L401.869 253.63C401.829 254.373 401.614 255.097 401.24 255.742C400.867 256.388 400.345 256.937 399.718 257.345L277.369 327.497C276.175 328.177 275.2 327.628 275.2 326.268L274.972 224.854L401.641 152.225Z" fill="#2FF395"/>
<g opacity="0.4">
<path opacity="0.4" d="M401.641 152.225L401.869 253.63C401.829 254.373 401.614 255.097 401.24 255.742C400.867 256.388 400.345 256.937 399.718 257.345L277.369 327.497C276.175 328.177 275.2 327.628 275.2 326.268L274.972 224.854L401.641 152.225Z" fill="white"/>
</g>
<path d="M396.628 149.548C397.506 149.06 398.173 149.443 398.173 150.42C398.141 150.944 397.986 151.453 397.721 151.907C397.455 152.362 397.087 152.748 396.645 153.036L289.415 214.512C288.537 215 287.87 214.608 287.87 213.64C287.903 213.115 288.059 212.605 288.326 212.151C288.593 211.697 288.963 211.311 289.406 211.024L396.628 149.548Z" fill="white"/>
<path d="M276.991 218.514C277.016 218.498 277.045 218.489 277.075 218.489C277.105 218.489 277.134 218.498 277.158 218.514C277.237 218.567 277.229 218.732 277.158 218.872L276.482 219.971L278.238 218.95C278.361 218.881 278.458 218.95 278.458 219.073C278.454 219.147 278.433 219.219 278.396 219.284C278.36 219.349 278.309 219.405 278.247 219.448L276.491 220.459L277.176 220.782C277.264 220.782 277.272 220.974 277.176 221.122C277.14 221.193 277.085 221.253 277.018 221.296C276.995 221.308 276.969 221.315 276.943 221.315C276.917 221.315 276.891 221.308 276.869 221.296L275.78 220.782H275.736V220.694V220.581L275.78 220.494L276.86 218.75C276.878 218.66 276.924 218.577 276.991 218.514Z" fill="#E0E0E0"/>
<path d="M280.837 216.308C280.861 216.298 280.886 216.293 280.912 216.293C280.937 216.293 280.963 216.298 280.986 216.308L282.075 216.823L282.119 216.875V216.971V217.076L282.075 217.154L280.995 218.898C280.957 218.958 280.906 219.009 280.846 219.046C280.822 219.061 280.795 219.069 280.767 219.069C280.739 219.069 280.712 219.061 280.688 219.046C280.609 218.994 280.609 218.837 280.688 218.689L281.364 217.599L279.608 218.619C279.485 218.68 279.388 218.619 279.388 218.488C279.393 218.414 279.416 218.343 279.454 218.279C279.492 218.215 279.545 218.162 279.608 218.122L281.364 217.102L280.688 216.779C280.591 216.779 280.591 216.587 280.688 216.439C280.727 216.385 280.778 216.34 280.837 216.308Z" fill="#E0E0E0"/>
<path d="M284.472 214.224C284.579 214.152 284.699 214.103 284.826 214.079C284.953 214.055 285.084 214.057 285.21 214.085L285.376 213.867C285.408 213.825 285.446 213.79 285.49 213.762C285.527 213.747 285.568 213.747 285.605 213.762C285.684 213.762 285.719 213.849 285.701 213.954L285.613 214.617C285.602 214.699 285.569 214.778 285.517 214.843C285.486 214.885 285.447 214.921 285.403 214.948H285.35L284.823 215.096C284.805 215.101 284.785 215.103 284.766 215.099C284.747 215.096 284.729 215.089 284.713 215.078C284.697 215.067 284.684 215.053 284.674 215.037C284.664 215.02 284.658 215.002 284.656 214.983C284.652 214.874 284.69 214.768 284.762 214.686L284.806 214.617C284.689 214.623 284.575 214.656 284.472 214.713C284.248 214.862 284.062 215.061 283.928 215.294C283.794 215.527 283.715 215.788 283.699 216.055C283.699 216.544 284.051 216.744 284.481 216.491C284.802 216.286 285.043 215.979 285.166 215.619C285.199 215.523 285.264 215.44 285.35 215.384C285.385 215.375 285.421 215.375 285.455 215.384C285.561 215.384 285.605 215.524 285.543 215.672C285.347 216.218 284.973 216.685 284.481 216.997C283.814 217.381 283.269 217.076 283.269 216.308C283.287 215.891 283.406 215.484 283.615 215.121C283.825 214.758 284.118 214.451 284.472 214.224Z" fill="#E0E0E0"/>
<g opacity="0.3">
<path opacity="0.3" d="M276.991 218.514C277.016 218.498 277.045 218.489 277.075 218.489C277.105 218.489 277.134 218.498 277.158 218.514C277.237 218.567 277.229 218.732 277.158 218.872L276.482 219.971L278.238 218.95C278.361 218.881 278.458 218.95 278.458 219.073C278.454 219.147 278.433 219.219 278.396 219.284C278.36 219.349 278.309 219.405 278.247 219.448L276.491 220.459L277.176 220.782C277.264 220.782 277.272 220.974 277.176 221.122C277.14 221.193 277.085 221.253 277.018 221.296C276.995 221.308 276.969 221.315 276.943 221.315C276.917 221.315 276.891 221.308 276.869 221.296L275.78 220.782H275.736V220.694V220.581L275.78 220.494L276.86 218.75C276.878 218.66 276.924 218.577 276.991 218.514Z" fill="black"/>
</g>
<g opacity="0.3">
<path opacity="0.3" d="M280.837 216.308C280.861 216.298 280.886 216.293 280.912 216.293C280.937 216.293 280.963 216.298 280.986 216.308L282.075 216.823L282.119 216.875V216.971V217.076L282.075 217.154L280.995 218.898C280.957 218.958 280.906 219.009 280.846 219.046C280.822 219.061 280.795 219.069 280.767 219.069C280.739 219.069 280.712 219.061 280.688 219.046C280.609 218.994 280.609 218.837 280.688 218.689L281.364 217.599L279.608 218.619C279.485 218.68 279.388 218.619 279.388 218.488C279.393 218.414 279.416 218.343 279.454 218.279C279.492 218.215 279.545 218.162 279.608 218.122L281.364 217.102L280.688 216.779C280.591 216.779 280.591 216.587 280.688 216.439C280.727 216.385 280.778 216.34 280.837 216.308Z" fill="black"/>
</g>
<g opacity="0.3">
<path opacity="0.3" d="M284.472 214.224C284.579 214.152 284.699 214.103 284.826 214.079C284.953 214.055 285.084 214.057 285.21 214.085L285.376 213.867C285.408 213.825 285.446 213.79 285.49 213.762C285.527 213.747 285.568 213.747 285.605 213.762C285.684 213.762 285.719 213.849 285.701 213.954L285.613 214.617C285.602 214.699 285.569 214.778 285.517 214.843C285.486 214.885 285.447 214.921 285.403 214.948H285.35L284.823 215.096C284.805 215.101 284.785 215.103 284.766 215.099C284.747 215.096 284.729 215.089 284.713 215.078C284.697 215.067 284.684 215.053 284.674 215.037C284.664 215.02 284.658 215.002 284.656 214.983C284.652 214.874 284.69 214.768 284.762 214.686L284.806 214.617C284.689 214.623 284.575 214.656 284.472 214.713C284.248 214.862 284.062 215.061 283.928 215.294C283.794 215.527 283.715 215.788 283.699 216.055C283.699 216.544 284.051 216.744 284.481 216.491C284.802 216.286 285.043 215.979 285.166 215.619C285.199 215.523 285.264 215.44 285.35 215.384C285.385 215.375 285.421 215.375 285.455 215.384C285.561 215.384 285.605 215.524 285.543 215.672C285.347 216.218 284.973 216.685 284.481 216.997C283.814 217.381 283.269 217.076 283.269 216.308C283.287 215.891 283.406 215.484 283.615 215.121C283.825 214.758 284.118 214.451 284.472 214.224Z" fill="black"/>
</g>
<path d="M349.119 208.321L349.312 277.052L282.488 315.368L282.295 246.636L349.119 208.321Z" fill="white"/>
<path d="M339.821 228.272L309.723 275.814L309.767 287.594L315.562 276.162L309.767 287.594L305.412 275.552L339.821 228.272Z" fill="#2FF395"/>
<path opacity="0.3" d="M339.821 228.272L309.723 275.814L309.767 287.594L315.562 276.162L309.767 287.594L305.412 275.552L339.821 228.272Z" fill="black"/>
<path d="M309.723 275.814L315.562 276.162L309.767 287.594L309.723 275.814Z" fill="#2FF395"/>
<path opacity="0.5" d="M309.723 275.814L315.562 276.162L309.767 287.594L309.723 275.814Z" fill="black"/>
<path d="M339.821 228.272L305.412 275.552L291.031 274.689L339.821 228.272Z" fill="#2FF395"/>
<path d="M309.723 275.814L339.821 228.272L333.526 277.235L315.562 276.162L309.723 275.814Z" fill="#2FF395"/>
<path opacity="0.3" d="M291.031 274.689L305.412 275.552L309.767 287.594L315.562 276.162L333.526 277.235L339.821 228.272L291.031 274.689Z" fill="white"/>
<path d="M395.864 158.512C397.084 157.815 398.076 158.373 398.076 159.768C398.036 160.527 397.815 161.265 397.432 161.923C397.049 162.581 396.515 163.139 395.873 163.552L299.855 218.654C298.634 219.352 297.642 218.794 297.633 217.398C297.679 216.644 297.902 215.912 298.285 215.259C298.668 214.606 299.199 214.052 299.837 213.64L395.864 158.512Z" fill="#2FF395"/>
<g opacity="0.7">
<path opacity="0.7" d="M395.864 158.512C397.084 157.815 398.076 158.373 398.076 159.768C398.036 160.527 397.815 161.265 397.432 161.923C397.049 162.581 396.515 163.139 395.873 163.552L299.855 218.654C298.634 219.352 297.642 218.794 297.633 217.398C297.679 216.644 297.902 215.912 298.285 215.259C298.668 214.606 299.199 214.052 299.837 213.64L395.864 158.512Z" fill="white"/>
</g>
<path d="M292.892 217.459C294.112 216.762 295.105 217.32 295.105 218.715C295.065 219.473 294.846 220.211 294.464 220.869C294.083 221.526 293.55 222.085 292.91 222.5L284.358 227.514C283.137 228.22 282.145 227.653 282.145 226.267C282.184 225.507 282.405 224.768 282.788 224.11C283.171 223.452 283.706 222.894 284.349 222.482L292.892 217.459Z" fill="#2FF395"/>
<path d="M300.785 222.447C302.006 221.75 302.998 222.308 302.998 223.703C302.959 224.462 302.739 225.201 302.355 225.859C301.972 226.517 301.437 227.075 300.794 227.487L284.156 237.132C282.936 237.838 281.943 237.28 281.935 235.885C281.975 235.126 282.196 234.387 282.579 233.73C282.962 233.072 283.496 232.514 284.138 232.1L300.785 222.447Z" fill="#2FF395"/>
<path d="M324.711 208.617C325.931 207.92 326.923 208.478 326.923 209.873C326.884 210.632 326.664 211.371 326.281 212.029C325.898 212.687 325.363 213.245 324.72 213.657L308.081 223.302C306.861 224.008 305.869 223.45 305.86 222.055C305.901 221.296 306.121 220.558 306.504 219.9C306.887 219.242 307.422 218.684 308.064 218.27L324.711 208.617Z" fill="#2FF395"/>
<path d="M348.636 194.787C349.857 194.09 350.849 194.648 350.849 196.043C350.809 196.802 350.588 197.541 350.205 198.199C349.822 198.857 349.288 199.415 348.645 199.828L332.007 209.472C330.787 210.178 329.794 209.62 329.786 208.225C329.826 207.466 330.047 206.728 330.43 206.07C330.813 205.412 331.347 204.854 331.989 204.44L348.636 194.787Z" fill="#2FF395"/>
<path d="M372.562 180.957C373.782 180.26 374.774 180.818 374.774 182.213C374.735 182.972 374.514 183.711 374.131 184.369C373.748 185.027 373.213 185.585 372.571 185.998L355.932 195.642C354.712 196.348 353.72 195.781 353.711 194.395C353.752 193.636 353.972 192.898 354.355 192.24C354.738 191.582 355.273 191.024 355.915 190.61L372.562 180.957Z" fill="#2FF395"/>
<path d="M396.487 167.128C397.708 166.43 398.7 166.988 398.7 168.383C398.66 169.142 398.44 169.881 398.056 170.539C397.673 171.197 397.139 171.755 396.496 172.168L379.858 181.812C378.638 182.518 377.645 181.952 377.637 180.565C377.677 179.806 377.898 179.068 378.281 178.41C378.664 177.752 379.198 177.194 379.84 176.781L396.487 167.128Z" fill="#2FF395"/>
<g opacity="0.2">
<path opacity="0.2" d="M300.785 222.447C302.006 221.75 302.998 222.308 302.998 223.703C302.959 224.462 302.739 225.201 302.355 225.859C301.972 226.517 301.437 227.075 300.794 227.487L284.156 237.132C282.936 237.838 281.943 237.28 281.935 235.885C281.975 235.126 282.196 234.387 282.579 233.73C282.962 233.072 283.496 232.514 284.138 232.1L300.785 222.447Z" fill="white"/>
<path opacity="0.2" d="M324.711 208.617C325.931 207.92 326.923 208.478 326.923 209.873C326.884 210.632 326.664 211.371 326.281 212.029C325.898 212.687 325.363 213.245 324.72 213.657L308.081 223.302C306.861 224.008 305.869 223.45 305.86 222.055C305.901 221.296 306.121 220.558 306.504 219.9C306.887 219.242 307.422 218.684 308.064 218.27L324.711 208.617Z" fill="white"/>
<path opacity="0.2" d="M348.636 194.787C349.857 194.09 350.849 194.648 350.849 196.043C350.809 196.802 350.588 197.541 350.205 198.199C349.822 198.857 349.288 199.415 348.645 199.828L332.007 209.472C330.787 210.178 329.794 209.62 329.786 208.225C329.826 207.466 330.047 206.728 330.43 206.07C330.813 205.412 331.347 204.854 331.989 204.44L348.636 194.787Z" fill="white"/>
<path opacity="0.2" d="M372.562 180.957C373.782 180.26 374.774 180.818 374.774 182.213C374.735 182.972 374.514 183.711 374.131 184.369C373.748 185.027 373.213 185.585 372.571 185.998L355.932 195.642C354.712 196.348 353.72 195.781 353.711 194.395C353.752 193.636 353.972 192.898 354.355 192.24C354.738 191.582 355.273 191.024 355.915 190.61L372.562 180.957Z" fill="white"/>
<path opacity="0.2" d="M396.487 167.128C397.708 166.43 398.7 166.988 398.7 168.383C398.66 169.142 398.44 169.881 398.056 170.539C397.673 171.197 397.139 171.755 396.496 172.168L379.858 181.812C378.638 182.518 377.645 181.952 377.637 180.565C377.677 179.806 377.898 179.068 378.281 178.41C378.664 177.752 379.198 177.194 379.84 176.781L396.487 167.128Z" fill="white"/>
</g>
<path d="M380.306 191.57L380.314 195.834L356.521 209.515L356.503 205.251L380.306 191.57Z" fill="#2FF395"/>
<path d="M386.215 195.154L386.223 197.752L356.529 214.73V212.123L386.215 195.154Z" fill="#2FF395"/>
<g opacity="0.1">
<path opacity="0.1" d="M380.306 191.57L380.314 195.834L356.521 209.515L356.503 205.251L380.306 191.57Z" fill="white"/>
<path opacity="0.1" d="M386.215 195.154L386.223 197.752L356.529 214.73V212.123L386.215 195.154Z" fill="white"/>
<path opacity="0.1" d="M381.105 213.535L381.113 216.143L356.582 230.365L356.573 227.758L381.105 213.535Z" fill="white"/>
<path opacity="0.1" d="M386.25 205.574L386.259 208.181L356.565 225.15L356.556 222.552L386.25 205.574Z" fill="white"/>
<path opacity="0.1" d="M370.428 209.367L370.437 211.974L356.547 219.936L356.538 217.337L370.428 209.367Z" fill="white"/>
</g>
<path d="M384.994 244.212V246.916L357.399 262.838L357.39 260.135L384.994 244.212Z" fill="#2FF395"/>
<path d="M397.427 232.1L397.436 234.803L357.381 257.929L357.372 255.234L397.427 232.1Z" fill="#2FF395"/>
<g opacity="0.1">
<path opacity="0.1" d="M384.994 244.212V246.916L357.399 262.838L357.39 260.135L384.994 244.212Z" fill="white"/>
<path opacity="0.1" d="M397.427 232.1L397.436 234.803L357.381 257.929L357.372 255.234L397.427 232.1Z" fill="white"/>
</g>
<path d="M381.105 213.535L381.113 216.143L356.582 230.365L356.573 227.758L381.105 213.535Z" fill="#2FF395"/>
<path d="M386.25 205.574L386.259 208.181L356.565 225.15L356.556 222.552L386.25 205.574Z" fill="#2FF395"/>
<path d="M370.428 209.367L370.437 211.974L356.547 219.936L356.538 217.337L370.428 209.367Z" fill="#2FF395"/>
<path d="M126.757 69.1932C126.426 68.5391 125.927 67.9834 125.31 67.5823C124.693 67.1811 123.981 66.9487 123.245 66.9086C123.088 66.9154 122.934 66.9478 122.788 67.0045L66.8246 99.1551C66.3613 99.4198 65.9762 99.8008 65.7081 100.26C65.4399 100.719 65.2981 101.24 65.2969 101.771V147.778C65.3179 148.228 65.4452 148.668 65.6686 149.06C65.8919 149.453 66.2051 149.788 66.5827 150.038C66.9604 150.288 67.392 150.447 67.8427 150.501C68.2934 150.556 68.7507 150.504 69.1776 150.35H69.3005L125.308 118.165C125.773 117.902 126.159 117.522 126.426 117.062C126.693 116.602 126.831 116.08 126.827 115.549V69.5158C126.832 69.4041 126.808 69.293 126.757 69.1932Z" fill="#2FF395"/>
<path opacity="0.2" d="M65.2969 101.745V147.752C65.3179 148.202 65.4452 148.641 65.6686 149.034C65.8919 149.427 66.2051 149.762 66.5827 150.012C66.9604 150.262 67.392 150.421 67.8427 150.475C68.2934 150.529 68.7507 150.478 69.1776 150.324C69.0648 150.365 68.9438 150.378 68.8249 150.362C68.7059 150.346 68.5925 150.303 68.4943 150.234C68.3961 150.166 68.3159 150.075 68.2606 149.969C68.2054 149.863 68.1766 149.746 68.1767 149.626V103.611C68.1794 103.024 68.3565 102.451 68.6859 101.963L65.6042 100.437C65.4008 100.843 65.2956 101.291 65.2969 101.745Z" fill="white"/>
<path opacity="0.4" d="M123.289 66.9086C123.132 66.9154 122.978 66.9478 122.832 67.0045L66.8246 99.1551C66.2988 99.45 65.8761 99.8972 65.6129 100.437L68.6947 101.963C68.9523 101.575 69.2982 101.252 69.7044 101.021L125.712 68.888C125.801 68.8372 125.9 68.8052 126.002 68.794C126.104 68.7828 126.207 68.7927 126.305 68.8229C126.403 68.8532 126.494 68.9033 126.572 68.97C126.65 69.0367 126.712 69.1186 126.757 69.2106C126.432 68.5594 125.94 68.0042 125.332 67.6003C124.723 67.1963 124.019 66.9579 123.289 66.9086Z" fill="white"/>
<path opacity="0.3" d="M126.757 69.1932C126.426 68.5391 125.927 67.9834 125.31 67.5823C124.693 67.1811 123.981 66.9487 123.245 66.9086C123.088 66.9154 122.934 66.9478 122.788 67.0045L66.8246 99.1551C66.3613 99.4198 65.9762 99.8008 65.7081 100.26C65.4399 100.719 65.2981 101.24 65.2969 101.771V147.778C65.3179 148.228 65.4452 148.668 65.6686 149.06C65.8919 149.453 66.2051 149.788 66.5827 150.038C66.9604 150.288 67.392 150.447 67.8427 150.501C68.2934 150.556 68.7507 150.504 69.1776 150.35H69.3005L125.308 118.165C125.773 117.902 126.159 117.522 126.426 117.062C126.693 116.602 126.831 116.08 126.827 115.549V69.5158C126.832 69.4041 126.808 69.293 126.757 69.1932Z" fill="white"/>
<g opacity="0.6">
<path opacity="0.6" d="M89.5736 101.78L108.653 103.41L89.6526 126.876L89.5736 101.78Z" fill="white"/>
</g>
<path d="M91.672 199.871L92.1022 199.636L92.5412 199.409V206.01L73.4535 216.84L51.8722 229.048V223.494L51.9864 223.38L52.4254 222.962C53.3612 222.098 54.3887 221.338 55.4896 220.694L55.6125 220.625L55.7969 220.52C56.4906 220.141 57.2093 219.809 57.948 219.526L58.5538 219.308C61.0957 218.586 63.7052 218.125 66.3417 217.93L67.1055 217.826C69.326 217.538 71.4796 216.872 73.471 215.855L73.9539 215.585L74.3578 215.349C78.0103 213.108 81.3818 209.158 84.7621 205.661L85.2801 205.129L85.5348 204.876L86.0001 204.414L86.2372 204.188C87.8283 202.599 89.5956 201.195 91.5052 200.002L91.672 199.871Z" fill="#2FF395"/>
<path opacity="0.4" d="M91.672 199.871L92.1022 199.636L92.5412 199.409V206.01L73.4535 216.84L51.8722 229.048V223.494L51.9864 223.38L52.4254 222.962C53.3612 222.098 54.3887 221.338 55.4896 220.694L55.6125 220.625L55.7969 220.52C56.4906 220.141 57.2093 219.809 57.948 219.526L58.5538 219.308C61.0957 218.586 63.7052 218.125 66.3417 217.93L67.1055 217.826C69.326 217.538 71.4796 216.872 73.471 215.855L73.9539 215.585L74.3578 215.349C78.0103 213.108 81.3818 209.158 84.7621 205.661L85.2801 205.129L85.5348 204.876L86.0001 204.414L86.2372 204.188C87.8283 202.599 89.5956 201.195 91.5052 200.002L91.672 199.871Z" fill="black"/>
<path d="M68.9932 198.083C71.3551 196.732 73.2779 197.822 73.2867 200.525C73.2083 201.995 72.7809 203.426 72.0393 204.7C71.2977 205.975 70.2629 207.057 69.0196 207.859C66.649 209.219 64.7349 208.129 64.7262 205.434C64.8025 203.962 65.2289 202.528 65.9706 201.25C66.7123 199.972 67.7481 198.887 68.9932 198.083Z" fill="white"/>
<path d="M73.4535 215.855C71.462 216.872 69.3084 217.538 67.088 217.826C69.3084 217.538 71.462 216.872 73.4535 215.855Z" fill="#5D3464"/>
<path d="M55.9725 212.288C56.2816 212.111 56.6082 211.965 56.9471 211.852C57.8705 211.609 58.842 211.609 59.7655 211.852L65.253 212.768C66.2803 212.886 67.3169 212.645 68.1855 212.088C69.2782 211.43 70.2347 210.572 71.0039 209.559C71.8597 208.313 72.9332 207.229 74.1734 206.359L74.2964 206.289C75.1066 205.867 76.0472 205.765 76.9304 206.001C77.9611 206.146 79.0097 205.914 79.8804 205.347C81.0797 204.622 82.1142 203.657 82.9183 202.513C83.9631 201.101 85.0167 199.679 85.9825 198.302C86.692 197.177 87.5515 196.154 88.5375 195.258C88.7488 195.094 88.9718 194.946 89.2048 194.814C90.2213 194.274 91.3781 194.053 92.5236 194.177V199.409L92.0846 199.636L91.6808 199.854L91.4349 200.002C89.5253 201.195 87.758 202.599 86.1669 204.188L85.9299 204.414L85.4645 204.876L85.2099 205.129L84.6919 205.661C81.3028 209.149 77.9401 213.108 74.2876 215.349L73.8837 215.585L73.4008 215.855C71.4093 216.872 69.2557 217.538 67.0353 217.826L66.2714 217.93C63.635 218.125 61.0255 218.586 58.4836 219.308L57.8778 219.526C57.1386 219.815 56.4199 220.153 55.7267 220.538L55.5423 220.642L55.4194 220.712C54.3184 221.355 53.291 222.116 52.3551 222.979L51.9161 223.398L51.802 223.511V216.439C52.1708 215.916 52.5483 215.419 52.9434 214.948C53.7973 213.9 54.821 213.002 55.9725 212.288Z" fill="#2FF395"/>
<g opacity="0.2">
<path opacity="0.2" d="M55.9725 212.288C56.2816 212.111 56.6082 211.965 56.9471 211.852C57.8705 211.609 58.842 211.609 59.7655 211.852L65.253 212.768C66.2803 212.886 67.3169 212.645 68.1855 212.088C69.2782 211.43 70.2347 210.572 71.0039 209.559C71.8597 208.313 72.9332 207.229 74.1734 206.359L74.2964 206.289C75.1066 205.867 76.0472 205.765 76.9304 206.001C77.9611 206.146 79.0097 205.914 79.8804 205.347C81.0797 204.622 82.1142 203.657 82.9183 202.513C83.9631 201.101 85.0167 199.679 85.9825 198.302C86.692 197.177 87.5515 196.154 88.5375 195.258C88.7488 195.094 88.9718 194.946 89.2048 194.814C90.2213 194.274 91.3781 194.053 92.5236 194.177V199.409L92.0846 199.636L91.6808 199.854L91.4349 200.002C89.5253 201.195 87.758 202.599 86.1669 204.188L85.9299 204.414L85.4645 204.876L85.2099 205.129L84.6919 205.661C81.3028 209.149 77.9401 213.108 74.2876 215.349L73.8837 215.585L73.4008 215.855C71.4093 216.872 69.2557 217.538 67.0353 217.826L66.2714 217.93C63.635 218.125 61.0255 218.586 58.4836 219.308L57.8778 219.526C57.1386 219.815 56.4199 220.153 55.7267 220.538L55.5423 220.642L55.4194 220.712C54.3184 221.355 53.291 222.116 52.3551 222.979L51.9161 223.398L51.802 223.511V216.439C52.1708 215.916 52.5483 215.419 52.9434 214.948C53.7973 213.9 54.821 213.002 55.9725 212.288Z" fill="black"/>
</g>
<path d="M48.29 202.635L95.9654 175.272L96.0708 213.056L48.4129 240.419L48.29 202.635ZM92.5061 194.177V181.298L51.802 204.624L51.8898 234.446L92.5763 211.111V206.01V199.409V194.177" fill="#2FF395"/>
<g opacity="0.6">
<path opacity="0.6" d="M48.29 202.635L95.9654 175.272L96.0708 213.056L48.4129 240.419L48.29 202.635ZM92.5061 194.177V181.298L51.802 204.624L51.8898 234.446L92.5763 211.111V206.01V199.409V194.177" fill="white"/>
</g>
<path d="M51.8722 229.066L73.4535 216.858L92.5588 206.027V211.129L51.8898 234.446L51.8722 229.066Z" fill="#455A64"/>
<path d="M51.802 204.624L92.4885 181.298V194.177C91.3429 194.053 90.1862 194.274 89.1697 194.814C88.9367 194.946 88.7137 195.094 88.5024 195.258C87.5164 196.154 86.6569 197.177 85.9474 198.302C84.9816 199.679 83.928 201.101 82.8832 202.513C82.0944 203.651 81.0783 204.616 79.898 205.347C79.0273 205.914 77.9786 206.146 76.9479 206.001C76.0647 205.765 75.1242 205.867 74.3139 206.289L74.191 206.359C72.9507 207.229 71.8773 208.313 71.0214 209.559C70.2523 210.572 69.2958 211.43 68.203 212.088C67.3345 212.645 66.2979 212.886 65.2705 212.768L59.783 211.826C58.8596 211.583 57.8881 211.583 56.9646 211.826C56.6257 211.938 56.2992 212.084 55.9901 212.262C54.8511 212.979 53.8394 213.877 52.9961 214.922C52.601 215.393 52.2234 215.89 51.8547 216.413L51.802 204.624ZM69.0196 207.859C70.2583 207.061 71.2902 205.984 72.0315 204.716C72.7729 203.448 73.2029 202.024 73.2867 200.56C73.2867 197.857 71.3551 196.767 68.9932 198.118C67.7481 198.922 66.7123 200.007 65.9706 201.285C65.2289 202.563 64.8025 203.997 64.7262 205.469C64.7262 208.164 66.649 209.254 69.0196 207.894" fill="#2FF395"/>
<path d="M57.948 219.526C57.2088 219.815 56.4901 220.153 55.7969 220.537C56.4901 220.153 57.2088 219.815 57.948 219.526Z" fill="#5D3464"/>
<path d="M289.933 130.8L342.789 100.489L342.938 154.422L290.082 184.733L289.933 130.8ZM337.942 151.597L337.819 109L294.929 133.59L295.052 176.153L337.942 151.562" fill="#2FF395"/>
<path opacity="0.6" d="M289.933 130.8L342.789 100.489L342.938 154.422L290.082 184.733L289.933 130.8ZM337.942 151.597L337.819 109L294.929 133.59L295.052 176.153L337.942 151.562" fill="white"/>
<path d="M316.739 125.847L329.171 126.911L316.22 142.964L303.788 141.901L316.739 125.847Z" fill="#FAFAFA"/>
<path d="M329.171 126.911L329.18 143.217L316.22 159.271V142.964L329.171 126.911Z" fill="#EBEBEB"/>
<path d="M303.788 141.901L316.22 142.964V159.271L303.788 158.207V141.901Z" fill="#E0E0E0"/>
<path d="M294.929 133.599L337.819 109L337.942 151.562L295.052 176.144L294.929 133.599ZM329.171 143.191V126.885L316.739 125.821L303.788 141.901V158.207L316.221 159.271L329.18 143.217" fill="#2FF395"/>
<g opacity="0.2">
<path opacity="0.2" d="M294.929 133.599L337.819 109L337.942 151.562L295.052 176.144L294.929 133.599ZM329.171 143.191V126.885L316.739 125.821L303.788 141.901V158.207L316.221 159.271L329.18 143.217" fill="white"/>
</g>
<path d="M338.908 79.352L363.185 65.4L363.29 101.789L339.013 115.741L338.908 79.352ZM354.554 95.048V94.9085C354.751 93.482 355.248 92.1126 356.011 90.8886C357.454 88.6477 358.266 86.0645 358.364 83.4068C358.364 78.8288 355.089 76.9714 351.077 79.2561C347.065 81.5407 343.772 87.1913 343.79 91.7606C343.79 94.176 344.668 95.8241 346.134 96.5217C346.56 96.7507 346.922 97.0822 347.186 97.4859C347.449 97.8896 347.607 98.3526 347.644 98.8325V98.9894C347.686 99.4389 347.892 99.8577 348.224 100.167V101.152L348.636 100.917V101.248L348.224 101.492V102.477L348.636 102.242V102.582L348.215 102.818V103.812L348.627 103.567V104.204V104.431C348.75 105.372 349.505 105.686 350.383 105.172L350.296 105.224V105.294C350.296 105.573 350.55 105.669 350.814 105.512L351.191 105.303C351.331 105.211 351.45 105.09 351.54 104.949C351.629 104.807 351.687 104.648 351.709 104.483V104.405L351.621 104.448C352.097 104.136 352.5 103.727 352.803 103.247C353.106 102.767 353.302 102.228 353.377 101.666V101.405V100.777L353.79 100.542V99.5475L353.377 99.783V99.4516L353.79 99.2074V98.2221L353.369 98.4575V98.1174L353.79 97.882V96.8879C354.087 96.3119 354.283 95.6896 354.37 95.048H354.554ZM354.931 76.8842C354.879 77.015 354.931 77.1371 355.002 77.1458H355.098C355.181 77.0998 355.243 77.0253 355.274 76.9366L356.802 73.0213C356.854 72.8905 356.802 72.7684 356.731 72.7597C356.697 72.7518 356.661 72.7518 356.626 72.7597C356.546 72.8068 356.487 72.8812 356.459 72.969L354.931 76.8842ZM345.019 79.4479C344.931 79.5613 344.896 79.7182 344.957 79.788L346.669 81.968C346.669 82.0203 346.775 82.0203 346.845 81.968L346.942 81.8808C346.986 81.8353 347.015 81.7783 347.028 81.7166C347.04 81.6548 347.035 81.5908 347.012 81.532L345.467 79.352C345.467 79.2997 345.37 79.2997 345.3 79.352C345.259 79.3728 345.223 79.4026 345.194 79.4392L345.019 79.4479ZM356.968 95.8502C357.011 95.8042 357.041 95.7472 357.053 95.6857C357.066 95.6241 357.06 95.5603 357.039 95.5014L355.493 93.3563C355.493 93.304 355.397 93.2953 355.327 93.3563C355.287 93.3754 355.253 93.4057 355.23 93.4435C355.185 93.4881 355.153 93.5446 355.139 93.6064C355.125 93.6682 355.129 93.7328 355.151 93.7923L356.696 95.9462C356.72 95.9676 356.752 95.9795 356.784 95.9795C356.816 95.9795 356.848 95.9676 356.872 95.9462L356.968 95.859V95.8502ZM347.065 98.4226C347.065 98.2831 347.065 98.161 346.986 98.161C346.97 98.154 346.954 98.1504 346.937 98.1504C346.921 98.1504 346.904 98.154 346.889 98.161C346.809 98.2081 346.75 98.2826 346.722 98.3703L345.194 102.277C345.142 102.416 345.194 102.538 345.265 102.547H345.361C345.44 102.497 345.501 102.424 345.537 102.338L347.065 98.4226ZM343.886 96.792C343.932 96.7474 343.963 96.6909 343.977 96.6291C343.991 96.5673 343.987 96.5028 343.965 96.4432C343.941 96.4217 343.91 96.4099 343.877 96.4099C343.845 96.4099 343.814 96.4217 343.79 96.4432C343.751 96.4682 343.718 96.5009 343.693 96.5391L341.059 99.8091C341.014 99.854 340.984 99.911 340.971 99.973C340.959 100.035 340.965 100.099 340.989 100.158C341.012 100.179 341.041 100.19 341.072 100.19C341.103 100.19 341.133 100.179 341.156 100.158L341.252 100.062L343.886 96.792ZM361.235 88.5167C361.288 88.3772 361.235 88.2638 361.165 88.2551L358.531 88.0284C358.497 88.0164 358.46 88.0164 358.426 88.0284C358.349 88.0782 358.29 88.1517 358.259 88.2377C358.206 88.3772 358.259 88.4906 358.329 88.4993L360.963 88.726H361.06C361.137 88.6762 361.196 88.6027 361.227 88.5167H361.235ZM358.277 78.48C358.233 78.5255 358.203 78.5825 358.19 78.6442C358.178 78.706 358.184 78.77 358.206 78.8288C358.218 78.8404 358.231 78.8496 358.247 78.8559C358.262 78.8622 358.278 78.8654 358.294 78.8654C358.311 78.8654 358.327 78.8622 358.342 78.8559C358.357 78.8496 358.371 78.8404 358.382 78.8288L358.479 78.7416L361.113 75.4716C361.156 75.4261 361.186 75.3691 361.199 75.3073C361.211 75.2456 361.206 75.1816 361.183 75.1228C361.159 75.1013 361.127 75.0895 361.095 75.0895C361.063 75.0895 361.031 75.1013 361.007 75.1228C360.971 75.1469 360.938 75.1763 360.911 75.21L358.277 78.48ZM340.936 86.764C340.875 86.8948 340.936 87.0169 341.006 87.0256L343.64 87.2523H343.737C343.815 87.203 343.873 87.1293 343.904 87.043C343.965 86.9035 343.904 86.7814 343.834 86.7727L341.2 86.5547C341.169 86.5426 341.134 86.5426 341.103 86.5547C341.025 86.6072 340.966 86.6838 340.936 86.7727V86.764ZM350.849 74.6432V78.1312C350.849 78.2533 350.937 78.3056 351.051 78.2446C351.106 78.2057 351.153 78.1551 351.186 78.0962C351.219 78.0374 351.239 77.9719 351.244 77.9045V74.4165C351.244 74.2944 351.156 74.2421 351.042 74.3031C350.986 74.3419 350.94 74.3926 350.907 74.4514C350.873 74.5103 350.853 74.5758 350.849 74.6432ZM362.614 81.2878C362.671 81.2505 362.718 81.2001 362.752 81.141C362.786 81.0818 362.804 81.0156 362.807 80.9478C362.807 80.8257 362.719 80.7734 362.614 80.8431L359.541 82.5871C359.485 82.6255 359.438 82.676 359.405 82.735C359.371 82.7939 359.352 82.8596 359.348 82.9272C359.343 82.9521 359.347 82.9778 359.358 83.0006C359.368 83.0235 359.386 83.0425 359.408 83.055C359.43 83.0674 359.456 83.0727 359.481 83.0701C359.507 83.0675 359.531 83.0572 359.55 83.0406L362.614 81.2966V81.2878ZM339.408 94.3766C339.408 94.4986 339.496 94.551 339.61 94.4899L342.675 92.7459C342.733 92.7097 342.781 92.6596 342.815 92.6002C342.848 92.5408 342.867 92.474 342.868 92.4058C342.868 92.2838 342.78 92.2402 342.675 92.3012L339.61 94.0452C339.553 94.0826 339.504 94.1328 339.469 94.1918C339.434 94.2507 339.413 94.317 339.408 94.3853" fill="#2FF395"/>
<path d="M351.85 104.413V104.492C351.827 104.657 351.77 104.816 351.68 104.957C351.591 105.099 351.472 105.219 351.332 105.311L350.954 105.521C350.691 105.678 350.471 105.582 350.436 105.303V105.233L350.524 105.181L351.788 104.457L351.85 104.413Z" fill="#37474F"/>
<path d="M353.562 101.414V101.675C353.487 102.237 353.291 102.775 352.988 103.255C352.685 103.735 352.282 104.145 351.806 104.457L350.541 105.181C349.663 105.695 348.891 105.381 348.785 104.439V104.213L353.562 101.414Z" fill="#455A64"/>
<path d="M348.689 102.591L348.68 102.251L353.562 99.4603V99.7917L348.689 102.591Z" fill="#37474F"/>
<path d="M353.975 98.2308V99.2161L353.562 99.4603L348.68 102.251L348.268 102.486V101.501L348.68 101.265L353.553 98.4662L353.975 98.2308Z" fill="#455A64"/>
<path d="M353.448 86.7466C353.852 86.5111 354.185 86.7466 354.185 87.1651V90.7665C354.171 91.2265 354.035 91.6747 353.79 92.0658L353.202 93.086C353.016 93.3919 352.913 93.7404 352.903 94.0975V97.4983L352.605 97.664V94.2632C352.622 93.8075 352.755 93.3636 352.991 92.9726L353.588 91.9437C353.773 91.6404 353.875 91.295 353.887 90.9409V87.3308C353.887 87.0605 353.685 86.9471 353.439 87.0866C353.31 87.1695 353.204 87.2814 353.127 87.4133C353.051 87.5453 353.007 87.6933 353 87.8453V91.124C352.986 91.3787 352.912 91.6266 352.784 91.8477C352.656 92.0688 352.477 92.257 352.262 92.3971C351.859 92.6326 351.525 92.4407 351.525 91.9786V88.6911C351.525 88.4121 351.332 88.2987 351.086 88.4382C350.957 88.521 350.851 88.633 350.774 88.7649C350.698 88.8969 350.654 89.0449 350.647 89.1969V92.4843C350.631 92.7375 350.557 92.9837 350.429 93.2032C350.301 93.4227 350.123 93.6095 349.909 93.7487C349.505 93.9842 349.172 93.7487 349.172 93.3302V90.0427C349.172 89.7637 348.97 89.6503 348.724 89.7898C348.597 89.8737 348.49 89.9859 348.414 90.1176C348.338 90.2493 348.294 90.3968 348.285 90.5485V94.176C348.27 94.3026 348.291 94.4307 348.346 94.5462C348.4 94.6616 348.485 94.7599 348.592 94.83L349.189 95.1701C349.327 95.2676 349.435 95.4 349.503 95.5534C349.571 95.7069 349.596 95.8757 349.576 96.0421V99.408L349.286 99.5737V96.1729C349.298 96.0454 349.275 95.9171 349.221 95.8008C349.167 95.6845 349.084 95.5843 348.979 95.5102L348.382 95.1788C348.244 95.0813 348.136 94.9489 348.068 94.7955C348 94.642 347.975 94.4732 347.995 94.3068V90.6967C348.01 90.4445 348.085 90.1994 348.213 89.9812C348.341 89.763 348.519 89.5779 348.733 89.441C349.137 89.2056 349.47 89.441 349.47 89.8596V93.1383C349.47 93.4174 349.672 93.5394 349.918 93.3999C350.046 93.3147 350.153 93.201 350.229 93.0678C350.305 92.9346 350.349 92.7856 350.357 92.6326V89.3451C350.371 89.0914 350.444 88.8445 350.573 88.6247C350.701 88.4049 350.88 88.2184 351.095 88.0807C351.499 87.8453 351.832 88.0807 351.832 88.4993V91.7867C351.832 92.0658 352.034 92.1791 352.28 92.0396C352.408 91.9568 352.515 91.8448 352.592 91.7129C352.668 91.581 352.712 91.4329 352.719 91.281V87.9935C352.736 87.7441 352.811 87.5019 352.937 87.2857C353.063 87.0695 353.238 86.885 353.448 86.7466Z" fill="white"/>
<path d="M366.407 59.8453L335.677 77.4772L335.8 121.269L366.53 103.628L366.407 59.8453ZM339.005 115.706L338.908 79.352L363.185 65.4L363.29 101.789L339.013 115.741" fill="#2FF395"/>
<g opacity="0.6">
<path opacity="0.6" d="M366.407 59.8453L335.677 77.4772L335.8 121.269L366.53 103.628L366.407 59.8453ZM339.005 115.706L338.908 79.352L363.185 65.4L363.29 101.789L339.013 115.741" fill="white"/>
</g>
<path d="M348.689 104.213V103.576L353.562 100.786V101.414L348.689 104.213Z" fill="#37474F"/>
<path d="M353.975 99.5562V100.55L353.562 100.786L348.689 103.576L348.276 103.82L348.268 102.826L348.689 102.591L353.562 99.7917L353.975 99.5562Z" fill="#455A64"/>
<path d="M348.68 100.925L353.553 98.1262V98.4662L348.68 101.265V100.925Z" fill="#37474F"/>
<path d="M351.068 79.2735C355.098 76.9802 358.356 78.8375 358.373 83.4155C358.275 86.0732 357.462 88.6564 356.02 90.8973C355.257 92.1213 354.76 93.4908 354.563 94.9172V95.0567C354.477 95.6983 354.281 96.3206 353.983 96.8966L352.947 97.4983V94.0975C352.957 93.7404 353.06 93.3919 353.246 93.086L353.834 92.0658C354.078 91.6747 354.215 91.2265 354.229 90.7665V87.1651C354.229 86.7029 353.895 86.5111 353.492 86.7466C353.278 86.8858 353.1 87.0726 352.972 87.2921C352.844 87.5116 352.769 87.7577 352.754 88.011V91.2984C352.747 91.4504 352.703 91.5984 352.627 91.7303C352.55 91.8622 352.444 91.9742 352.315 92.057C352.069 92.1965 351.867 92.057 351.867 91.8041V88.5167C351.867 88.0546 351.534 87.8627 351.13 88.0981C350.915 88.2359 350.736 88.4223 350.608 88.6421C350.479 88.8619 350.406 89.1089 350.392 89.3626V92.65C350.384 92.803 350.34 92.952 350.264 93.0852C350.188 93.2184 350.081 93.3321 349.953 93.4173C349.707 93.5569 349.505 93.4174 349.505 93.1558V89.877C349.505 89.4149 349.172 89.223 348.768 89.4585C348.554 89.5953 348.376 89.7804 348.248 89.9986C348.12 90.2168 348.045 90.462 348.03 90.7141V94.3242C348.01 94.4906 348.035 94.6594 348.103 94.8129C348.171 94.9663 348.279 95.0988 348.417 95.1962L349.014 95.5276C349.119 95.6018 349.203 95.702 349.256 95.8182C349.31 95.9345 349.333 96.0628 349.321 96.1903V99.5911L348.276 100.193C347.945 99.8838 347.739 99.4651 347.697 99.0156V98.8586C347.66 98.3788 347.502 97.9158 347.238 97.5121C346.974 97.1084 346.613 96.7769 346.187 96.5478C344.756 95.8502 343.851 94.2022 343.842 91.7867C343.781 87.2 347.065 81.5756 351.068 79.2735Z" fill="#2FF395"/>
<path d="M353.009 92.9726C352.772 93.3636 352.639 93.8075 352.622 94.2632V97.664L349.584 99.408V96.0072C349.605 95.8408 349.58 95.672 349.512 95.5185C349.444 95.3651 349.335 95.2327 349.198 95.1352L348.601 94.7951C348.494 94.725 348.409 94.6267 348.354 94.5113C348.3 94.3958 348.279 94.2677 348.294 94.1411V90.531C348.303 90.3794 348.347 90.2319 348.423 90.1002C348.499 89.9685 348.605 89.8562 348.733 89.7724C348.979 89.6329 349.181 89.7724 349.181 90.0253V93.304C349.181 93.7662 349.514 93.958 349.918 93.7226C350.132 93.5833 350.309 93.3965 350.437 93.177C350.565 92.9575 350.64 92.7114 350.656 92.4582V89.1707C350.663 89.0187 350.707 88.8707 350.783 88.7388C350.859 88.6069 350.966 88.4949 351.095 88.4121C351.34 88.2726 351.534 88.4121 351.534 88.665V91.9524C351.534 92.4146 351.867 92.6064 352.271 92.371C352.486 92.2308 352.664 92.0427 352.792 91.8215C352.92 91.6004 352.995 91.3526 353.009 91.0978V87.8191C353.016 87.6671 353.06 87.5191 353.136 87.3872C353.212 87.2553 353.319 87.1433 353.448 87.0605C353.693 86.921 353.895 87.0605 353.895 87.3046V90.9147C353.884 91.2689 353.781 91.6142 353.597 91.9175L353.009 92.9726Z" fill="#2FF395"/>
<g opacity="0.4">
<path opacity="0.4" d="M351.068 79.2735C355.098 76.9802 358.356 78.8375 358.373 83.4155C358.275 86.0732 357.462 88.6564 356.02 90.8973C355.257 92.1213 354.76 93.4908 354.563 94.9172V95.0567C354.477 95.6983 354.281 96.3206 353.983 96.8966L352.947 97.4983V94.0975C352.957 93.7404 353.06 93.3919 353.246 93.086L353.834 92.0658C354.078 91.6747 354.215 91.2265 354.229 90.7665V87.1651C354.229 86.7029 353.895 86.5111 353.492 86.7466C353.278 86.8858 353.1 87.0726 352.972 87.2921C352.844 87.5116 352.769 87.7577 352.754 88.011V91.2984C352.747 91.4504 352.703 91.5984 352.627 91.7303C352.55 91.8622 352.444 91.9742 352.315 92.057C352.069 92.1965 351.867 92.057 351.867 91.8041V88.5167C351.867 88.0546 351.534 87.8627 351.13 88.0981C350.915 88.2359 350.736 88.4223 350.608 88.6421C350.479 88.8619 350.406 89.1089 350.392 89.3626V92.65C350.384 92.803 350.34 92.952 350.264 93.0852C350.188 93.2184 350.081 93.3321 349.953 93.4173C349.707 93.5569 349.505 93.4174 349.505 93.1558V89.877C349.505 89.4149 349.172 89.223 348.768 89.4585C348.554 89.5953 348.376 89.7804 348.248 89.9986C348.12 90.2168 348.045 90.462 348.03 90.7141V94.3242C348.01 94.4906 348.035 94.6594 348.103 94.8129C348.171 94.9663 348.279 95.0988 348.417 95.1962L349.014 95.5276C349.119 95.6018 349.203 95.702 349.256 95.8182C349.31 95.9345 349.333 96.0628 349.321 96.1903V99.5911L348.276 100.193C347.945 99.8838 347.739 99.4651 347.697 99.0156V98.8586C347.66 98.3788 347.502 97.9158 347.238 97.5121C346.974 97.1084 346.613 96.7769 346.187 96.5478C344.756 95.8502 343.851 94.2022 343.842 91.7867C343.781 87.2 347.065 81.5756 351.068 79.2735Z" fill="white"/>
<path opacity="0.4" d="M353.009 92.9726C352.772 93.3636 352.639 93.8075 352.622 94.2632V97.664L349.584 99.408V96.0072C349.605 95.8408 349.58 95.672 349.512 95.5185C349.444 95.3651 349.336 95.2327 349.198 95.1352L348.601 94.7951C348.494 94.725 348.409 94.6267 348.354 94.5113C348.3 94.3958 348.279 94.2677 348.294 94.1411V90.531C348.303 90.3794 348.347 90.2318 348.423 90.1002C348.499 89.9685 348.605 89.8562 348.733 89.7724C348.979 89.6329 349.181 89.7724 349.181 90.0253V93.304C349.181 93.7661 349.514 93.958 349.918 93.7225C350.132 93.5833 350.309 93.3965 350.437 93.177C350.566 92.9575 350.64 92.7114 350.656 92.4581V89.1707C350.663 89.0187 350.707 88.8707 350.783 88.7388C350.859 88.6069 350.966 88.4949 351.095 88.4121C351.34 88.2726 351.534 88.4121 351.534 88.665V91.9524C351.534 92.4145 351.867 92.6064 352.271 92.3709C352.486 92.2308 352.664 92.0426 352.792 91.8215C352.921 91.6004 352.995 91.3525 353.009 91.0978V87.8191C353.016 87.6671 353.06 87.5191 353.136 87.3872C353.212 87.2553 353.319 87.1433 353.448 87.0605C353.694 86.921 353.895 87.0605 353.895 87.3046V90.9147C353.884 91.2689 353.781 91.6142 353.597 91.9175L353.009 92.9726Z" fill="white"/>
</g>
<path d="M353.966 96.8966L353.974 97.8907L353.553 98.1261L348.68 100.925L348.267 101.161L348.259 100.175L353.966 96.8966Z" fill="#455A64"/>
<path d="M341.103 86.5809C341.134 86.5687 341.169 86.5687 341.2 86.5809L343.834 86.7989C343.93 86.7989 343.965 86.9297 343.904 87.0692C343.873 87.1555 343.815 87.2292 343.737 87.2785H343.64L341.006 87.0518C340.91 87.0518 340.875 86.921 340.936 86.7902C340.968 86.7045 341.026 86.6312 341.103 86.5809Z" fill="white"/>
<path d="M355.327 93.3563C355.397 93.3563 355.458 93.3563 355.493 93.3563L357.039 95.5014C357.061 95.5603 357.066 95.6241 357.053 95.6857C357.041 95.7472 357.011 95.8042 356.969 95.8502L356.872 95.9374C356.848 95.9589 356.816 95.9707 356.784 95.9707C356.752 95.9707 356.72 95.9589 356.696 95.9374L355.151 93.7836C355.129 93.724 355.125 93.6595 355.139 93.5977C355.153 93.5359 355.185 93.4793 355.23 93.4348C355.254 93.4002 355.288 93.373 355.327 93.3563Z" fill="white"/>
<path d="M362.614 80.8431C362.719 80.7733 362.807 80.8431 362.807 80.9478C362.805 81.0156 362.786 81.0818 362.752 81.141C362.718 81.2001 362.671 81.2505 362.614 81.2878L359.55 83.0318C359.531 83.0485 359.507 83.0588 359.481 83.0614C359.456 83.064 359.431 83.0587 359.408 83.0462C359.386 83.0338 359.368 83.0148 359.358 82.9919C359.347 82.969 359.343 82.9434 359.348 82.9185C359.352 82.8509 359.371 82.7852 359.405 82.7263C359.438 82.6673 359.485 82.6167 359.541 82.5784L362.614 80.8431Z" fill="white"/>
<path d="M361.025 75.1577C361.049 75.1362 361.08 75.1244 361.113 75.1244C361.145 75.1244 361.176 75.1362 361.2 75.1577C361.223 75.2164 361.229 75.2805 361.216 75.3422C361.204 75.404 361.174 75.461 361.13 75.5065L358.496 78.7765L358.4 78.8637C358.388 78.8753 358.374 78.8845 358.359 78.8908C358.344 78.8971 358.328 78.9003 358.312 78.9003C358.295 78.9003 358.279 78.8971 358.264 78.8908C358.249 78.8845 358.235 78.8753 358.224 78.8637C358.201 78.8049 358.196 78.7409 358.208 78.6791C358.22 78.6174 358.25 78.5604 358.294 78.5149L360.928 75.2449C360.956 75.2112 360.988 75.1818 361.025 75.1577Z" fill="white"/>
<path d="M343.79 96.4345C343.814 96.413 343.845 96.4012 343.878 96.4012C343.91 96.4012 343.941 96.413 343.965 96.4345C343.987 96.494 343.991 96.5585 343.977 96.6204C343.963 96.6822 343.932 96.7387 343.886 96.7833L341.252 100.053L341.156 100.149C341.133 100.17 341.103 100.182 341.072 100.182C341.041 100.182 341.012 100.17 340.989 100.149C340.965 100.091 340.959 100.026 340.971 99.9643C340.984 99.9023 341.014 99.8453 341.059 99.8004L343.693 96.5304C343.718 96.4921 343.751 96.4595 343.79 96.4345Z" fill="white"/>
<path d="M356.802 72.7684C356.836 72.7606 356.872 72.7606 356.907 72.7684C356.995 72.7684 357.03 72.8992 356.977 73.03L355.45 76.9453C355.419 77.034 355.356 77.1085 355.274 77.1546H355.177C355.081 77.1546 355.054 77.0238 355.107 76.893L356.635 72.9777C356.663 72.89 356.722 72.8155 356.802 72.7684Z" fill="white"/>
<path d="M342.648 92.275C342.754 92.214 342.841 92.275 342.841 92.3797C342.84 92.4478 342.822 92.5146 342.788 92.574C342.755 92.6334 342.706 92.6835 342.648 92.7197L339.584 94.4637C339.47 94.5248 339.382 94.4637 339.382 94.3504C339.387 94.2821 339.408 94.2159 339.443 94.1569C339.478 94.0979 339.526 94.0477 339.584 94.0103L342.648 92.275Z" fill="white"/>
<path d="M351.042 74.3031C351.156 74.2421 351.244 74.3031 351.244 74.4165V77.9045C351.239 77.9719 351.219 78.0374 351.186 78.0962C351.153 78.1551 351.106 78.2057 351.051 78.2446C350.937 78.3056 350.849 78.2446 350.849 78.1312V74.6432C350.853 74.5758 350.873 74.5103 350.907 74.4514C350.94 74.3926 350.986 74.3419 351.042 74.3031Z" fill="white"/>
<path d="M345.3 79.352C345.37 79.352 345.432 79.352 345.467 79.352L347.012 81.5058C347.035 81.5646 347.04 81.6286 347.028 81.6904C347.016 81.7522 346.986 81.8091 346.942 81.8546L346.81 81.968C346.74 81.968 346.67 81.968 346.634 81.968L345.098 79.8141C345.036 79.7444 345.098 79.5874 345.159 79.4741C345.192 79.4199 345.241 79.3772 345.3 79.352Z" fill="white"/>
<path d="M358.4 88.072C358.434 88.06 358.471 88.06 358.505 88.072L361.139 88.2987C361.236 88.2987 361.262 88.4208 361.209 88.5603C361.178 88.6463 361.119 88.7198 361.042 88.7696H360.946L358.312 88.5429C358.224 88.5429 358.189 88.4208 358.241 88.2813C358.27 88.1965 358.326 88.1232 358.4 88.072Z" fill="white"/>
<path d="M346.889 98.1959C346.904 98.1889 346.921 98.1853 346.937 98.1853C346.954 98.1853 346.97 98.1889 346.986 98.1959C347.082 98.1959 347.108 98.318 347.065 98.4575L345.537 102.373C345.501 102.458 345.44 102.531 345.361 102.582H345.265C345.177 102.582 345.142 102.451 345.194 102.312L346.722 98.4052C346.75 98.3175 346.809 98.243 346.889 98.1959Z" fill="white"/>
<path d="M253.408 131.907L259.484 129.867L254.049 139.721L246.902 148.371L253.408 131.907Z" fill="#455A64"/>
<path d="M273.146 106.532L265.885 132.439L254.278 145.764L251.213 154.422L238.184 161.896L246.902 148.371L254.049 139.721L259.484 129.867L273.146 106.532Z" fill="#37474F"/>
<path d="M295.623 83.6074L295.728 119.621L290.521 113.813L287.211 117.493L273.146 106.532L259.484 129.867L253.408 131.907L246.902 148.371L238.184 161.896L251.213 154.422L265.92 145.99L273.234 141.796L295.754 128.882L238.184 161.896L238.052 116.621L295.623 83.6074Z" fill="#2FF395"/>
<path opacity="0.2" d="M295.623 83.6074L295.728 119.621L290.521 113.813L287.211 117.493L273.146 106.532L259.484 129.867L253.408 131.907L246.902 148.371L238.184 161.896L251.213 154.422L265.92 145.99L273.234 141.796L295.754 128.882L238.184 161.896L238.052 116.621L295.623 83.6074Z" fill="black"/>
<path d="M290.521 113.813L295.728 119.621L295.754 128.882L273.234 141.796L275.358 137.645L281.267 131.332L290.521 113.813Z" fill="#455A64"/>
<path d="M273.146 106.532L287.211 117.493L274.41 131.724L265.92 145.99L251.213 154.422L254.278 145.764L265.885 132.439L273.146 106.532Z" fill="#455A64"/>
<path d="M233.056 113.787L300.592 75.0617L300.75 131.742L233.214 170.476L233.056 113.787ZM295.728 119.621L295.623 83.6073L238.052 116.621L238.184 161.896L295.754 128.882V119.621" fill="#2FF395"/>
<path opacity="0.6" d="M233.056 113.787L300.592 75.0617L300.75 131.742L233.214 170.476L233.056 113.787ZM295.728 119.621L295.623 83.6073L238.052 116.621L238.184 161.896L295.754 128.882V119.621" fill="white"/>
<path d="M290.521 113.813L281.267 131.332L275.358 137.645L273.234 141.796L265.92 145.99L274.41 131.724L287.211 117.493L290.521 113.813Z" fill="#37474F"/>
<path d="M125.879 139.389L125.958 166.439L91.5666 186.155L91.4876 159.105L125.879 139.389Z" fill="#2FF395"/>
<g opacity="0.1">
<path opacity="0.1" d="M125.879 139.389L125.958 166.439L91.5666 186.155L91.4876 159.105L125.879 139.389Z" fill="black"/>
</g>
<path d="M88.5024 157.422L128.89 134.288L128.987 168.122L88.599 191.256L88.5024 157.422ZM125.958 166.43L125.879 139.398L91.4964 159.114L91.5666 186.146L125.958 166.421" fill="#2FF395"/>
<g opacity="0.6">
<path opacity="0.6" d="M88.5024 157.422L128.89 134.288L128.987 168.122L88.599 191.256L88.5024 157.422ZM125.958 166.43L125.879 139.398L91.4964 159.114L91.5666 186.146L125.958 166.421" fill="white"/>
</g>
<path d="M119.996 147.167C120.611 146.81 121.111 147.098 121.12 147.804L121.164 163.5C121.143 163.883 121.031 164.256 120.837 164.588C120.643 164.92 120.373 165.201 120.049 165.41L114.14 168.793C116.686 165.305 118.363 161.032 118.346 157.23C118.328 153.428 116.642 151.057 114.079 150.542L119.996 147.167Z" fill="#37474F"/>
<path d="M108.705 155.216C112.349 153.132 115.317 154.806 115.325 158.966C115.21 161.237 114.554 163.449 113.41 165.419C112.267 167.39 110.67 169.063 108.749 170.302C105.097 172.394 102.129 170.72 102.12 166.561C102.239 164.288 102.897 162.075 104.042 160.103C105.186 158.132 106.784 156.457 108.705 155.216ZM106.677 163.064C107.27 162.684 107.764 162.17 108.118 161.564C108.472 160.957 108.677 160.276 108.714 159.576C108.714 158.285 107.836 157.771 106.668 158.416C106.075 158.797 105.581 159.312 105.226 159.918C104.87 160.523 104.664 161.204 104.622 161.904C104.622 163.186 105.5 163.709 106.677 163.055" fill="#263238"/>
<path d="M103.279 156.751C100.724 160.239 99.056 164.512 99.0647 168.313C99.0735 172.115 100.768 174.496 103.332 175.01L97.4492 178.376C96.8346 178.734 96.3342 178.446 96.3342 177.748L96.2815 162.052C96.3012 161.668 96.4126 161.293 96.6064 160.96C96.8003 160.626 97.0711 160.343 97.3965 160.134L103.279 156.751Z" fill="#37474F"/>
<path d="M106.668 158.373C107.792 157.727 108.714 158.242 108.714 159.532C108.677 160.232 108.472 160.914 108.118 161.52C107.764 162.126 107.27 162.641 106.677 163.02C105.544 163.674 104.622 163.151 104.622 161.869C104.662 161.168 104.868 160.485 105.224 159.878C105.579 159.27 106.074 158.754 106.668 158.373Z" fill="white"/>
<path d="M114.14 150.542C116.704 151.057 118.398 153.437 118.407 157.23C118.416 161.024 116.748 165.34 114.201 168.793C112.757 170.81 110.914 172.513 108.784 173.798C107.183 174.842 105.255 175.273 103.358 175.01C100.794 174.496 99.0999 172.107 99.0911 168.313C99.0823 164.52 100.75 160.204 103.305 156.751C104.74 154.73 106.575 153.021 108.696 151.728C110.303 150.684 112.24 150.262 114.14 150.542ZM108.775 170.302C110.696 169.063 112.294 167.39 113.437 165.419C114.58 163.449 115.236 161.237 115.352 158.966C115.352 154.806 112.375 153.132 108.732 155.216C106.812 156.456 105.214 158.129 104.07 160.1C102.925 162.07 102.266 164.281 102.147 166.552C102.147 170.711 105.123 172.386 108.775 170.293" fill="#455A64"/>
<path d="M283.928 57.4386L327.292 32.5779L327.415 76.8232L284.059 101.684L283.928 57.4386ZM323.315 74.5037L323.218 39.6237L288.028 59.7669L288.133 94.6469L323.315 74.4688" fill="#2FF395"/>
<path opacity="0.6" d="M283.928 57.4386L327.292 32.5779L327.415 76.8232L284.059 101.684L283.928 57.4386ZM323.315 74.5037L323.218 39.6237L288.028 59.7669L288.133 94.6469L323.315 74.4688" fill="white"/>
<path d="M323.218 39.5888L288.028 59.7669L288.133 94.6817L323.315 74.5037L323.218 39.5888Z" fill="#2FF395"/>
<path d="M301.698 63.4554C302.115 63.7662 302.422 64.1995 302.576 64.6937C302.001 65.6369 301.597 66.6727 301.382 67.7544C301.132 67.962 300.865 68.1487 300.583 68.3125C300.267 68.488 299.939 68.6396 299.6 68.7659C299.727 67.8454 299.965 66.9435 300.311 66.0801C300.681 65.1599 301.146 64.2802 301.698 63.4554Z" fill="#F0F0F0"/>
<path d="M296.404 69.0101C296.611 69.0661 296.822 69.1012 297.036 69.1147C297.915 69.1805 298.797 69.0616 299.626 68.7659C299.562 69.1931 299.533 69.6247 299.538 70.0565C299.538 70.4509 299.57 70.8446 299.635 71.2337C298.683 72.0111 297.817 72.8882 297.054 73.8497C296.817 74.1374 296.606 74.4165 296.422 74.6694C294.385 75.6198 293.981 74.6694 293.972 73.2393C293.963 71.8092 294.367 70.4053 296.404 69.0101Z" fill="#F0F0F0"/>
<path d="M309.644 69.6117C310.279 70.0599 311.027 70.3227 311.804 70.3704C312.026 70.3831 312.249 70.3831 312.471 70.3704C313.349 72.0097 312.629 73.3875 311.593 74.7304C311.215 75.2408 310.748 75.6806 310.215 76.0297C309.899 76.2319 309.517 76.3075 309.147 76.2411C308.778 76.1748 308.447 75.9714 308.222 75.6722C308.222 75.3931 308.222 75.1054 308.222 74.8002C308.243 73.823 308.095 72.8496 307.783 71.9226C308.131 71.5774 308.459 71.2135 308.766 70.8325C309.084 70.444 309.377 70.0363 309.644 69.6117Z" fill="#F0F0F0"/>
<path d="M311.69 64.31C312.531 63.9998 313.431 63.8807 314.324 63.9612C314.537 63.9764 314.748 64.0084 314.956 64.0571C316.633 64.4582 316.457 65.8011 315.834 67.4056C315.526 68.4483 314.866 69.3536 313.964 69.9693C313.512 70.2219 313.007 70.3653 312.489 70.3878C312.267 70.4006 312.044 70.4006 311.822 70.3878C311.045 70.3402 310.296 70.0774 309.662 69.6292C309.794 69.4286 309.916 69.2281 310.039 69.0188C310.42 68.3739 310.748 67.7004 311.023 67.0045C311.281 66.343 311.481 65.6602 311.62 64.964C311.69 64.7286 311.69 64.528 311.69 64.31Z" fill="white"/>
<path d="M308.74 68.3735C308.893 68.8683 309.201 69.3019 309.618 69.6118C309.75 69.4112 309.873 69.2106 309.995 69.0014C309.873 69.2106 309.75 69.4112 309.618 69.6118C309.351 70.0393 309.058 70.4499 308.74 70.8413C308.433 71.2223 308.104 71.5861 307.757 71.9313L307.344 72.3149L307.757 71.9225C307.605 71.4198 307.298 70.9774 306.879 70.6582C307.61 69.9925 308.237 69.2225 308.74 68.3735Z" fill="#E0E0E0"/>
<path d="M310.724 64.7634C311.04 64.5827 311.372 64.4309 311.716 64.31C311.716 64.5193 311.646 64.7285 311.602 64.9465C311.464 65.6427 311.264 66.3255 311.005 66.987C310.731 67.6829 310.402 68.3564 310.022 69.0013C309.899 69.2106 309.776 69.4112 309.644 69.6117C309.227 69.3019 308.919 68.8682 308.766 68.3735C309.324 67.425 309.719 66.3905 309.934 65.3128C310.18 65.1061 310.444 64.9222 310.724 64.7634Z" fill="#F0F0F0"/>
<path d="M314.93 58.424C316.967 57.4735 317.362 58.424 317.371 59.8541C317.379 61.2842 316.976 62.6881 314.939 64.0833C314.731 64.0346 314.519 64.0025 314.306 63.9873C313.413 63.9068 312.513 64.026 311.672 64.3362C311.735 63.9058 311.767 63.4717 311.769 63.0369C311.771 62.6421 311.736 62.2479 311.664 61.8597C312.634 61.085 313.518 60.2079 314.298 59.2437L314.93 58.424Z" fill="#F0F0F0"/>
<path d="M307.774 71.9225C308.085 72.8528 308.234 73.8289 308.213 74.8089C308.213 75.1141 308.213 75.4018 308.213 75.6809C308.02 78.1225 306.984 79.1689 305.737 79.8839C304.49 80.599 303.454 80.7559 303.252 78.5236C303.237 78.2331 303.237 77.942 303.252 77.6516C303.247 76.5163 303.389 75.385 303.674 74.2857L304.078 74.1985C304.666 74.0481 305.231 73.8162 305.755 73.5096C306.354 73.1613 306.914 72.749 307.423 72.2801L307.774 71.9225Z" fill="white"/>
<path d="M311.69 61.8422C311.763 62.2275 311.798 62.6188 311.795 63.0107C311.793 63.4455 311.761 63.8796 311.699 64.31C311.699 64.5193 311.629 64.7285 311.585 64.9465C311.629 64.7285 311.664 64.5193 311.699 64.31C311.355 64.4309 311.023 64.5827 310.707 64.7634C310.427 64.9222 310.162 65.1061 309.916 65.3128C309.996 64.887 310.037 64.4552 310.039 64.0222C310.052 63.6357 310.017 63.2491 309.934 62.8712C310.213 62.7826 310.481 62.6627 310.733 62.5137C311.068 62.3137 311.388 62.0893 311.69 61.8422Z" fill="#E0E0E0"/>
<path d="M306.887 70.632C307.307 70.9512 307.614 71.3937 307.765 71.8964L307.353 72.2888C306.843 72.7578 306.284 73.17 305.684 73.5183C305.161 73.8249 304.596 74.0568 304.007 74.2072L303.604 74.2857C303.798 73.493 304.093 72.7282 304.482 72.0098C304.905 71.9037 305.31 71.7362 305.684 71.5127C306.119 71.2673 306.523 70.9717 306.887 70.632Z" fill="#F0F0F0"/>
<path d="M299.635 71.2337C299.635 71.4081 299.705 71.5825 299.749 71.7481C299.877 72.2242 300.085 72.6753 300.364 73.0823C300.624 73.4408 300.959 73.7384 301.347 73.9543C301.472 74.0241 301.601 74.0853 301.734 74.1374C301.122 75.2788 300.402 76.3593 299.582 77.3638C299.345 77.6516 299.126 77.9132 298.915 78.1399C298.493 78.6341 297.998 79.0632 297.449 79.413C297.303 79.527 297.134 79.6074 296.954 79.6483C296.773 79.6892 296.586 79.6896 296.405 79.6495C296.224 79.6094 296.054 79.5299 295.909 79.4165C295.763 79.3032 295.644 79.159 295.561 78.9945C294.938 78.1225 294.753 76.9714 296.439 74.6345C296.624 74.3816 296.834 74.1026 297.071 73.8148C297.831 72.8664 298.691 72.0011 299.635 71.2337Z" fill="white"/>
<path d="M301.733 74.12C302.013 74.2356 302.31 74.3062 302.611 74.3293C302.941 74.368 303.274 74.368 303.604 74.3293C303.318 75.4287 303.177 76.5599 303.182 77.6952C303.167 77.9856 303.167 78.2767 303.182 78.5672C302.797 79.6181 302.103 80.5296 301.189 81.1832C300.773 81.4239 300.289 81.5219 299.811 81.4622C298.731 81.375 298.055 80.7908 298.871 78.1748C299.082 77.9481 299.301 77.6865 299.539 77.3987C300.376 76.3795 301.111 75.2813 301.733 74.12Z" fill="#F0F0F0"/>
<path d="M302.629 71.879C303.205 72.1588 303.866 72.2148 304.482 72.0359C304.093 72.7544 303.798 73.5192 303.604 74.3118L304.008 74.2333L303.604 74.3118C303.277 74.3722 302.943 74.3898 302.612 74.3641C302.31 74.3411 302.013 74.2705 301.733 74.1549C301.601 74.1027 301.472 74.0415 301.347 73.9717C301.472 74.0415 301.601 74.1027 301.733 74.1549C302.127 73.4365 302.428 72.6719 302.629 71.879Z" fill="#E0E0E0"/>
<path d="M309.618 58.921C310.169 59.1324 310.643 59.503 310.979 59.9849C311.358 60.5422 311.607 61.1769 311.708 61.8422C311.397 62.0903 311.069 62.3148 310.724 62.5137C310.472 62.6627 310.204 62.7826 309.925 62.8712C309.856 62.5211 309.712 62.1898 309.503 61.8995C309.294 61.6093 309.025 61.3667 308.714 61.1882C308.917 60.3974 309.221 59.6355 309.618 58.921Z" fill="#F0F0F0"/>
<path d="M313.903 53.6367C314.047 53.5228 314.216 53.4425 314.396 53.4016C314.576 53.3607 314.763 53.3603 314.943 53.4004C315.123 53.4406 315.292 53.5202 315.437 53.6335C315.582 53.7468 315.7 53.8909 315.781 54.0553C316.405 54.9273 316.589 56.0783 314.903 58.4153L314.271 59.2349C313.491 60.1991 312.608 61.0763 311.637 61.8509C311.535 61.1887 311.286 60.5572 310.909 60.0023C310.572 59.5205 310.098 59.1499 309.548 58.9385C310.154 57.7931 310.871 56.7095 311.69 55.7034C311.927 55.4156 312.147 55.154 312.357 54.9273C312.8 54.4187 313.322 53.9831 313.903 53.6367Z" fill="white"/>
<path d="M307.739 58.7553C308.063 58.6949 308.394 58.6774 308.722 58.703C309.024 58.7311 309.319 58.8015 309.6 58.9123C309.214 59.6318 308.919 60.3963 308.722 61.1882C308.143 60.9082 307.478 60.8553 306.861 61.04C307.247 60.317 307.542 59.5497 307.739 58.7553Z" fill="#E0E0E0"/>
<path d="M300.627 70.5535C300.876 70.4047 301.141 70.2847 301.417 70.196C301.488 70.5455 301.633 70.8761 301.842 71.1662C302.051 71.4562 302.319 71.6991 302.629 71.879C302.433 72.6711 302.138 73.4357 301.751 74.1549C301.618 74.1027 301.489 74.0415 301.365 73.9717C300.977 73.7558 300.641 73.4582 300.381 73.0997C300.102 72.6927 299.894 72.2416 299.767 71.7656C299.767 71.5999 299.688 71.4255 299.653 71.2511C299.959 70.9941 300.285 70.7609 300.627 70.5535Z" fill="#F0F0F0"/>
<path d="M305.658 61.5283C306.036 61.3145 306.44 61.1504 306.861 61.04C307.477 60.8602 308.138 60.9163 308.714 61.197C309.025 61.3736 309.296 61.6144 309.506 61.9031C309.716 62.1918 309.862 62.5219 309.934 62.8712C310.026 63.248 310.07 63.6346 310.066 64.0222C310.06 64.4554 310.016 64.8873 309.934 65.3128C309.495 67.3556 308.431 69.2135 306.887 70.632C306.522 70.9687 306.119 71.2613 305.685 71.504C305.31 71.7275 304.905 71.895 304.482 72.001C303.866 72.1799 303.205 72.124 302.629 71.8441C302.319 71.6642 302.051 71.4213 301.842 71.1313C301.633 70.8412 301.488 70.5106 301.417 70.1611C301.33 69.7837 301.285 69.3975 301.286 69.0101C301.287 68.5766 301.331 68.1444 301.417 67.7195C301.632 66.6379 302.037 65.602 302.612 64.6588C303.108 63.8103 303.73 63.0403 304.455 62.3742C304.827 62.0533 305.23 61.77 305.658 61.5283Z" fill="#2FF395"/>
<g opacity="0.5">
<path opacity="0.5" d="M305.658 61.5283C306.036 61.3145 306.44 61.1504 306.861 61.04C307.477 60.8602 308.138 60.9163 308.714 61.197C309.025 61.3736 309.296 61.6144 309.506 61.9031C309.716 62.1918 309.862 62.5219 309.934 62.8712C310.026 63.248 310.07 63.6346 310.066 64.0222C310.06 64.4554 310.016 64.8873 309.934 65.3128C309.495 67.3556 308.431 69.2135 306.887 70.632C306.522 70.9687 306.119 71.2613 305.685 71.504C305.31 71.7275 304.905 71.895 304.482 72.001C303.866 72.1799 303.205 72.124 302.629 71.8441C302.319 71.6642 302.051 71.4213 301.842 71.1313C301.633 70.8412 301.488 70.5106 301.417 70.1611C301.33 69.7837 301.285 69.3975 301.286 69.0101C301.287 68.5766 301.331 68.1444 301.417 67.7195C301.632 66.6379 302.037 65.602 302.612 64.6588C303.108 63.8103 303.73 63.0403 304.455 62.3742C304.827 62.0533 305.23 61.77 305.658 61.5283Z" fill="white"/>
</g>
<path d="M297.396 63.0979C297.847 62.8446 298.353 62.7039 298.871 62.6881C299.093 62.6708 299.316 62.6708 299.539 62.6881C300.316 62.7357 301.064 62.9985 301.698 63.4467C301.158 64.2703 300.705 65.1469 300.346 66.0627C300.001 66.9261 299.762 67.8279 299.635 68.7485C298.792 69.0485 297.894 69.1674 297.001 69.0973C296.787 69.0838 296.576 69.0487 296.369 68.9926C294.701 68.5915 294.868 67.2486 295.491 65.6529C295.812 64.6096 296.485 63.7076 297.396 63.0979Z" fill="white"/>
<path d="M299.626 68.7659C299.969 68.6413 300.3 68.4896 300.618 68.3125C300.9 68.1487 301.167 67.962 301.417 67.7544C301.331 68.1793 301.287 68.6115 301.286 69.045C301.285 69.4324 301.33 69.8185 301.417 70.196C301.141 70.2847 300.876 70.4047 300.627 70.5535C300.279 70.7546 299.948 70.9819 299.635 71.2337C299.635 71.4081 299.705 71.5825 299.749 71.7481C299.749 71.5825 299.67 71.4081 299.635 71.2337C299.57 70.8446 299.538 70.4508 299.538 70.0565C299.533 69.6246 299.562 69.1931 299.626 68.7659Z" fill="#E0E0E0"/>
<path d="M310.11 51.9014C310.529 51.6688 311.011 51.5713 311.488 51.6224C312.568 51.7096 313.244 52.2938 312.427 54.9098C312.217 55.1366 311.997 55.3982 311.76 55.6859C310.943 56.6904 310.226 57.7709 309.618 58.9123C309.337 58.8015 309.041 58.7311 308.74 58.703C308.411 58.6774 308.081 58.6949 307.757 58.7554C308.037 57.6522 308.179 56.5186 308.178 55.3807C308.178 55.0755 308.178 54.7965 308.178 54.5523C308.539 53.4959 309.212 52.572 310.11 51.9014Z" fill="#F0F0F0"/>
<path d="M305.649 59.5314C306.291 59.1458 307 58.8826 307.739 58.7554C307.541 59.5467 307.246 60.3111 306.861 61.0313C306.44 61.1444 306.036 61.3115 305.658 61.5283C305.229 61.7782 304.826 62.0704 304.455 62.4003C304.036 62.0815 303.728 61.6389 303.577 61.1359C304.195 60.5142 304.892 59.9748 305.649 59.5314Z" fill="#F0F0F0"/>
<path d="M303.569 61.1359C303.72 61.6408 304.027 62.0859 304.447 62.409C303.721 63.0751 303.099 63.8452 302.603 64.6937C302.448 64.1995 302.141 63.7662 301.725 63.4554C301.994 63.0299 302.287 62.6194 302.603 62.2259C302.904 61.8454 303.227 61.4815 303.569 61.1359Z" fill="#E0E0E0"/>
<path d="M305.632 53.192C306.887 52.477 307.923 52.32 308.125 54.561C308.125 54.8052 308.125 55.0842 308.125 55.3894C308.126 56.5273 307.985 57.6609 307.704 58.7641C306.965 58.8913 306.256 59.1545 305.614 59.5401C304.856 59.9862 304.159 60.5285 303.542 61.1533C303.228 60.2266 303.077 59.2533 303.094 58.2757C303.094 57.9705 303.094 57.6741 303.094 57.4037C303.349 54.936 304.385 53.8983 305.632 53.192Z" fill="white"/>
<path d="M301.154 57.0288C301.471 56.8274 301.853 56.7533 302.223 56.8213C302.593 56.8893 302.924 57.0943 303.147 57.395C303.147 57.6653 303.147 57.9618 303.147 58.267C303.131 59.241 303.279 60.2107 303.586 61.1359C303.238 61.481 302.91 61.8449 302.603 62.2259C302.288 62.6194 301.994 63.0299 301.725 63.4554C301.09 63.0073 300.342 62.7445 299.565 62.6968C299.343 62.6795 299.12 62.6795 298.898 62.6968C298.02 61.0487 298.739 59.671 299.819 58.3368C300.187 57.8291 300.638 57.3868 301.154 57.0288Z" fill="#F0F0F0"/>
</svg>
