<svg width="84" height="69" viewBox="0 0 84 69" fill="none" xmlns="http://www.w3.org/2000/svg">
<path d="M5.22276 39.1566L9.14545 37.0326C7.20701 32.8813 6.16311 28.3688 6.08151 23.788C5.86734 15.6542 10.1263 5.92749 14.211 5.08056C18.5556 4.2434 22.1866 8.80324 22.2251 8.84472L25.7599 6.12576C25.5402 5.8473 20.4502 -0.62876 13.3968 0.656814C5.7675 2.09082 1.40444 15.1159 1.63676 23.8308C1.70649 29.139 2.93011 34.3685 5.22276 39.1566V39.1566Z" fill="#F04141"/>
<path d="M4.14094 41.5776L20.0824 7.81338C21.3546 5.11933 24.2639 3.06734 28.738 2.24506C38.3628 0.435854 51.3501 5.00762 57.7449 12.4435C60.6878 15.8766 61.6891 19.3167 60.99 22.2024L52.278 58.5104C51.3381 62.4779 47.6373 65.6209 41.4997 66.7708C30.1617 68.8958 14.8732 63.5169 7.35739 54.7579C3.3023 50.032 2.3403 45.2825 4.14094 41.5776Z" fill="#F04141"/>
<path d="M22.8547 18.9656C29.2292 26.4106 42.2164 30.9824 51.8613 29.174C61.5061 27.3655 64.14 19.8693 57.757 12.3839C51.3741 4.89845 38.375 0.376271 28.7502 2.18548C19.1253 3.99469 16.4599 11.5297 22.8547 18.9656ZM31.5573 5.50342C38.8535 4.14693 48.6606 7.59829 53.5024 13.2244C58.3442 18.8505 56.3196 24.5184 49.023 25.8849C41.7264 27.2513 31.9197 23.79 27.0879 18.1643C22.2561 12.5385 24.2708 6.87028 31.5573 5.50342Z" fill="#FF7070"/>
<path d="M42.7128 48.1032C42.7128 48.1032 45.0689 46.921 54.865 47.2097C57.8629 47.3226 62.3618 47.7021 64.1484 47.5592C65.9351 47.4163 66.91 45.4416 68.6922 44.0877C70.4202 42.8343 72.4955 42.15 74.6301 42.1296L74.6351 61.9339C72.3932 61.9992 70.1898 61.3408 68.3513 60.0562C65.0466 57.9904 63.828 57.1339 62.3629 57.5091C60.7637 58.0043 59.2295 58.689 57.7929 59.5486C53.305 62.3317 47.062 65.7493 41.5089 66.7912C35.2638 63.3538 35.0168 51.306 42.7128 48.1032Z" fill="#FF7070"/>
<path d="M69.5024 58.7185C68.2932 56.5517 67.7294 54.084 67.8776 51.607C68.0258 49.1301 68.8799 46.7473 70.3388 44.7401C73.3005 41.0289 77.7236 41.2955 80.2335 45.3327C81.4427 47.4996 82.0065 49.9672 81.8583 52.4442C81.7101 54.9211 80.8561 57.304 79.3971 59.3112C76.4254 63.022 72.0023 62.7554 69.5024 58.7185Z" fill="#F04141"/>
</svg>
