<svg width="39" height="85" viewBox="0 0 39 85" fill="none" xmlns="http://www.w3.org/2000/svg">
<g opacity="0.8">
<path opacity="0.8" d="M9.14247 3.75989L9.23966 3.75146C9.96218 3.71445 10.6863 3.7211 11.408 3.77142C11.6065 3.77723 11.8002 3.70941 11.9518 3.58102C12.1033 3.45262 12.2021 3.27275 12.229 3.07594C12.2378 2.97625 12.2268 2.87577 12.1966 2.78036C12.1663 2.68494 12.1175 2.59648 12.0528 2.5201C11.9881 2.44373 11.9088 2.38098 11.8197 2.33547C11.7306 2.28995 11.6333 2.26258 11.5335 2.25496C10.7425 2.19585 9.9486 2.18705 9.15652 2.2286C8.95507 2.2266 8.76105 2.3047 8.61719 2.44573C8.47333 2.58676 8.39139 2.77917 8.38939 2.98062C8.38739 3.18208 8.4655 3.37605 8.60654 3.51991C8.74757 3.66377 8.93996 3.74573 9.14141 3.74773L9.14247 3.75989Z" fill="white"/>
<path opacity="0.8" d="M0.761724 4.2299L0.8589 4.22147C1.58189 4.18177 2.30678 4.19253 3.02828 4.25362C3.22894 4.26828 3.42734 4.20364 3.58086 4.07359C3.73437 3.94354 3.83074 3.75845 3.84927 3.55811C3.85815 3.45841 3.84714 3.35794 3.8169 3.26252C3.78665 3.16711 3.73776 3.07864 3.67306 3.00227C3.60837 2.9259 3.52915 2.86315 3.44001 2.81763C3.35087 2.77212 3.25358 2.74475 3.15378 2.73712C2.36306 2.66723 1.56832 2.65435 0.775754 2.69861C0.583428 2.71268 0.403424 2.79858 0.271487 2.93922C0.139551 3.07986 0.0653329 3.26499 0.0635652 3.45782C0.0617976 3.65065 0.132607 3.83709 0.261943 3.98013C0.391279 4.12317 0.569687 4.21231 0.761724 4.2299Z" fill="white"/>
<path opacity="0.8" d="M3.81314 9.91413C3.99029 9.93389 4.16872 9.8904 4.31693 9.79138C4.46515 9.69236 4.57361 9.54417 4.62318 9.37295C4.67275 9.20174 4.66024 9.01854 4.58785 8.85566C4.51546 8.69278 4.38785 8.56068 4.22755 8.48273C3.45386 8.03395 2.59574 7.75002 1.70707 7.64873C1.50548 7.64185 1.30925 7.71452 1.16079 7.85107C1.01232 7.98762 0.923509 8.17711 0.913534 8.37858C0.906264 8.57836 0.977171 8.7731 1.11118 8.92146C1.24518 9.06982 1.43172 9.1601 1.63122 9.17313C2.27066 9.28276 2.88617 9.50273 3.45027 9.8232C3.55837 9.89156 3.68557 9.92344 3.81314 9.91413Z" fill="white"/>
<path opacity="0.8" d="M34.682 69.1775L33.916 64.5803C33.899 64.4804 33.9018 64.3782 33.9245 64.2795C33.9471 64.1808 33.9891 64.0875 34.0479 64.005C34.1067 63.9225 34.1813 63.8525 34.2673 63.799C34.3533 63.7454 34.449 63.7094 34.549 63.693C34.7484 63.6654 34.9509 63.7159 35.114 63.8341C35.2771 63.9523 35.3882 64.1289 35.4241 64.3271L36.1901 68.9243C36.2212 69.1255 36.1724 69.331 36.0542 69.4967C35.9359 69.6625 35.7576 69.7755 35.5572 69.8116L35.3871 69.8263C35.2127 69.8163 35.0472 69.7461 34.9187 69.6278C34.7902 69.5096 34.7065 69.3505 34.682 69.1775ZM32.6382 56.9062L31.8843 52.3079C31.8677 52.2097 31.8707 52.1092 31.893 52.0121C31.9152 51.915 31.9564 51.8232 32.0142 51.742C32.0719 51.6609 32.1451 51.5919 32.2295 51.539C32.3139 51.4861 32.4079 51.4504 32.5061 51.4338C32.6044 51.4172 32.7049 51.4202 32.802 51.4425C32.8991 51.4648 32.9908 51.506 33.072 51.5637C33.1531 51.6215 33.2221 51.6946 33.275 51.7791C33.3279 51.8635 33.3636 51.9575 33.3802 52.0557L34.1463 56.6529C34.1649 56.7513 34.1634 56.8525 34.142 56.9504C34.1205 57.0483 34.0795 57.1408 34.0215 57.2224C33.9634 57.304 33.8894 57.3731 33.804 57.4254C33.7186 57.4777 33.6235 57.5123 33.5244 57.527L33.3422 57.5428C33.1718 57.5269 33.0112 57.4562 32.8844 57.3415C32.7575 57.2268 32.6711 57.074 32.6382 56.9062ZM30.6064 44.6337L29.8525 40.0354C29.8182 39.8357 29.8642 39.6305 29.9805 39.4645C30.0967 39.2985 30.2739 39.1852 30.4734 39.1492C30.6746 39.1181 30.88 39.1669 31.0458 39.2852C31.2115 39.4034 31.3245 39.5818 31.3606 39.7822L32.1145 44.3805C32.1332 44.4789 32.1317 44.5801 32.1102 44.678C32.0888 44.7758 32.0478 44.8683 31.9898 44.9499C31.9317 45.0316 31.8577 45.1006 31.7723 45.153C31.6869 45.2053 31.5917 45.2399 31.4927 45.2545C31.4326 45.2659 31.3715 45.2712 31.3104 45.2704C31.1394 45.2564 30.9778 45.1864 30.8505 45.0714C30.7233 44.9563 30.6375 44.8025 30.6064 44.6337ZM28.5858 32.3481L28.1142 29.4513C28.0636 28.8681 27.9179 28.3177 27.8219 27.7752C27.7836 27.5772 27.8255 27.3722 27.9384 27.2051C28.0513 27.0381 28.226 26.9227 28.4239 26.8844C28.6219 26.8462 28.8269 26.8881 28.994 27.001C29.161 27.1139 29.2764 27.2886 29.3147 27.4866C29.3642 28.0576 29.5231 28.6191 29.6112 29.2112L30.095 32.107C30.1258 32.307 30.0765 32.511 29.9578 32.6749C29.8391 32.8387 29.6606 32.9491 29.461 32.9821L29.2908 32.9969C29.1179 32.9825 28.9547 32.9109 28.8271 32.7934C28.6994 32.6759 28.6145 32.5192 28.5858 32.3481ZM26.0131 20.3307C25.5551 18.8733 25.0223 17.4406 24.4167 16.0381C24.3774 15.9467 24.3565 15.8484 24.3552 15.7489C24.3539 15.6494 24.3722 15.5506 24.4091 15.4582C24.4836 15.2715 24.6291 15.1221 24.8138 15.0427C24.9985 14.9634 25.2071 14.9607 25.3937 15.0352C25.5804 15.1096 25.7298 15.2553 25.8092 15.4399C26.4262 16.8931 26.9637 18.3788 27.4193 19.8904C27.4762 20.0834 27.4551 20.2908 27.3607 20.4684C27.2662 20.6459 27.1059 20.7794 26.9142 20.8401C26.8276 20.8657 26.7367 20.8736 26.6469 20.8633C26.4986 20.8413 26.3598 20.7771 26.247 20.6783C26.1343 20.5796 26.0524 20.4505 26.011 20.3064L26.0131 20.3307ZM20.6101 9.55031C19.6722 8.39335 18.5871 7.36408 17.3822 6.48869C17.3008 6.43065 17.2316 6.35713 17.1787 6.27236C17.1257 6.18759 17.0899 6.09323 17.0734 5.99464C17.0569 5.89604 17.06 5.79514 17.0825 5.69773C17.1049 5.60033 17.1464 5.50833 17.2044 5.42694C17.2625 5.34555 17.336 5.27639 17.4207 5.22341C17.5055 5.17043 17.5998 5.13465 17.6984 5.11814C17.797 5.10163 17.8979 5.10469 17.9953 5.12716C18.0927 5.14964 18.1847 5.19109 18.2661 5.24913C19.5832 6.21188 20.768 7.34376 21.7897 8.61562C21.8544 8.69249 21.903 8.78147 21.9328 8.87735C21.9627 8.97324 21.9732 9.07412 21.9636 9.17409C21.954 9.27405 21.9247 9.37109 21.8772 9.45958C21.8297 9.54807 21.7651 9.62622 21.6871 9.68945C21.5367 9.81258 21.3447 9.87308 21.1509 9.85838C21.0412 9.84746 20.9354 9.81189 20.8414 9.75434C20.7474 9.69679 20.6676 9.61875 20.6079 9.52603L20.6101 9.55031Z" fill="white"/>
<path opacity="0.8" d="M27.1685 69.4581L26.4014 64.8488C26.3706 64.6488 26.4199 64.4447 26.5386 64.2809C26.6573 64.117 26.8358 64.0066 27.0354 63.9736C27.1337 63.9567 27.2344 63.9594 27.3316 63.9816C27.4288 64.0038 27.5207 64.0449 27.6019 64.1027C27.6831 64.1605 27.7521 64.2338 27.8049 64.3184C27.8577 64.403 27.8933 64.4972 27.9095 64.5955L28.6766 69.2049C28.7075 69.4048 28.6582 69.6089 28.5395 69.7728C28.4208 69.9366 28.2422 70.047 28.0426 70.08L27.8725 70.0948C27.7022 70.0788 27.5416 70.0082 27.4147 69.8935C27.2878 69.7787 27.2015 69.626 27.1685 69.4581ZM25.1236 57.1746L24.3697 52.5763C24.3528 52.4781 24.3555 52.3774 24.3777 52.2802C24.3998 52.183 24.441 52.0912 24.4988 52.0099C24.5566 51.9287 24.6299 51.8597 24.7144 51.8069C24.799 51.7541 24.8932 51.7185 24.9916 51.7022C25.09 51.6836 25.1912 51.6851 25.289 51.7065C25.3869 51.728 25.4794 51.769 25.5611 51.8271C25.6427 51.8851 25.7117 51.9591 25.7641 52.0445C25.8164 52.1299 25.851 52.225 25.8657 52.3241L26.6328 56.9335C26.6497 57.0318 26.647 57.1324 26.6248 57.2296C26.6026 57.3268 26.5615 57.4187 26.5037 57.4999C26.4459 57.5812 26.3726 57.6502 26.288 57.703C26.2034 57.7558 26.1092 57.7913 26.0109 57.8076L25.8286 57.8234C25.655 57.8111 25.4907 57.7402 25.3626 57.6224C25.2345 57.5045 25.1502 57.3466 25.1236 57.1746ZM23.104 44.9011L22.338 40.3039C22.3071 40.1039 22.3564 39.8999 22.4751 39.736C22.5938 39.5722 22.7724 39.4618 22.972 39.4288C23.0703 39.4119 23.1709 39.4146 23.2681 39.4367C23.3653 39.4589 23.4572 39.5001 23.5384 39.5579C23.6197 39.6157 23.6887 39.689 23.7415 39.7735C23.7943 39.8581 23.8298 39.9523 23.8461 40.0507L24.601 44.6611C24.6179 44.7593 24.6152 44.86 24.5931 44.9572C24.5709 45.0544 24.5298 45.1463 24.472 45.2275C24.4142 45.3087 24.3409 45.3777 24.2563 45.4305C24.1717 45.4833 24.0775 45.5189 23.9791 45.5351L23.8091 45.5499C23.6339 45.5422 23.4672 45.4728 23.3382 45.3541C23.2092 45.2354 23.1263 45.075 23.104 44.9011ZM21.0723 32.6287L20.5996 29.7197L20.3073 28.0436C20.2892 27.9456 20.2905 27.8448 20.3113 27.7473C20.332 27.6497 20.3718 27.5572 20.4283 27.475C20.4848 27.3928 20.557 27.3225 20.6407 27.2682C20.7243 27.2139 20.8179 27.1766 20.916 27.1584C21.0141 27.1403 21.1148 27.1416 21.2123 27.1624C21.3099 27.1832 21.4024 27.223 21.4846 27.2795C21.5668 27.336 21.6371 27.4081 21.6914 27.4918C21.7457 27.5755 21.783 27.669 21.8011 27.7671C21.9104 28.3207 22.0096 28.8997 22.1088 29.4786L22.5815 32.3876C22.6123 32.5876 22.563 32.7916 22.4443 32.9555C22.3256 33.1193 22.1471 33.2297 21.9474 33.2627L21.7773 33.2775C21.6037 33.2652 21.4394 33.1943 21.3113 33.0765C21.1832 32.9586 21.0989 32.8007 21.0723 32.6287ZM18.4996 20.6113C18.0428 19.1494 17.5095 17.7125 16.9021 16.3065C16.8628 16.2151 16.842 16.1168 16.8407 16.0173C16.8394 15.9178 16.8576 15.819 16.8945 15.7266C16.969 15.5399 17.1146 15.3905 17.2993 15.3112C17.4839 15.2319 17.6925 15.2291 17.8792 15.3036C18.0659 15.3781 18.2153 15.5237 18.2946 15.7084C18.9117 17.1616 19.4492 18.6473 19.9048 20.1589C19.962 20.3533 19.9415 20.5623 19.8474 20.7418C19.7533 20.9213 19.5931 21.0572 19.4007 21.1207C19.3131 21.1405 19.2231 21.1483 19.1334 21.1439C18.984 21.1249 18.8437 21.0618 18.7304 20.9626C18.6171 20.8634 18.536 20.7326 18.4975 20.587L18.4996 20.6113ZM13.0955 9.81875C12.1642 8.65967 11.0785 7.63363 9.8687 6.76925C9.70585 6.65087 9.59599 6.47329 9.56274 6.27473C9.52949 6.07617 9.5755 5.87252 9.69089 5.70754C9.74738 5.62424 9.82017 5.55325 9.90488 5.49891C9.98959 5.44456 10.0844 5.40796 10.1837 5.39134C10.283 5.37472 10.3846 5.3784 10.4824 5.40219C10.5802 5.42597 10.6721 5.46938 10.7526 5.52973C12.0779 6.48267 13.2639 7.61574 14.2762 8.89622C14.3408 8.97309 14.3895 9.06206 14.4194 9.15795C14.4492 9.25383 14.4596 9.35468 14.4501 9.45465C14.4405 9.55462 14.4112 9.65169 14.3637 9.74018C14.3162 9.82867 14.2516 9.90682 14.1735 9.97005C14.022 10.091 13.8309 10.1512 13.6374 10.139C13.5281 10.1214 13.4235 10.0818 13.33 10.0226C13.2365 9.96336 13.156 9.88575 13.0934 9.79447L13.0955 9.81875Z" fill="white"/>
<path opacity="0.8" d="M20.9401 73.2912L20.2464 69.1039C20.2333 68.9135 20.2914 68.7252 20.4096 68.5754C20.5278 68.4256 20.6974 68.3251 20.8856 68.2935C21.0738 68.2619 21.2669 68.3015 21.4275 68.4044C21.5881 68.5074 21.7047 68.6665 21.7545 68.8506L22.4482 73.0379C22.4791 73.2379 22.4298 73.442 22.3111 73.6058C22.1924 73.7697 22.0138 73.8801 21.8142 73.9131L21.6441 73.9278C21.4717 73.9181 21.3078 73.8496 21.1798 73.7338C21.0517 73.6179 20.9671 73.4617 20.9401 73.2912ZM19.0904 62.1291L18.3977 57.954C18.3643 57.7556 18.411 57.552 18.5276 57.3881C18.6443 57.2242 18.8212 57.1133 19.0196 57.0799C19.2179 57.0464 19.4215 57.0932 19.5854 57.2098C19.7493 57.3264 19.8602 57.5034 19.8937 57.7018L20.5874 61.8891C20.6043 61.9873 20.6016 62.088 20.5795 62.1852C20.5573 62.2824 20.5161 62.3742 20.4583 62.4555C20.4005 62.5367 20.3272 62.6057 20.2427 62.6585C20.1581 62.7113 20.0639 62.7469 19.9655 62.7632L19.7955 62.7779C19.6211 62.7678 19.4556 62.6977 19.3271 62.5794C19.1985 62.4612 19.1149 62.302 19.0904 62.1291ZM17.2418 50.9792L16.5491 46.804C16.5303 46.7046 16.5321 46.6024 16.5542 46.5037C16.5763 46.405 16.6184 46.3119 16.6777 46.23C16.737 46.1481 16.8125 46.0791 16.8993 46.0274C16.9862 45.9756 17.0828 45.9421 17.1831 45.9289C17.2813 45.912 17.382 45.9147 17.4792 45.9369C17.5764 45.959 17.6682 46.0002 17.7495 46.058C17.8307 46.1158 17.8997 46.1891 17.9525 46.2736C18.0053 46.3582 18.0409 46.4524 18.0572 46.5508L18.7509 50.7381C18.7818 50.9381 18.7325 51.1421 18.6138 51.306C18.4951 51.4698 18.3165 51.5802 18.1169 51.6132L17.9468 51.628C17.7724 51.6179 17.6069 51.5478 17.4784 51.4295C17.3499 51.3112 17.2663 51.1521 17.2418 50.9792ZM15.4053 39.8282L14.7125 35.653C14.6994 35.4627 14.7576 35.2743 14.8758 35.1245C14.9939 34.9747 15.1636 34.8742 15.3518 34.8427C15.5399 34.8111 15.7331 34.8506 15.8937 34.9536C16.0543 35.0566 16.1708 35.2156 16.2206 35.3998L16.9023 39.5881C16.9192 39.6864 16.9164 39.7871 16.8943 39.8843C16.8721 39.9815 16.831 40.0733 16.7732 40.1546C16.7154 40.2358 16.6421 40.3048 16.5575 40.3576C16.4729 40.4104 16.3787 40.446 16.2804 40.4622L16.1103 40.477C15.9359 40.4669 15.7704 40.3968 15.6419 40.2785C15.5133 40.1602 15.4298 40.0011 15.4053 39.8282ZM13.4758 28.7342C13.1692 27.3164 12.8303 25.9504 12.4745 24.6715C12.4457 24.4856 12.4861 24.2955 12.5881 24.1374C12.69 23.9792 12.8465 23.864 13.0278 23.8136C13.2091 23.7631 13.4026 23.781 13.5716 23.8637C13.7406 23.9464 13.8733 24.0883 13.9447 24.2625C14.3147 25.5646 14.6567 26.9671 14.9664 28.4213C15.0077 28.6174 14.9694 28.8217 14.86 28.9896C14.7506 29.1574 14.5791 29.275 14.3831 29.3165L14.1766 29.3344C14.0166 29.3162 13.8664 29.2481 13.7472 29.1398C13.6279 29.0316 13.5457 28.8886 13.5122 28.7311L13.4758 28.7342ZM10.1089 18.1444C9.54344 16.8896 8.88601 15.6784 8.14202 14.5205C8.0332 14.3514 7.99603 14.146 8.03867 13.9494C8.0813 13.7529 8.20026 13.5814 8.36937 13.4726C8.53848 13.3637 8.74389 13.3266 8.94042 13.3692C9.13694 13.4118 9.30848 13.5308 9.4173 13.6999C10.2016 14.9182 10.897 16.1915 11.4982 17.5098C11.5779 17.6946 11.5832 17.903 11.5129 18.0916C11.4426 18.2802 11.3021 18.4343 11.1209 18.5218C10.9997 18.5624 10.8706 18.5736 10.7443 18.5544C10.6178 18.5415 10.4965 18.4969 10.3918 18.4246C10.2872 18.3524 10.2024 18.2549 10.1454 18.1413L10.1089 18.1444Z" fill="white"/>
<path opacity="0.8" d="M37.9094 79.5428L38.0795 79.528C38.1778 79.5118 38.272 79.4763 38.3566 79.4235C38.4412 79.3707 38.5145 79.3016 38.5723 79.2204C38.6301 79.1392 38.6712 79.0473 38.6934 78.9501C38.7156 78.8529 38.7183 78.7523 38.7014 78.654L38.3352 76.409C38.3293 76.3016 38.3009 76.1966 38.2519 76.1008C38.2028 76.005 38.1342 75.9206 38.0505 75.8531C37.9667 75.7855 37.8697 75.7363 37.7657 75.7086C37.6618 75.681 37.5531 75.6754 37.4469 75.6924C37.3406 75.7094 37.2391 75.7485 37.149 75.8072C37.0588 75.8659 36.982 75.9428 36.9234 76.0331C36.8649 76.1234 36.826 76.225 36.8092 76.3313C36.7925 76.4375 36.7982 76.5462 36.8261 76.6501L37.2043 78.894C37.2288 79.067 37.3124 79.2261 37.441 79.3444C37.5695 79.4626 37.735 79.5327 37.9094 79.5428Z" fill="white"/>
<path opacity="0.8" d="M29.5286 80.0128L29.6987 79.9981C29.7983 79.9833 29.8939 79.9487 29.9799 79.8965C30.066 79.8442 30.1407 79.7753 30.1997 79.6938C30.2588 79.6123 30.301 79.5198 30.3238 79.4218C30.3466 79.3238 30.3497 79.2222 30.3328 79.1229L29.9544 76.879C29.9046 76.6948 29.7881 76.5358 29.6275 76.4328C29.4669 76.3298 29.2737 76.2903 29.0856 76.3219C28.8974 76.3535 28.7278 76.4539 28.6096 76.6037C28.4914 76.7535 28.4332 76.9419 28.4463 77.1323L28.8247 79.3762C28.8517 79.5467 28.9362 79.7029 29.0643 79.8188C29.1924 79.9346 29.3562 80.0031 29.5286 80.0128Z" fill="white"/>
<path opacity="0.8" d="M23.1297 83.1508L23.312 83.135C23.4103 83.1187 23.5045 83.0832 23.5891 83.0304C23.6737 82.9776 23.747 82.9085 23.8048 82.8273C23.8626 82.7461 23.9037 82.6542 23.9259 82.557C23.9481 82.4598 23.9508 82.3592 23.9339 82.2609L23.5556 80.0169C23.5408 79.9174 23.5062 79.8218 23.454 79.7358C23.4017 79.6497 23.3329 79.575 23.2513 79.516C23.1698 79.4569 23.0773 79.4147 22.9793 79.3919C22.8813 79.369 22.7797 79.366 22.6804 79.3829C22.481 79.4189 22.3038 79.5322 22.1875 79.6982C22.0713 79.8642 22.0253 80.0694 22.0596 80.2691L22.4258 82.5142C22.4587 82.682 22.5451 82.8347 22.6719 82.9495C22.7988 83.0642 22.9594 83.1348 23.1297 83.1508Z" fill="white"/>
</g>
</svg>
