<svg width="500" height="500" viewBox="0 0 500 500" fill="none" xmlns="http://www.w3.org/2000/svg">
<path d="M412.68 252.44C322.25 200.23 176.1 200.23 86.2499 252.44C-3.60006 304.65 -3.12006 389.32 87.3099 441.53C177.74 493.74 323.9 493.74 413.75 441.53C503.6 389.32 503.12 304.66 412.68 252.44Z" fill="#565656"/>
<path d="M227.68 421.28C211.68 412.05 185.84 412.05 169.95 421.28C154.06 430.51 154.14 445.49 170.14 454.72C186.14 463.95 211.98 463.96 227.87 454.72C243.76 445.48 243.68 430.52 227.68 421.28Z" fill="#4D4D4D"/>
<path d="M325.11 427.21C309.16 418.01 283.4 418.01 267.56 427.21C251.72 436.41 251.81 451.34 267.75 460.54C283.69 469.74 309.46 469.75 325.29 460.54C341.12 451.33 341.05 436.42 325.11 427.21Z" fill="#4D4D4D"/>
<path d="M347.11 297.26C332.22 288.66 308.16 288.66 293.37 297.26C278.58 305.86 278.65 319.79 293.54 328.39C308.43 336.99 332.49 336.99 347.28 328.39C362.07 319.79 362 305.86 347.11 297.26Z" fill="#4D4D4D"/>
<path d="M87.25 370.297C87.3146 372.856 88.27 374.643 89.7415 375.476L89.8015 375.474L98.5349 380.255C98.7226 380.376 98.923 380.475 99.1326 380.55C99.5629 380.72 100.018 380.816 100.48 380.837C100.764 380.854 101.048 380.847 101.33 380.815L101.61 380.808L102.237 380.672L102.554 380.574C102.78 380.505 103.002 380.423 103.218 380.327L103.515 380.2C103.855 380.047 104.185 379.871 104.502 379.675L329.776 242.274C330.075 242.093 330.364 241.896 330.641 241.682L330.916 241.475L331.494 241.001L331.787 240.733L332.315 240.23L332.597 239.932L333.093 239.37L333.356 239.073L333.84 238.451C333.918 238.349 333.985 238.247 334.063 238.155C334.227 237.921 334.391 237.686 334.545 237.442L334.719 237.178C334.892 236.914 335.055 236.639 335.218 236.355C335.257 236.296 335.292 236.235 335.323 236.172C335.636 235.617 335.918 235.046 336.17 234.46C336.168 234.36 336.256 234.268 336.303 234.167L336.528 233.571C336.585 233.44 336.632 233.318 336.678 233.187C336.725 233.056 336.799 232.824 336.865 232.632C336.93 232.441 336.947 232.34 336.994 232.199C337.049 232.03 337.094 231.859 337.131 231.685L337.238 231.192L337.405 230.658C337.4 230.478 337.466 230.296 337.491 230.116C337.488 229.976 337.544 229.834 337.561 229.694C337.556 229.494 337.55 229.284 337.615 229.082C337.612 228.972 337.609 228.852 337.607 228.742C337.599 228.432 337.591 228.113 337.583 227.813L337.074 223.894C337.07 222.815 336.842 221.747 336.405 220.76C336.217 220.355 335.975 219.978 335.686 219.638C335.417 219.322 335.104 219.047 334.755 218.821C334.606 218.727 334.45 218.644 334.289 218.573L325.677 213.839L325.545 213.772L325.485 213.774C323.986 213.031 321.98 213.232 319.793 214.558L247.789 258.489L209.225 236.646C208.728 236.378 208.212 236.131 207.716 235.893L207.21 235.666C206.866 235.515 206.512 235.364 206.198 235.232L205.593 235.007C205.269 234.885 204.937 234.773 204.584 234.672L203.939 234.468L202.931 234.204L202.277 234.05C201.945 233.968 201.614 233.907 201.272 233.845L200.649 233.731C200.287 233.67 199.916 233.62 199.545 233.579L199.013 233.512C198.471 233.456 197.92 233.41 197.369 233.384C196.818 233.358 196.208 233.363 195.628 233.378C195.049 233.392 194.469 233.407 193.88 233.472C192.721 233.573 191.569 233.749 190.432 233.999C189.776 234.146 189.13 234.322 188.495 234.508L187.899 234.703C187.443 234.855 187.007 235.006 186.561 235.177L185.907 235.444C185.472 235.625 185.036 235.816 184.611 236.017L184.028 236.291C183.426 236.607 182.824 236.932 182.233 237.287L153.454 254.729C151.515 255.926 149.997 257.696 149.107 259.793C148.217 261.891 148.001 264.213 148.488 266.438C148.802 267.959 149.441 269.395 150.36 270.647C151.279 271.9 152.456 272.939 153.813 273.696L170.76 283.271L177.955 287.341C178.309 287.55 178.649 287.782 178.973 288.036C180.627 289.279 181.836 291.024 182.419 293.01C182.652 293.811 182.78 294.638 182.802 295.471L182.868 298.08L94.5494 351.957C90.0769 354.691 86.5591 361.162 86.7107 366.369L87.25 370.297Z" fill="#4D4D4D"/>
<path d="M433.3 325.92L428.66 322.12C428.38 314.8 428.09 307.12 429.31 299.89C430.53 292.66 433.36 285.53 438.52 280.35C440.68 278.18 443.36 276.35 446.41 275.98C449.46 275.61 452.85 277.16 453.9 280.04C454.95 282.92 453.34 286.33 451.58 289.04C447.82 294.75 443.33 299.96 439.65 305.72C435.789 311.775 433.598 318.744 433.3 325.92Z" fill="#50F5A6"/>
<path d="M433.3 326.92L437.94 330.73C441.37 323.49 446.1 316.79 452.62 312.15C454.951 310.709 457.129 309.033 459.12 307.15C461 305.15 462.3 302.38 461.76 299.69C461.06 296.25 457.4 293.97 453.88 293.95C450.36 293.93 447.07 295.71 444.35 297.95C436 304.75 431.19 316.33 433.3 326.92Z" fill="#50F5A6"/>
<path opacity="0.3" d="M433.3 326.92L437.94 330.73C441.37 323.49 446.1 316.79 452.62 312.15C454.951 310.709 457.129 309.033 459.12 307.15C461 305.15 462.3 302.38 461.76 299.69C461.06 296.25 457.4 293.97 453.88 293.95C450.36 293.93 447.07 295.71 444.35 297.95C436 304.75 431.19 316.33 433.3 326.92Z" fill="black"/>
<path d="M430.68 324.18C430.574 324.175 430.473 324.13 430.399 324.054C430.325 323.978 430.282 323.876 430.28 323.77C430.47 312.93 432.91 292.9 447.08 280.59C447.161 280.52 447.266 280.484 447.373 280.492C447.48 280.499 447.58 280.549 447.65 280.63C447.72 280.711 447.755 280.816 447.748 280.923C447.74 281.03 447.691 281.13 447.61 281.2C441.61 286.4 431.52 298.84 431.09 323.78C431.085 323.886 431.04 323.987 430.964 324.061C430.888 324.135 430.786 324.178 430.68 324.18Z" fill="white"/>
<path d="M435.54 329.17C435.487 329.165 435.436 329.15 435.39 329.125C435.343 329.1 435.302 329.066 435.268 329.025C435.235 328.984 435.21 328.937 435.195 328.886C435.179 328.836 435.174 328.783 435.18 328.73C436.12 318.98 440.38 305.56 455.25 296.96C455.343 296.907 455.453 296.893 455.556 296.921C455.659 296.949 455.747 297.017 455.8 297.11C455.853 297.203 455.867 297.313 455.839 297.416C455.811 297.519 455.743 297.607 455.65 297.66C441.07 306.08 436.9 319.25 435.97 328.8C435.966 328.853 435.952 328.904 435.928 328.951C435.905 328.998 435.872 329.04 435.832 329.075C435.792 329.109 435.746 329.135 435.695 329.151C435.645 329.168 435.592 329.174 435.54 329.17Z" fill="white"/>
<path d="M49.4899 308.87C46.7799 306.59 43.7699 304.66 41.2099 302.21C39.4699 300.54 37.8599 298.39 37.9799 295.98C38.0875 294.859 38.5085 293.791 39.1947 292.898C39.8808 292.005 40.8044 291.323 41.8599 290.93C43.995 290.173 46.3343 290.23 48.4299 291.09C50.4986 291.961 52.4054 293.174 54.0699 294.68C63.4852 302.742 69.4277 314.126 70.6599 326.46C70.9103 327.853 70.7469 329.289 70.1899 330.59C69.8144 331.245 69.2611 331.781 68.594 332.135C67.9268 332.489 67.1731 332.647 66.4199 332.59C62.5599 332.22 62.0799 327.2 60.9099 324.42C59.3073 320.601 57.1398 317.045 54.4799 313.87C52.9646 312.062 51.295 310.389 49.4899 308.87Z" fill="#50F5A6"/>
<path d="M67.0999 328.65C67.0281 328.648 66.9589 328.622 66.9029 328.577C66.847 328.532 66.8073 328.47 66.7899 328.4C65.3799 322.6 59.5399 302.99 43.5399 294.4C43.5025 294.38 43.4694 294.352 43.4426 294.319C43.4159 294.286 43.3958 294.248 43.3838 294.207C43.3717 294.166 43.3678 294.123 43.3723 294.081C43.3768 294.039 43.3896 293.997 43.4099 293.96C43.4303 293.923 43.4578 293.89 43.4909 293.863C43.524 293.836 43.5621 293.816 43.603 293.804C43.6438 293.792 43.6867 293.788 43.729 293.792C43.7714 293.797 43.8125 293.81 43.8499 293.83C60.0899 302.58 65.9999 322.42 67.4199 328.29C67.4303 328.331 67.4323 328.374 67.4258 328.417C67.4193 328.459 67.4044 328.499 67.382 328.536C67.3597 328.572 67.3303 328.603 67.2956 328.628C67.2609 328.653 67.2215 328.671 67.1799 328.68L67.0999 328.65Z" fill="#EBEBEB"/>
<path d="M70 336.77C69.9641 338.108 69.6576 339.426 69.099 340.642C68.5405 341.859 67.7414 342.95 66.75 343.85C64.8411 345.262 62.5763 346.114 60.21 346.31C57.8111 346.505 55.3975 346.414 53.02 346.04C51.84 345.88 50.51 345.62 50.13 344.28C50.0375 343.925 50.0254 343.555 50.0946 343.195C50.1638 342.835 50.3126 342.495 50.53 342.2C50.7115 341.935 50.9086 341.682 51.12 341.44C51.2155 341.331 51.2758 341.195 51.2931 341.051C51.3104 340.907 51.2838 340.762 51.2168 340.633C51.1498 340.504 51.0455 340.399 50.9176 340.331C50.7897 340.262 50.6441 340.234 50.5 340.25C49.8366 340.336 49.1688 340.383 48.5 340.39C46.9333 340.447 45.3798 340.084 44 339.34C42.9921 338.744 42.1497 337.905 41.55 336.9C41.2501 336.502 41.0661 336.029 41.0185 335.533C40.9708 335.037 41.0613 334.538 41.28 334.09C41.641 333.634 42.1224 333.287 42.67 333.09C43.14 332.89 43.61 332.7 44.09 332.53C44.2246 332.479 44.3392 332.386 44.4168 332.265C44.4944 332.143 44.5308 332 44.5207 331.857C44.5106 331.713 44.4545 331.576 44.3607 331.467C44.2669 331.358 44.1404 331.282 44 331.25L41.75 330.79C41.1138 330.716 40.5058 330.486 39.98 330.12C39.619 329.759 39.3422 329.322 39.1693 328.842C38.9965 328.361 38.9318 327.848 38.98 327.34C38.98 325.99 39.18 324.65 39.23 323.34C39.3433 321.974 39.1237 320.602 38.59 319.34C42.3982 318.136 46.3913 317.625 50.38 317.83C51.5706 317.838 52.7462 318.097 53.83 318.59C54.5285 319.002 55.1101 319.586 55.5196 320.286C55.9291 320.986 56.153 321.779 56.17 322.59C56.1755 322.661 56.2061 322.728 56.2562 322.778C56.3064 322.829 56.3728 322.86 56.4437 322.866C56.5146 322.872 56.5854 322.852 56.6433 322.811C56.7012 322.77 56.7426 322.709 56.76 322.64L57.61 319.93C57.7348 319.54 58.0046 319.212 58.3636 319.015C58.7227 318.818 59.1437 318.766 59.54 318.87C60.8204 319.219 62.0152 319.829 63.05 320.66C63.6175 321.095 64.0922 321.64 64.446 322.262C64.7998 322.883 65.0255 323.57 65.11 324.28C65.3281 326.239 65.3816 328.212 65.27 330.18C65.2606 330.292 65.2868 330.403 65.3448 330.499C65.4029 330.595 65.4898 330.67 65.5931 330.713C65.6964 330.757 65.8108 330.766 65.9198 330.74C66.0289 330.715 66.1269 330.655 66.2 330.57H66.26C66.5614 330.222 66.9827 330.001 67.44 329.95C68.64 329.87 69.17 331 69.44 332C69.819 333.561 70.007 335.163 70 336.77Z" fill="#50F5A6"/>
<path opacity="0.2" d="M70 336.77C69.9641 338.108 69.6576 339.426 69.099 340.642C68.5405 341.859 67.7414 342.95 66.75 343.85C64.8411 345.262 62.5763 346.114 60.21 346.31C57.8111 346.505 55.3975 346.414 53.02 346.04C51.84 345.88 50.51 345.62 50.13 344.28C50.0375 343.925 50.0254 343.555 50.0946 343.195C50.1638 342.835 50.3126 342.495 50.53 342.2C50.7115 341.935 50.9086 341.682 51.12 341.44C51.2155 341.331 51.2758 341.195 51.2931 341.051C51.3104 340.907 51.2838 340.762 51.2168 340.633C51.1498 340.504 51.0455 340.399 50.9176 340.331C50.7897 340.262 50.6441 340.234 50.5 340.25C49.8366 340.336 49.1688 340.383 48.5 340.39C46.9333 340.447 45.3798 340.084 44 339.34C42.9921 338.744 42.1497 337.905 41.55 336.9C41.2501 336.502 41.0661 336.029 41.0185 335.533C40.9708 335.037 41.0613 334.538 41.28 334.09C41.641 333.634 42.1224 333.287 42.67 333.09C43.14 332.89 43.61 332.7 44.09 332.53C44.2246 332.479 44.3392 332.386 44.4168 332.265C44.4944 332.143 44.5308 332 44.5207 331.857C44.5106 331.713 44.4545 331.576 44.3607 331.467C44.2669 331.358 44.1404 331.282 44 331.25L41.75 330.79C41.1138 330.716 40.5058 330.486 39.98 330.12C39.619 329.759 39.3422 329.322 39.1693 328.842C38.9965 328.361 38.9318 327.848 38.98 327.34C38.98 325.99 39.18 324.65 39.23 323.34C39.3433 321.974 39.1237 320.602 38.59 319.34C42.3982 318.136 46.3913 317.625 50.38 317.83C51.5706 317.838 52.7462 318.097 53.83 318.59C54.5285 319.002 55.1101 319.586 55.5196 320.286C55.9291 320.986 56.153 321.779 56.17 322.59C56.1755 322.661 56.2061 322.728 56.2562 322.778C56.3064 322.829 56.3728 322.86 56.4437 322.866C56.5146 322.872 56.5854 322.852 56.6433 322.811C56.7012 322.77 56.7426 322.709 56.76 322.64L57.61 319.93C57.7348 319.54 58.0046 319.212 58.3636 319.015C58.7227 318.818 59.1437 318.766 59.54 318.87C60.8204 319.219 62.0152 319.829 63.05 320.66C63.6175 321.095 64.0922 321.64 64.446 322.262C64.7998 322.883 65.0255 323.57 65.11 324.28C65.3281 326.239 65.3816 328.212 65.27 330.18C65.2606 330.292 65.2868 330.403 65.3448 330.499C65.4029 330.595 65.4898 330.67 65.5931 330.713C65.6964 330.757 65.8108 330.766 65.9198 330.74C66.0289 330.715 66.1269 330.655 66.2 330.57H66.26C66.5614 330.222 66.9827 330.001 67.44 329.95C68.64 329.87 69.17 331 69.44 332C69.819 333.561 70.007 335.163 70 336.77Z" fill="black"/>
<path d="M65 343.86C63.6563 340.883 62.011 338.052 60.09 335.41C60.0675 335.319 60.0101 335.24 59.93 335.19C59.83 335.05 59.72 334.91 59.62 334.76C59.2682 331.063 59.6073 327.333 60.62 323.76C60.6338 323.72 60.6396 323.678 60.637 323.635C60.6344 323.593 60.6235 323.552 60.6049 323.514C60.5863 323.476 60.5604 323.441 60.5287 323.413C60.497 323.385 60.46 323.364 60.42 323.35C60.3799 323.336 60.3376 323.33 60.2953 323.333C60.253 323.336 60.2117 323.347 60.1736 323.365C60.1355 323.384 60.1015 323.41 60.0734 323.441C60.0453 323.473 60.0238 323.51 60.01 323.55C59.0358 326.874 58.6434 330.342 58.85 333.8C54.5357 328.013 48.8431 323.396 42.29 320.37C42.2103 320.336 42.1207 320.335 42.0402 320.367C41.9598 320.399 41.8951 320.461 41.86 320.54C41.8263 320.62 41.8253 320.709 41.8571 320.79C41.8889 320.87 41.951 320.935 42.03 320.97C48.7337 324.079 54.5232 328.863 58.84 334.86C55.061 333.978 51.107 334.214 47.46 335.54C47.3927 335.571 47.3376 335.623 47.3035 335.689C47.2695 335.754 47.2586 335.83 47.2724 335.902C47.2862 335.975 47.3241 336.041 47.3799 336.089C47.4356 336.138 47.5061 336.166 47.58 336.17H47.7C51.4863 334.802 55.6059 334.655 59.48 335.75C61.3853 338.366 63.0172 341.171 64.35 344.12C64.3752 344.179 64.417 344.229 64.4703 344.265C64.5235 344.3 64.586 344.319 64.65 344.32H64.77C64.8182 344.31 64.8635 344.288 64.9024 344.258C64.9414 344.228 64.9731 344.189 64.9952 344.145C65.0172 344.101 65.0291 344.052 65.03 344.003C65.0308 343.954 65.0206 343.905 65 343.86Z" fill="#EBEBEB"/>
<path d="M91.1101 56.34C95.3101 53.91 98.8701 55.1 100 58.87C101.026 56.8183 102.597 55.0885 104.54 53.87C107.84 51.96 110.54 53.49 110.54 57.28V59L115 56.41C117.31 55.08 119.19 56.15 119.2 58.81C119.115 60.2545 118.691 61.6585 117.961 62.908C117.231 64.1574 116.217 65.2168 115 66L77.5001 87.67C75.1901 89 73.3101 87.93 73.3101 85.28C73.3851 83.8326 73.8022 82.4237 74.527 81.1686C75.2519 79.9136 76.2639 78.8483 77.4801 78.06L81.9001 75.5V72.3C81.8701 66.43 86.0001 59.29 91.1101 56.34Z" fill="#E6E6E6"/>
<path d="M127.85 70.52C130.85 68.78 133.42 69.63 134.23 72.34C134.957 70.8496 136.086 69.5923 137.49 68.71C139.85 67.34 141.78 68.44 141.79 71.16V72.41L145 70.57C146.66 69.57 148 70.39 148 72.29C147.94 73.328 147.638 74.3375 147.117 75.2372C146.596 76.1369 145.871 76.9017 145 77.47L118.08 93C116.42 94 115.08 93.19 115.08 91.29C115.134 90.2506 115.434 89.239 115.956 88.3384C116.477 87.4379 117.205 86.6741 118.08 86.11L121.26 84.27V82C121.373 79.7018 122.03 77.4633 123.175 75.4678C124.321 73.4723 125.923 71.7767 127.85 70.52Z" fill="#E6E6E6"/>
<path d="M172.53 325.24C171.275 324.52 170.232 323.482 169.507 322.23C168.782 320.978 168.4 319.557 168.4 318.11V303.43L163.89 306V318.76C163.888 320.451 164.333 322.113 165.18 323.578C166.026 325.042 167.244 326.257 168.71 327.1L177.77 332.33V328.25L172.53 325.24Z" fill="#263238"/>
<path d="M172.53 325.24L177.77 328.24L233.92 296.15L226.83 291.9C225.404 291.044 224.224 289.834 223.406 288.386C222.587 286.938 222.158 285.303 222.16 283.64V272.34L168.38 303.43V318.11C168.382 319.559 168.767 320.981 169.496 322.233C170.225 323.486 171.271 324.523 172.53 325.24Z" fill="#37474F"/>
<path d="M319.6 31.32C319.6 28.75 318.69 26.94 317.24 26.07H317.18L308.57 21.07C308.383 20.9523 308.185 20.8518 307.98 20.77C307.554 20.59 307.101 20.4818 306.64 20.45C305.209 20.4057 303.798 20.7924 302.59 21.56L73.92 153.18C73.62 153.35 73.33 153.54 73.04 153.74L72.76 153.95L72.17 154.41L71.87 154.67L71.33 155.16L71.04 155.45L70.53 155.99L70.26 156.29C70.09 156.49 69.92 156.69 69.76 156.9L69.53 157.19C69.36 157.42 69.19 157.65 69.03 157.89L68.85 158.14C68.67 158.41 68.5 158.68 68.33 158.96C68.2898 159.018 68.253 159.078 68.22 159.14C67.8939 159.687 67.5968 160.251 67.33 160.83L67.19 161.12L66.95 161.71C66.89 161.83 66.84 161.96 66.79 162.09L66.59 162.63L66.45 163.07C66.39 163.24 66.34 163.41 66.29 163.58L66.17 164.07L66.05 164.54C66.05 164.72 65.98 164.9 65.95 165.07C65.92 165.24 65.89 165.36 65.87 165.49C65.85 165.62 65.87 165.91 65.8 166.11C65.73 166.31 65.8 166.33 65.8 166.45C65.8 166.76 65.8 167.07 65.8 167.38L66.21 351.32C66.1865 352.4 66.3875 353.472 66.8 354.47C67.1279 355.278 67.6838 355.973 68.4 356.47C68.5487 356.565 68.7022 356.652 68.86 356.73L77.35 361.68L77.48 361.75H77.54C79.02 362.53 81.03 362.38 83.25 361.1L311.81 229.47C316.35 226.85 320.03 220.47 320.01 215.26L319.6 31.32ZM82.6 172.47C82.7985 170.455 83.604 168.547 84.91 167C83.6204 168.543 82.8258 170.439 82.63 172.44L82.6 172.47ZM305.6 39.27L86.7 165.27L311.49 35.91L305.67 39.27H305.6ZM82.6 173.73L83 345.64V351.84L82.6 173.73Z" fill="#37474F"/>
<path d="M319.6 31.32C319.6 28.75 318.69 26.94 317.24 26.07H317.18L308.57 21.07C307.07 20.07 304.95 20.2 302.57 21.56L73.92 153.18C69.37 155.81 65.7001 162.18 65.7201 167.39L66.13 351.33C66.13 353.79 66.9701 355.55 68.3201 356.46C68.4687 356.555 68.6222 356.642 68.78 356.72L77.27 361.67L77.4001 361.74H77.46C78.9401 362.52 80.95 362.37 83.17 361.09L311.81 229.47C316.35 226.85 320.03 220.47 320.01 215.26L319.6 31.32ZM306.06 212.44C305.906 213.856 305.459 215.224 304.746 216.457C304.033 217.69 303.071 218.761 301.92 219.6L83.0001 345.64V351.84L82.6 172.47C82.7526 171.055 83.1999 169.688 83.9129 168.457C84.6259 167.225 85.589 166.157 86.74 165.32L311.49 35.91L305.67 39.27L306.06 212.44Z" fill="#37474F"/>
<path d="M306.06 212.44L305.67 39.27L86.77 165.27C85.6189 166.107 84.6559 167.175 83.9428 168.407C83.2298 169.638 82.7826 171.005 82.63 172.42L83 345.64L301.91 219.64C303.067 218.797 304.034 217.721 304.749 216.48C305.464 215.24 305.911 213.864 306.06 212.44Z" fill="#50F5A6"/>
<path opacity="0.3" d="M306.06 212.44L305.67 39.27L86.77 165.27C85.6189 166.107 84.6559 167.175 83.9428 168.407C83.2298 169.638 82.7826 171.005 82.63 172.42L83 345.64L301.91 219.64C303.067 218.797 304.034 217.721 304.749 216.48C305.464 215.24 305.911 213.864 306.06 212.44Z" fill="black"/>
<path opacity="0.2" d="M306.06 212.44L305.67 39.27L86.77 165.27C85.6189 166.107 84.6559 167.175 83.9428 168.407C83.2298 169.638 82.7826 171.005 82.63 172.42L83 345.64L301.91 219.64C303.067 218.797 304.034 217.721 304.749 216.48C305.464 215.24 305.911 213.864 306.06 212.44Z" fill="white"/>
<path d="M308.53 21C307.03 20 304.91 20.13 302.53 21.49L73.92 153.18C71.2164 154.887 69.0391 157.31 67.63 160.18L76.43 165.26C77.8329 162.389 80.0074 159.965 82.71 158.26L311.34 26.62C313.6 25.31 315.65 25.18 317.14 26.02L308.53 21Z" fill="#455A64"/>
<path d="M65.7201 167.39L66.1301 351.33C66.1301 353.79 66.9701 355.55 68.3201 356.46C68.4687 356.555 68.6223 356.642 68.7801 356.72L77.2701 361.67C75.8101 360.8 74.9101 358.98 74.9101 356.42L74.5001 172.49C74.573 169.966 75.2339 167.494 76.4301 165.27L67.6301 160.19C66.44 162.408 65.7859 164.874 65.7201 167.39Z" fill="#263238"/>
<path d="M311.49 35.91L305.67 39.27L306.06 212.44C305.906 213.856 305.459 215.224 304.746 216.457C304.033 217.69 303.07 218.761 301.92 219.6L83 345.64V351.84L307.75 222.43C308.901 221.593 309.864 220.525 310.577 219.293C311.29 218.062 311.737 216.695 311.89 215.28L311.49 35.91Z" fill="#263238"/>
<path d="M106.89 204.47L106.85 191.19L97.92 186.04L97.96 199.02V199.32L106.89 204.47Z" fill="#E6E6E6"/>
<path d="M107.32 358.35L106.89 204.47L98 199.32L98.43 352.9C98.3836 353.397 98.467 353.899 98.6721 354.354C98.8771 354.81 99.1968 355.205 99.6 355.5L108.43 360.88C108.051 360.582 107.752 360.195 107.558 359.754C107.364 359.313 107.283 358.83 107.32 358.35Z" fill="#EBEBEB"/>
<path d="M111.44 360.69C111.187 360.84 110.918 360.964 110.64 361.06C110.918 360.964 111.187 360.84 111.44 360.69Z" fill="#455A64"/>
<path d="M106.87 191.16V183.51C106.943 182.089 107.351 180.706 108.062 179.473C108.773 178.241 109.766 177.194 110.96 176.42L342.81 42.55C343.22 42.2529 343.701 42.0688 344.205 42.0161C344.709 41.9635 345.217 42.0441 345.68 42.25L336.84 36.84C336.366 36.5986 335.834 36.4942 335.304 36.5383C334.775 36.5825 334.267 36.7735 333.84 37.09L102 171C100.805 171.775 99.8112 172.823 99.1002 174.058C98.3891 175.292 97.9813 176.677 97.91 178.1V185.75V186.05L106.84 191.2L106.87 191.16Z" fill="#50F5A6"/>
<path opacity="0.3" d="M106.87 191.16V183.51C106.943 182.089 107.351 180.706 108.062 179.473C108.773 178.241 109.766 177.194 110.96 176.42L342.81 42.55C343.22 42.2529 343.701 42.0688 344.205 42.0161C344.709 41.9635 345.217 42.0441 345.68 42.25L336.84 36.84C336.366 36.5986 335.834 36.4942 335.304 36.5383C334.775 36.5825 334.267 36.7735 333.84 37.09L102 171C100.805 171.775 99.8112 172.823 99.1002 174.058C98.3891 175.292 97.9813 176.677 97.91 178.1V185.75V186.05L106.84 191.2L106.87 191.16Z" fill="white"/>
<path opacity="0.2" d="M106.89 204.47L106.85 191.19L97.92 186.04L97.96 199.02V199.32L106.89 204.47Z" fill="#E0E0E0"/>
<path d="M342.81 42.55C345.07 41.24 346.92 42.3 346.92 44.9V52.56L106.87 191.16V183.51C106.943 182.089 107.351 180.706 108.062 179.473C108.773 178.241 109.766 177.194 110.96 176.42L342.81 42.55Z" fill="#50F5A6"/>
<path d="M327.26 55.2099C328.48 54.5099 329.46 55.0699 329.47 56.4699C329.428 57.2291 329.207 57.9677 328.827 58.626C328.447 59.2844 327.917 59.8441 327.28 60.2599C326.07 60.9599 325.08 60.3899 325.08 58.9999C325.118 58.2409 325.336 57.5017 325.715 56.8429C326.093 56.1841 326.623 55.6245 327.26 55.2099Z" fill="white"/>
<path d="M334 51.34C335.21 50.64 336.2 51.21 336.21 52.6C336.165 53.3609 335.942 54.1006 335.558 54.7591C335.174 55.4176 334.64 55.9763 334 56.39C332.78 57.09 331.8 56.53 331.79 55.13C331.835 54.369 332.058 53.6293 332.442 52.9708C332.826 52.3123 333.36 51.7536 334 51.34Z" fill="white"/>
<path d="M340.65 47.4799C341.87 46.7799 342.85 47.3399 342.86 48.7399C342.818 49.4991 342.597 50.2377 342.217 50.8961C341.836 51.5544 341.307 52.1141 340.67 52.5299C339.46 53.2299 338.47 52.6599 338.46 51.2699C338.502 50.5108 338.723 49.7722 339.103 49.1138C339.484 48.4555 340.013 47.8958 340.65 47.4799Z" fill="white"/>
<path d="M155.16 155.7C156.06 155.18 156.9 155.26 157.33 155.93L159.51 159.29C159.94 159.96 160.77 160.06 161.68 159.53L346.92 52.58V65.89L106.89 204.49V191.19L114 187.08C115.01 186.431 115.774 185.463 116.17 184.33L118.32 178.48C118.716 177.352 119.476 176.388 120.48 175.74L155.16 155.7Z" fill="#E6E6E6"/>
<path d="M347 65.87L347.43 219.74C347.357 221.161 346.949 222.544 346.238 223.777C345.527 225.009 344.534 226.056 343.34 226.83L111.44 360.69C109.17 362 107.33 360.95 107.32 358.35L106.89 204.47L347 65.87Z" fill="#F5F5F5"/>
<path d="M337.46 60.76C339.07 59.83 340.38 60.57 340.38 62.42C340.323 63.4225 340.03 64.3974 339.527 65.266C339.023 66.1346 338.322 66.8725 337.48 67.42L134.27 184.78C132.65 185.72 131.34 184.97 131.34 183.12C131.398 182.116 131.691 181.141 132.197 180.272C132.702 179.403 133.406 178.666 134.25 178.12L337.46 60.76Z" fill="white"/>
<path d="M110.73 192.37C110.774 192.339 110.826 192.322 110.88 192.322C110.934 192.322 110.986 192.339 111.03 192.37C111.18 192.47 111.17 192.78 111.03 193.05L109.74 195.14L113.11 193.2C113.34 193.07 113.52 193.2 113.52 193.43C113.512 193.574 113.471 193.713 113.4 193.838C113.329 193.963 113.229 194.07 113.11 194.15L109.75 196.09L111.04 196.7C111.2 196.78 111.22 197.07 111.04 197.35C110.97 197.481 110.866 197.591 110.74 197.67C110.696 197.691 110.648 197.701 110.6 197.701C110.552 197.701 110.504 197.691 110.46 197.67L108.4 196.67L108.31 196.59V196.43V196.22L108.39 196.05L110.39 192.69C110.473 192.555 110.59 192.445 110.73 192.37Z" fill="#E6E6E6"/>
<path d="M118 188.17C118.045 188.146 118.094 188.134 118.145 188.134C118.196 188.134 118.245 188.146 118.29 188.17L120.35 189.17L120.43 189.26V189.43V189.64L120.36 189.8L118.3 193.18C118.231 193.295 118.135 193.391 118.02 193.46C117.974 193.486 117.923 193.5 117.87 193.5C117.817 193.5 117.766 193.486 117.72 193.46C117.57 193.36 117.58 193.06 117.72 192.78L119 190.7L115.64 192.64C115.41 192.77 115.23 192.64 115.23 192.4C115.238 192.26 115.279 192.125 115.348 192.003C115.418 191.882 115.514 191.778 115.63 191.7L119 189.76L117.71 189.15C117.54 189.07 117.54 188.77 117.71 188.49C117.777 188.36 117.877 188.249 118 188.17Z" fill="#E6E6E6"/>
<path d="M124.92 184.17C125.123 184.036 125.35 183.945 125.589 183.902C125.828 183.859 126.073 183.865 126.31 183.92L126.62 183.51C126.68 183.427 126.755 183.356 126.84 183.3C126.907 183.262 126.983 183.245 127.06 183.25C127.2 183.25 127.27 183.42 127.25 183.62L127.08 184.89C127.057 185.043 126.995 185.188 126.9 185.31C126.834 185.388 126.761 185.458 126.68 185.52H126.57L125.57 185.8C125.536 185.811 125.499 185.813 125.464 185.808C125.428 185.803 125.394 185.79 125.365 185.769C125.335 185.749 125.31 185.723 125.292 185.692C125.274 185.661 125.263 185.626 125.26 185.59C125.251 185.488 125.262 185.385 125.292 185.287C125.323 185.189 125.374 185.098 125.44 185.02L125.54 184.88C125.316 184.89 125.099 184.959 124.91 185.08C124.483 185.361 124.127 185.737 123.872 186.18C123.617 186.623 123.469 187.12 123.44 187.63C123.44 188.57 124.11 188.94 124.92 188.48C125.52 188.094 125.977 187.521 126.22 186.85C126.282 186.662 126.41 186.502 126.58 186.4C126.636 186.362 126.702 186.341 126.77 186.34C126.97 186.34 127.05 186.6 126.94 186.89C126.571 187.931 125.868 188.821 124.94 189.42C123.68 190.15 122.64 189.56 122.64 188.1C122.683 187.311 122.912 186.544 123.308 185.861C123.704 185.178 124.257 184.598 124.92 184.17Z" fill="#E6E6E6"/>
<g opacity="0.3">
<path opacity="0.3" d="M110.73 192.37C110.774 192.339 110.826 192.322 110.88 192.322C110.934 192.322 110.986 192.339 111.03 192.37C111.18 192.47 111.17 192.78 111.03 193.05L109.74 195.14L113.11 193.2C113.34 193.07 113.52 193.2 113.52 193.43C113.512 193.574 113.471 193.713 113.4 193.838C113.329 193.963 113.229 194.07 113.11 194.15L109.75 196.09L111.04 196.7C111.2 196.78 111.22 197.07 111.04 197.35C110.97 197.481 110.866 197.591 110.74 197.67C110.696 197.691 110.648 197.701 110.6 197.701C110.552 197.701 110.504 197.691 110.46 197.67L108.4 196.67L108.31 196.59V196.43V196.22L108.39 196.05L110.39 192.69C110.473 192.555 110.59 192.445 110.73 192.37Z" fill="black"/>
</g>
<g opacity="0.3">
<path opacity="0.3" d="M118 188.17C118.045 188.146 118.094 188.134 118.145 188.134C118.196 188.134 118.245 188.146 118.29 188.17L120.35 189.17L120.43 189.26V189.43V189.64L120.36 189.8L118.3 193.18C118.231 193.295 118.135 193.391 118.02 193.46C117.974 193.486 117.923 193.5 117.87 193.5C117.817 193.5 117.766 193.486 117.72 193.46C117.57 193.36 117.58 193.06 117.72 192.78L119 190.7L115.64 192.64C115.41 192.77 115.23 192.64 115.23 192.4C115.238 192.26 115.279 192.125 115.348 192.003C115.418 191.882 115.514 191.778 115.63 191.7L119 189.76L117.71 189.15C117.54 189.07 117.54 188.77 117.71 188.49C117.777 188.36 117.877 188.249 118 188.17Z" fill="black"/>
</g>
<g opacity="0.3">
<path opacity="0.3" d="M124.92 184.17C125.123 184.036 125.35 183.945 125.589 183.902C125.828 183.859 126.073 183.865 126.31 183.92L126.62 183.51C126.68 183.427 126.755 183.356 126.84 183.3C126.907 183.262 126.983 183.245 127.06 183.25C127.2 183.25 127.27 183.42 127.25 183.62L127.08 184.89C127.057 185.043 126.995 185.188 126.9 185.31C126.834 185.388 126.761 185.458 126.68 185.52H126.57L125.57 185.8C125.536 185.811 125.499 185.813 125.464 185.808C125.428 185.803 125.394 185.79 125.365 185.769C125.335 185.749 125.31 185.723 125.292 185.692C125.274 185.661 125.263 185.626 125.26 185.59C125.251 185.488 125.262 185.385 125.292 185.287C125.323 185.189 125.374 185.098 125.44 185.02L125.54 184.88C125.316 184.89 125.099 184.959 124.91 185.08C124.483 185.361 124.127 185.737 123.872 186.18C123.617 186.623 123.469 187.12 123.44 187.63C123.44 188.57 124.11 188.94 124.92 188.48C125.52 188.094 125.977 187.521 126.22 186.85C126.282 186.662 126.41 186.502 126.58 186.4C126.636 186.362 126.702 186.341 126.77 186.34C126.97 186.34 127.05 186.6 126.94 186.89C126.571 187.931 125.868 188.821 124.94 189.42C123.68 190.15 122.64 189.56 122.64 188.1C122.683 187.311 122.912 186.544 123.308 185.861C123.704 185.178 124.257 184.598 124.92 184.17Z" fill="black"/>
</g>
<path d="M165.96 223.49L165.97 226.81L120.39 253.13L120.38 249.81L165.96 223.49Z" fill="#E6E6E6"/>
<path d="M222.02 185.1L222.03 188.42L120.37 247.11L120.36 243.8L222.02 185.1Z" fill="#E6E6E6"/>
<path d="M222 179.09L222.01 182.4L120.35 241.09L120.34 237.78L222 179.09Z" fill="#E6E6E6"/>
<path d="M221.98 173.07L221.99 176.39L120.33 235.08V231.76L221.98 173.07Z" fill="#E6E6E6"/>
<path d="M251.65 190.33L251.87 268.81L176.09 312.56L175.87 234.08L251.65 190.33Z" fill="#50F5A6"/>
<path d="M337.31 83.6L337.44 127.82L234.98 186.97L234.85 142.75L337.31 83.6Z" fill="#50F5A6"/>
<path d="M168.48 238.35L168.7 316.83L120.65 344.57L120.42 266.1L168.48 238.35Z" fill="#455A64"/>
<path d="M336.67 141.24L336.89 219.72L259.27 264.54L259.05 186.06L336.67 141.24Z" fill="#455A64"/>
<path opacity="0.4" d="M168.48 238.35L168.7 316.83L120.65 344.57L120.42 266.1L168.48 238.35Z" fill="white"/>
<path opacity="0.4" d="M336.67 141.24L336.89 219.72L259.27 264.54L259.05 186.06L336.67 141.24Z" fill="white"/>
<path d="M271.68 129.23L271.69 134.47L242.67 151.27L242.65 146.03L271.68 129.23Z" fill="#50F5A6"/>
<path d="M278.89 133.63L278.9 136.82L242.69 157.66L242.68 154.47L278.89 133.63Z" fill="#50F5A6"/>
<g opacity="0.3">
<path opacity="0.3" d="M271.68 129.23L271.69 134.47L242.67 151.27L242.65 146.03L271.68 129.23Z" fill="white"/>
<path opacity="0.3" d="M278.89 133.63L278.9 136.82L242.69 157.66L242.68 154.47L278.89 133.63Z" fill="white"/>
<path opacity="0.3" d="M272.66 156.2L272.67 159.41L242.74 176.87L242.73 173.67L272.66 156.2Z" fill="white"/>
<path opacity="0.3" d="M278.93 146.43L278.94 149.63L242.72 170.47L242.71 167.27L278.93 146.43Z" fill="white"/>
<path opacity="0.3" d="M259.63 151.09L259.64 154.29L242.7 164.07L242.69 160.87L259.63 151.09Z" fill="white"/>
</g>
<path d="M144.53 259.76L144.55 264.55L126.03 275.24L126.02 270.45L144.53 259.76Z" fill="#455A64"/>
<path d="M162.97 256.79L162.98 259.04L126.05 280.37L126.04 278.11L162.97 256.79Z" fill="#455A64"/>
<path d="M162.99 261.3V263.55L126.06 284.88V282.62L162.99 261.3Z" fill="#455A64"/>
<path d="M152.28 278.28L152.3 283.07L126.1 298.2L126.09 293.41L152.28 278.28Z" fill="#455A64"/>
<path d="M144.53 276.47L144.54 278.72L126.07 289.38V287.13L144.53 276.47Z" fill="#455A64"/>
<path d="M136.17 327.29V329.54L126.2 335.3V333.05L136.17 327.29Z" fill="#455A64"/>
<g opacity="0.8">
<path opacity="0.8" d="M144.53 259.76L144.55 264.55L126.03 275.24L126.02 270.45L144.53 259.76Z" fill="white"/>
<path opacity="0.8" d="M162.97 256.79L162.98 259.04L126.05 280.37L126.04 278.11L162.97 256.79Z" fill="white"/>
<path opacity="0.8" d="M162.99 261.3V263.55L126.06 284.88V282.62L162.99 261.3Z" fill="white"/>
<path opacity="0.8" d="M152.28 278.28L152.3 283.07L126.1 298.2L126.09 293.41L152.28 278.28Z" fill="white"/>
<path opacity="0.8" d="M144.53 276.47L144.54 278.72L126.07 289.38V287.13L144.53 276.47Z" fill="white"/>
<path opacity="0.8" d="M136.17 327.29V329.54L126.2 335.3V333.05L136.17 327.29Z" fill="white"/>
<path opacity="0.8" d="M163.12 307.22V309.47L126.19 330.79V328.54L163.12 307.22Z" fill="white"/>
<path opacity="0.8" d="M163.1 302.71L163.11 304.96L126.18 326.29L126.17 324.03L163.1 302.71Z" fill="white"/>
<path opacity="0.8" d="M142.2 307.11L142.21 311.89L126.16 321.15L126.15 316.37L142.2 307.11Z" fill="white"/>
<path opacity="0.8" d="M156.5 292.56V294.81L126.14 312.34L126.13 310.08L156.5 292.56Z" fill="white"/>
<path opacity="0.8" d="M163.05 284.25L163.06 286.51L126.13 307.83L126.12 305.58L163.05 284.25Z" fill="white"/>
<path opacity="0.8" d="M163.04 279.75L163.05 282.01L126.11 303.33V301.07L163.04 279.75Z" fill="white"/>
</g>
<path d="M224.42 229.93L209.37 258.52L205.11 266.62L208.04 257.5L199.75 251.06L190.5 269.42L190.53 280.63L239.03 252.63L239 241.41L224.42 229.93Z" fill="#50F5A6"/>
<path d="M208.52 245.09C209.719 244.307 210.717 243.252 211.433 242.012C212.149 240.772 212.562 239.38 212.64 237.95C212.64 235.33 210.77 234.27 208.49 235.59C207.289 236.368 206.289 237.42 205.573 238.66C204.857 239.899 204.445 241.291 204.37 242.72C204.38 245.35 206.23 246.4 208.52 245.09Z" fill="#50F5A6"/>
<g opacity="0.3">
<path opacity="0.3" d="M224.42 229.93L209.37 258.52L205.11 266.62L208.04 257.5L199.75 251.06L190.5 269.42L190.53 280.63L239.03 252.63L239 241.41L224.42 229.93Z" fill="white"/>
<path opacity="0.3" d="M208.52 245.09C209.719 244.307 210.717 243.252 211.433 242.012C212.149 240.772 212.562 239.38 212.64 237.95C212.64 235.33 210.77 234.27 208.49 235.59C207.289 236.368 206.289 237.42 205.573 238.66C204.857 239.899 204.445 241.291 204.37 242.72C204.38 245.35 206.23 246.4 208.52 245.09Z" fill="white"/>
</g>
<path d="M310.25 181.31L295.2 209.9L290.94 218L293.87 208.88L285.57 202.44L276.33 220.8L276.36 232.01L324.86 204.01L324.83 192.79L310.25 181.31Z" fill="#455A64"/>
<path d="M294.34 196.47C295.542 195.69 296.542 194.636 297.258 193.395C297.974 192.154 298.386 190.761 298.46 189.33C298.46 186.71 296.6 185.65 294.32 186.97C293.116 187.745 292.113 188.796 291.397 190.036C290.68 191.276 290.27 192.67 290.2 194.1C290.2 196.73 292.06 197.78 294.34 196.47Z" fill="#455A64"/>
<g opacity="0.8">
<path opacity="0.8" d="M310.25 181.31L295.2 209.9L290.94 218L293.87 208.88L285.57 202.44L276.33 220.8L276.36 232.01L324.86 204.01L324.83 192.79L310.25 181.31Z" fill="white"/>
<path opacity="0.8" d="M294.34 196.47C295.542 195.69 296.542 194.636 297.258 193.395C297.974 192.154 298.386 190.761 298.46 189.33C298.46 186.71 296.6 185.65 294.32 186.97C293.116 187.745 292.113 188.796 291.397 190.036C290.68 191.276 290.27 192.669 290.2 194.1C290.2 196.73 292.06 197.78 294.34 196.47Z" fill="white"/>
</g>
<path d="M272.66 156.2L272.67 159.41L242.74 176.87L242.73 173.67L272.66 156.2Z" fill="#50F5A6"/>
<path d="M278.93 146.43L278.94 149.63L242.72 170.47L242.71 167.27L278.93 146.43Z" fill="#50F5A6"/>
<path d="M259.63 151.09L259.64 154.29L242.7 164.07L242.69 160.87L259.63 151.09Z" fill="#50F5A6"/>
<path d="M163.12 307.22V309.47L126.19 330.79V328.54L163.12 307.22Z" fill="#455A64"/>
<path d="M163.1 302.71L163.11 304.96L126.18 326.29L126.17 324.03L163.1 302.71Z" fill="#455A64"/>
<path d="M142.2 307.11L142.21 311.89L126.16 321.15L126.15 316.37L142.2 307.11Z" fill="#455A64"/>
<path d="M156.5 292.56V294.81L126.14 312.34L126.13 310.08L156.5 292.56Z" fill="#455A64"/>
<path d="M163.05 284.25L163.06 286.51L126.13 307.83L126.12 305.58L163.05 284.25Z" fill="#455A64"/>
<path d="M163.04 279.75L163.05 282.01L126.11 303.33V301.07L163.04 279.75Z" fill="#455A64"/>
<path d="M331.14 123.65L328.34 125.26L330.02 151.55L332.69 167.24L341.88 168.31L338.12 151.55L333.87 123.8L331.14 123.65Z" fill="#FFCAC9"/>
<path d="M331.85 165.32C338.19 162.95 342.33 166.32 342.33 166.32L343.33 193.21L332.02 186.74L331.85 165.32Z" fill="#50F5A6"/>
<path d="M331.85 165.32C338.19 162.95 342.33 166.32 342.33 166.32L343.33 193.21L332.02 186.74L331.85 165.32Z" fill="#455A64"/>
<path opacity="0.1" d="M331.85 165.32C338.19 162.95 342.33 166.32 342.33 166.32L343.33 193.21L332.02 186.74L331.85 165.32Z" fill="white"/>
<path d="M324.94 97.23L294.99 114.52L295.06 137.41L325.01 120.12L324.94 97.23Z" fill="#50F5A6"/>
<path d="M324.94 97.23L325.01 120.12L327.78 121.73L327.71 95.63L324.94 97.23Z" fill="#50F5A6"/>
<path d="M295.06 137.41L295.07 140.62L327.78 121.73L325.01 120.12L295.06 137.41Z" fill="#50F5A6"/>
<path d="M331.05 89.85L291.63 112.61L291.73 146.41L331.14 123.65L331.05 89.85ZM295.05 140.62V137.41L295 114.52L324.95 97.23L327.72 95.63L327.79 121.73L295.05 140.62Z" fill="#50F5A6"/>
<path d="M331.05 89.85L328.27 88.24L288.86 111L291.63 112.61L331.05 89.85Z" fill="#50F5A6"/>
<path d="M288.86 111L288.95 144.79L291.73 146.41L291.63 112.61L288.86 111Z" fill="#50F5A6"/>
<path d="M294.99 114.52L324.94 97.23L325.01 120.12L295.06 137.41L294.99 114.52Z" fill="#50F5A6"/>
<path d="M315.43 105.92L323.59 112.35L323.61 118.63L296.45 134.32L296.43 128.03L301.61 117.75L306.25 121.36L304.61 126.47L307 121.93L315.43 105.92Z" fill="#50F5A6"/>
<path d="M306.5 109.09C307.78 108.35 308.82 108.94 308.83 110.41C308.787 111.211 308.555 111.991 308.154 112.687C307.752 113.382 307.192 113.972 306.52 114.41C305.24 115.15 304.2 114.55 304.2 113.08C304.24 112.28 304.47 111.502 304.87 110.808C305.269 110.115 305.828 109.526 306.5 109.09Z" fill="#50F5A6"/>
<path opacity="0.5" d="M324.94 97.23L325.01 120.12L327.78 121.73L327.71 95.63L324.94 97.23Z" fill="white"/>
<path opacity="0.8" d="M295.06 137.41L295.07 140.62L327.78 121.73L325.01 120.12L295.06 137.41Z" fill="white"/>
<path opacity="0.7" d="M331.05 89.85L291.63 112.61L291.73 146.41L331.14 123.65L331.05 89.85ZM295.05 140.62V137.41L295 114.52L324.95 97.23L327.72 95.63L327.79 121.73L295.05 140.62Z" fill="white"/>
<path opacity="0.9" d="M331.05 89.85L328.27 88.24L288.86 111L291.63 112.61L331.05 89.85Z" fill="white"/>
<path opacity="0.5" d="M288.86 111L288.95 144.79L291.73 146.41L291.63 112.61L288.86 111Z" fill="white"/>
<path opacity="0.6" d="M324.94 97.23L295 114.52L295.07 137.41L325 120.12L324.94 97.23ZM306.5 109.09C307.78 108.35 308.82 108.94 308.83 110.41C308.787 111.211 308.555 111.991 308.154 112.686C307.752 113.382 307.193 113.972 306.52 114.41C305.24 115.15 304.2 114.55 304.2 113.08C304.24 112.28 304.47 111.502 304.87 110.808C305.269 110.115 305.828 109.526 306.5 109.09ZM296.45 134.32V128.04L301.63 117.75L306.27 121.36L304.63 126.47L307.02 121.93L315.45 105.93L323.61 112.36V118.64L296.45 134.32Z" fill="white"/>
<path opacity="0.3" d="M315.43 105.92L307 121.93L304.61 126.47L306.25 121.36L301.61 117.75L296.43 128.03L296.45 134.32L323.61 118.63L323.59 112.35L315.43 105.92Z" fill="white"/>
<path opacity="0.3" d="M306.52 114.41C307.192 113.972 307.752 113.382 308.154 112.687C308.555 111.991 308.787 111.211 308.83 110.41C308.83 108.94 307.78 108.35 306.5 109.09C305.827 109.527 305.267 110.117 304.867 110.813C304.467 111.508 304.239 112.289 304.2 113.09C304.2 114.55 305.24 115.15 306.52 114.41Z" fill="white"/>
<path d="M304.314 173.584L299.025 167.036L292.756 140.064C292.586 139.342 292.633 138.585 292.893 137.891L293.559 136.147C293.902 135.228 294.053 134.248 294.003 133.268L293.809 129.471C293.79 129.172 293.657 128.891 293.437 128.687C293.217 128.482 292.927 128.37 292.627 128.374C292.356 128.38 292.095 128.48 291.891 128.657C291.686 128.835 291.55 129.079 291.506 129.346L290.98 132.657L289.612 134.284L288.264 129.8L288.151 124.041L285.393 128.216C284.653 129.337 284.375 130.7 284.617 132.021L285.948 139.207L289.457 168.814C289.816 171.831 291.047 174.677 292.998 177.006L296.286 180.943L304.314 173.584Z" fill="#FFCAC9"/>
<path d="M320.1 331.58C319.745 332.404 319.16 333.108 318.415 333.608C317.67 334.108 316.797 334.383 315.9 334.4C314.111 334.402 312.33 334.173 310.6 333.72C306.67 333.01 302.87 333.72 298.94 333.62C297.652 333.63 296.367 333.492 295.11 333.21C293.843 332.915 292.698 332.238 291.83 331.27C291.342 330.699 291.015 330.009 290.88 329.27C290.798 329.84 290.841 330.422 291.005 330.974C291.169 331.526 291.45 332.037 291.83 332.47C292.698 333.438 293.843 334.115 295.11 334.41C296.367 334.692 297.652 334.83 298.94 334.82C302.87 334.92 306.67 334.21 310.6 334.92C312.33 335.373 314.111 335.602 315.9 335.6C316.797 335.583 317.67 335.308 318.415 334.808C319.16 334.308 319.745 333.604 320.1 332.78C320.263 332.191 320.307 331.576 320.23 330.97C320.203 331.177 320.16 331.381 320.1 331.58Z" fill="#455A64"/>
<path d="M320 328.32L319.28 324.74C319.191 324.101 318.984 323.484 318.67 322.92C318.512 322.638 318.281 322.405 318.001 322.245C317.721 322.084 317.402 322.003 317.08 322.01C314.92 321.72 311.89 320.94 310.08 322.17C307.248 324.108 303.87 325.089 300.44 324.97C298.668 324.761 296.883 324.69 295.1 324.76C293.33 324.97 291.49 325.96 290.96 327.66C290.815 328.167 290.785 328.7 290.87 329.22C291.005 329.959 291.332 330.649 291.82 331.22C292.688 332.188 293.833 332.865 295.1 333.16C296.357 333.442 297.642 333.58 298.93 333.57C302.86 333.66 306.66 332.96 310.59 333.67C312.32 334.123 314.101 334.352 315.89 334.35C316.787 334.333 317.66 334.058 318.405 333.558C319.15 333.058 319.735 332.354 320.09 331.53C320.152 331.314 320.196 331.093 320.22 330.87C320.281 330.014 320.207 329.153 320 328.32Z" fill="#455A64"/>
<path d="M309.57 318.42L309.41 323.08C309.393 323.559 309.563 324.026 309.884 324.383C310.205 324.739 310.651 324.957 311.13 324.99C312.691 325.115 314.259 325.115 315.82 324.99C316.453 324.927 317.043 324.641 317.484 324.183C317.926 323.725 318.19 323.125 318.23 322.49L318.41 319.05L309.57 318.42Z" fill="#FFCAC9"/>
<path d="M340 315.94C339.982 316.629 339.767 317.299 339.38 317.87C338.823 318.539 338.04 318.98 337.18 319.11C336.15 319.286 335.092 319.168 334.126 318.77C333.161 318.372 332.327 317.71 331.72 316.86C331.13 316.01 330.8 315.01 330.24 314.14C329.402 312.969 328.367 311.954 327.18 311.14C325.993 310.319 324.952 309.305 324.1 308.14C323.696 307.577 323.431 306.926 323.329 306.241C323.226 305.556 323.288 304.856 323.51 304.2C323.396 304.356 323.298 304.523 323.22 304.7C322.96 305.39 322.874 306.133 322.97 306.864C323.066 307.595 323.34 308.291 323.77 308.89C324.643 310.075 325.708 311.106 326.92 311.94C328.13 312.774 329.186 313.813 330.04 315.01C330.61 315.9 330.95 316.93 331.55 317.81C332.164 318.684 333.013 319.365 333.999 319.776C334.985 320.186 336.067 320.309 337.12 320.13C337.999 319.995 338.797 319.539 339.36 318.85C339.865 318.052 340.097 317.111 340.02 316.17C340 316.14 340 316 340 315.94Z" fill="#455A64"/>
<path d="M338.59 310.09C337.17 307.61 334.25 305.8 331.99 304.09C330.757 303.016 329.239 302.321 327.62 302.09C326.813 301.996 325.997 302.143 325.274 302.513C324.551 302.884 323.955 303.46 323.56 304.17C323.56 304.17 323.56 304.26 323.51 304.3C323.288 304.956 323.226 305.656 323.329 306.341C323.431 307.027 323.696 307.677 324.1 308.24C324.952 309.405 325.993 310.419 327.18 311.24C328.367 312.054 329.403 313.069 330.24 314.24C330.8 315.11 331.13 316.11 331.72 316.96C332.327 317.81 333.161 318.472 334.127 318.87C335.092 319.268 336.15 319.386 337.18 319.21C338.04 319.08 338.823 318.639 339.38 317.97C339.767 317.399 339.982 316.729 340 316.04C340 315.82 340 315.59 340 315.37C339.977 313.52 339.493 311.705 338.59 310.09Z" fill="#455A64"/>
<path d="M332.44 307.94V312.18C333.481 312.667 334.624 312.894 335.772 312.842C336.92 312.79 338.038 312.459 339.03 311.88L339.43 308.07L332.44 307.94Z" fill="#FFCAC9"/>
<path d="M340.54 231.08C341.81 234.9 340.25 253 339.54 270.37C342.29 276.94 341.54 295.58 339.96 308.81C339.96 308.81 337.21 310.51 332.23 308.81L326 272.28L325.13 251.63C325.13 251.63 323.56 269.95 321.76 281.7C323.45 290.7 323.03 292.4 318.85 320.09C317.396 320.819 315.792 321.199 314.165 321.199C312.538 321.199 310.934 320.819 309.48 320.09C307.11 281.19 307.98 245.74 308.43 232.99L340.54 231.08Z" fill="#50F5A6"/>
<path opacity="0.5" d="M340.54 231.08C341.81 234.9 340.25 253 339.54 270.37C342.29 276.94 341.54 295.58 339.96 308.81C339.96 308.81 337.21 310.51 332.23 308.81L326 272.28L325.13 251.63C325.13 251.63 323.56 269.95 321.76 281.7C323.45 290.7 323.03 292.4 318.85 320.09C317.396 320.819 315.792 321.199 314.165 321.199C312.538 321.199 310.934 320.819 309.48 320.09C307.11 281.19 307.98 245.74 308.43 232.99L340.54 231.08Z" fill="black"/>
<path opacity="0.1" d="M340.54 231.08C341.81 234.9 340.25 253 339.54 270.37C342.29 276.94 341.54 295.58 339.96 308.81C339.96 308.81 337.21 310.51 332.23 308.81L326 272.28L325.13 251.63C325.13 251.63 323.56 269.95 321.76 281.7C323.45 290.7 323.03 292.4 318.85 320.09C317.396 320.819 315.792 321.199 314.165 321.199C312.538 321.199 310.934 320.819 309.48 320.09C307.11 281.19 307.98 245.74 308.43 232.99L340.54 231.08Z" fill="white"/>
<path opacity="0.3" d="M325.62 264.2L324.91 247.36C329.26 247.36 333.3 244.11 336.37 241.02C334.312 244.367 331.29 247.013 327.7 248.61L325.62 264.2Z" fill="black"/>
<path d="M307.72 234C327.14 242.14 339.72 234.79 341.44 231C340.54 217.58 343.72 201.87 343.44 195.2C343.16 188.53 342.41 181 332.06 182.5L321.06 183.57L315.48 184.93L308.79 198.83L307.72 234Z" fill="#455A64"/>
<path d="M332.06 177.23C332.844 177.278 333.617 177.016 334.21 176.5C334.434 176.254 334.598 175.957 334.686 175.636C334.775 175.315 334.786 174.977 334.72 174.65C335.047 174.589 335.354 174.447 335.612 174.238C335.87 174.028 336.072 173.757 336.2 173.45C336.299 173.113 336.32 172.757 336.261 172.411C336.202 172.064 336.065 171.736 335.86 171.45C336.331 171.327 336.77 171.105 337.148 170.798C337.526 170.491 337.834 170.106 338.05 169.67C338.269 169.22 338.39 168.73 338.406 168.23C338.421 167.73 338.331 167.232 338.14 166.77C338.658 166.633 339.133 166.365 339.518 165.992C339.903 165.619 340.186 165.154 340.34 164.64C340.503 164.106 340.532 163.54 340.424 162.992C340.316 162.444 340.074 161.932 339.72 161.5C340.165 160.903 340.444 160.2 340.53 159.461C340.616 158.722 340.506 157.973 340.21 157.29C339.867 156.606 339.354 156.021 338.72 155.592C338.086 155.163 337.353 154.904 336.59 154.84C336.696 154.123 336.622 153.391 336.374 152.71C336.126 152.029 335.712 151.421 335.17 150.94C334.623 150.483 333.97 150.172 333.27 150.035C332.571 149.899 331.848 149.942 331.17 150.16C330.92 149.563 330.523 149.039 330.016 148.636C329.51 148.233 328.91 147.964 328.272 147.855C327.634 147.745 326.978 147.798 326.366 148.009C325.754 148.219 325.205 148.581 324.77 149.06C324.454 148.693 324.052 148.41 323.6 148.235C323.148 148.061 322.661 148 322.18 148.06C321.692 148.105 321.223 148.269 320.813 148.538C320.404 148.806 320.066 149.171 319.83 149.6C319.216 149.322 318.542 149.205 317.871 149.263C317.199 149.32 316.554 149.549 315.997 149.928C315.44 150.306 314.989 150.822 314.688 151.424C314.388 152.027 314.247 152.697 314.28 153.37C313.788 153.514 313.357 153.816 313.055 154.23C312.752 154.645 312.596 155.147 312.61 155.66C312.654 156.184 312.864 156.681 313.209 157.079C313.554 157.476 314.017 157.753 314.53 157.87C315.501 163.138 317.24 168.236 319.69 173C320.78 175.12 322.12 177.27 324.23 178.37C326.52 179.58 330.11 178.9 332.06 177.23Z" fill="#37474F"/>
<path d="M313.75 164.8L311.47 168.76L313.96 169.69L313.75 164.8Z" fill="#FFA8A7"/>
<path d="M314.53 157.91C313.016 163.394 312.793 169.155 313.88 174.74C313.984 175.697 314.328 176.612 314.88 177.4C315.635 178.206 316.676 178.683 317.78 178.73C318.869 178.771 319.958 178.667 321.02 178.42V183.57C324.93 184.49 328.96 184.86 332.02 182.5V177.23C329.813 177.933 327.466 178.077 325.19 177.65C322.49 176.19 321.95 171.26 322.33 169.96C322.568 170.28 322.896 170.521 323.272 170.652C323.648 170.784 324.054 170.801 324.44 170.7C324.811 170.598 325.159 170.423 325.461 170.184C325.764 169.945 326.015 169.648 326.2 169.31C326.556 168.625 326.777 167.878 326.85 167.11C327.042 166.185 326.9 165.221 326.45 164.39C326.099 163.935 325.62 163.597 325.074 163.419C324.528 163.24 323.941 163.23 323.39 163.39C322.28 163.744 321.353 164.519 320.81 165.55C320.637 165.873 320.487 166.207 320.36 166.55C320.312 166.68 320.222 166.79 320.104 166.862C319.986 166.933 319.847 166.963 319.71 166.946C319.573 166.928 319.446 166.865 319.349 166.766C319.253 166.667 319.193 166.538 319.18 166.4C319.035 164.885 319.319 163.361 320 162C319.554 161.954 319.124 161.809 318.742 161.576C318.359 161.342 318.034 161.026 317.79 160.65C317.533 160.297 317.361 159.89 317.288 159.459C317.215 159.029 317.243 158.588 317.37 158.17C316.415 158.246 315.455 158.158 314.53 157.91Z" fill="#FFCAC9"/>
<path d="M315.48 184.93L303.61 171.36C296.79 173.03 292.94 180.11 292.94 180.11L308.79 198.83C320.41 203.4 315.48 184.93 315.48 184.93Z" fill="#50F5A6"/>
<path d="M330.15 124.22L329.28 120.83L328.37 116.74C328.302 116.487 328.336 116.217 328.465 115.989C328.594 115.761 328.808 115.592 329.06 115.52C329.19 115.47 329.328 115.448 329.467 115.455C329.605 115.462 329.741 115.497 329.865 115.559C329.989 115.621 330.099 115.709 330.188 115.815C330.277 115.922 330.342 116.046 330.38 116.18L331.14 118.4V112.13L333.76 116.81C334.148 117.515 334.322 118.318 334.26 119.12L333.87 123.8L330.15 124.22Z" fill="#FFCAC9"/>
<path d="M315.48 184.93L303.61 171.36C296.79 173.03 292.94 180.11 292.94 180.11L308.79 198.83C320.41 203.4 315.48 184.93 315.48 184.93Z" fill="#455A64"/>
<path opacity="0.1" d="M315.932 184.639L303.799 171.304C297.013 173.107 293.302 180.261 293.302 180.261L309.515 198.667C321.222 203.009 315.932 184.639 315.932 184.639Z" fill="white"/>
<path d="M322.93 329.32L324.81 333.27L320.32 338.21L320.65 349.99L335.11 337.44C335.766 336.881 336.219 336.122 336.399 335.279C336.58 334.437 336.478 333.559 336.11 332.78L331.7 323.61L322.93 329.32Z" fill="#FFCAC9"/>
<path d="M327.39 336.8C326.257 335.85 325.371 334.638 324.81 333.27L323.69 334.5C324.572 335.724 325.902 336.55 327.39 336.8Z" fill="#E9B3B2"/>
<path d="M322.57 330.27C328.32 329.77 332.23 323.82 332.23 323.82C327.09 313.3 322.61 301.6 313.64 304.39L322.57 330.27Z" fill="#50F5A6"/>
<path opacity="0.4" d="M322.57 330.27C328.32 329.77 332.23 323.82 332.23 323.82C327.09 313.3 322.61 301.6 313.64 304.39L322.57 330.27Z" fill="white"/>
<path d="M300.16 454C299.62 455.71 297.75 456.68 295.96 456.83C294.168 456.832 292.383 456.604 290.65 456.15C286.7 455.43 282.9 456.15 278.96 456.05C277.668 456.061 276.379 455.92 275.12 455.63C273.851 455.335 272.702 454.658 271.83 453.69C271.334 453.101 271.006 452.389 270.88 451.63C270.801 452.203 270.846 452.787 271.009 453.342C271.173 453.897 271.453 454.411 271.83 454.85C272.7 455.819 273.85 456.493 275.12 456.78C276.379 457.07 277.668 457.211 278.96 457.2C282.9 457.29 286.7 456.59 290.65 457.3C292.395 457.764 294.194 457.999 296 458C296.899 457.985 297.774 457.709 298.519 457.207C299.264 456.705 299.848 455.997 300.2 455.17C300.372 454.583 300.419 453.966 300.34 453.36C300.298 453.578 300.238 453.792 300.16 454Z" fill="#263238"/>
<path d="M300.06 450.71C299.82 449.51 299.57 448.32 299.33 447.12C299.241 446.481 299.034 445.864 298.72 445.3C298.562 445.018 298.331 444.785 298.051 444.625C297.771 444.464 297.453 444.383 297.13 444.39C294.97 444.1 291.93 443.32 290.13 444.55C287.294 446.497 283.908 447.482 280.47 447.36C278.695 447.147 276.906 447.074 275.12 447.14C273.35 447.36 271.5 448.35 270.98 450.06C270.827 450.562 270.793 451.093 270.88 451.61C271.006 452.369 271.334 453.081 271.83 453.67C272.702 454.638 273.851 455.315 275.12 455.61C276.393 455.893 277.696 456.024 279 456C282.94 456.09 286.74 455.38 290.69 456.1C292.423 456.554 294.208 456.782 296 456.78C297.79 456.63 299.66 455.66 300.2 453.95C300.266 453.734 300.313 453.514 300.34 453.29C300.378 452.421 300.284 451.551 300.06 450.71Z" fill="#50F5A6"/>
<path d="M289.61 440.8L289.45 445.47C289.436 445.948 289.607 446.414 289.927 446.77C290.247 447.126 290.693 447.344 291.17 447.38C292.739 447.489 294.314 447.472 295.88 447.33C296.515 447.271 297.107 446.986 297.549 446.527C297.992 446.069 298.254 445.466 298.29 444.83L298.47 441.38L289.61 440.8Z" fill="#FFA8A7"/>
<path d="M320.11 438.31C320.089 439 319.87 439.67 319.48 440.24C318.926 440.913 318.142 441.355 317.28 441.48C316.249 441.66 315.188 441.544 314.22 441.146C313.251 440.748 312.416 440.083 311.81 439.23C311.22 438.38 310.88 437.38 310.33 436.51C309.491 435.337 308.452 434.322 307.26 433.51C306.07 432.689 305.026 431.675 304.17 430.51C303.766 429.945 303.501 429.293 303.399 428.606C303.296 427.919 303.358 427.218 303.58 426.56C303.468 426.717 303.371 426.885 303.29 427.06C303.027 427.753 302.94 428.5 303.036 429.234C303.132 429.969 303.408 430.668 303.84 431.27C304.719 432.453 305.787 433.483 307 434.32C308.214 435.157 309.273 436.2 310.13 437.4C310.7 438.29 311.04 439.32 311.64 440.2C312.254 441.076 313.105 441.76 314.093 442.17C315.081 442.581 316.166 442.702 317.22 442.52C318.104 442.391 318.907 441.934 319.47 441.24C319.972 440.441 320.2 439.5 320.12 438.56C320.12 438.51 320.11 438.41 320.11 438.31Z" fill="#263238"/>
<path d="M318.69 432.45C317.27 429.96 314.34 428.15 312.08 426.39C310.846 425.311 309.324 424.616 307.7 424.39C306.892 424.292 306.072 424.438 305.347 424.808C304.622 425.179 304.024 425.758 303.63 426.47C303.63 426.47 303.63 426.56 303.58 426.6C303.358 427.258 303.296 427.959 303.399 428.646C303.501 429.333 303.766 429.985 304.17 430.55C305.026 431.715 306.07 432.729 307.26 433.55C308.452 434.362 309.491 435.377 310.33 436.55C310.88 437.42 311.22 438.42 311.81 439.27C312.416 440.123 313.251 440.788 314.22 441.186C315.188 441.584 316.249 441.7 317.28 441.52C318.142 441.395 318.926 440.953 319.48 440.28C319.87 439.71 320.089 439.04 320.11 438.35C320.11 438.13 320.11 437.9 320.11 437.68C320.086 435.845 319.597 434.045 318.69 432.45Z" fill="#50F5A6"/>
<path d="M312.53 430.29V434.54C313.574 435.027 314.721 435.254 315.872 435.202C317.023 435.15 318.144 434.82 319.14 434.24L319.54 430.42L312.53 430.29Z" fill="#FFA8A7"/>
<path d="M320.65 353.27C321.92 357.09 321.53 377.12 320.79 394.52C322 402.99 321.96 421.35 320.37 434.61C318.709 435.354 316.916 435.756 315.096 435.792C313.277 435.828 311.469 435.497 309.78 434.82L306 394.55L305.13 373.86C305.13 373.86 303.56 392.22 301.76 404C302.41 412.65 300.98 429.18 299.71 446.81C299.71 446.81 292.9 450.81 286.14 446.43C283.76 407.43 287.61 367.97 288.4 355.18L320.65 353.27Z" fill="#455A64"/>
<path opacity="0.3" d="M305.69 386.46L305 369.58C309.37 369.58 313.41 366.32 316.49 363.23C314.426 366.584 311.397 369.236 307.8 370.84L305.69 386.46Z" fill="black"/>
<path d="M287.76 323.16V356.22C307.22 364.37 319.83 357 321.55 353.17C320.65 339.72 323.83 323.98 323.55 317.29C323.27 310.6 322.48 303.07 312.11 304.58L301.11 305.66L295.54 307L287.76 323.16Z" fill="#50F5A6"/>
<path opacity="0.3" d="M287.76 323.16V356.22C307.22 364.37 319.83 357 321.55 353.17C320.65 339.72 323.83 323.98 323.55 317.29C323.27 310.6 322.48 303.07 312.11 304.58L301.11 305.66L295.54 307L287.76 323.16Z" fill="white"/>
<path d="M277.43 321.37L273.72 325.23L264.81 313.43C266.013 310.295 266.747 306.999 266.99 303.65C266.997 303.507 266.975 303.365 266.925 303.231C266.875 303.097 266.799 302.975 266.701 302.871C266.603 302.768 266.485 302.685 266.354 302.628C266.224 302.571 266.083 302.541 265.94 302.54C265.739 302.534 265.54 302.589 265.371 302.698C265.201 302.807 265.068 302.964 264.99 303.15L263.34 306.61C263.109 306.529 262.899 306.397 262.726 306.224C262.553 306.051 262.421 305.841 262.34 305.61L262.02 304.69C261.801 304.077 261.689 303.431 261.69 302.78V300.5C261.687 300.182 261.602 299.871 261.443 299.595C261.284 299.32 261.057 299.091 260.783 298.93C260.509 298.769 260.198 298.681 259.88 298.676C259.563 298.671 259.249 298.748 258.97 298.9C257.935 299.458 257.02 300.216 256.28 301.13C255.564 302 255.175 303.093 255.18 304.22V307.3C255.18 308.091 255.319 308.876 255.59 309.62L257.2 314.05C257.344 314.454 257.529 314.842 257.75 315.21L269.24 334.46C269.652 335.152 270.212 335.744 270.88 336.194C271.547 336.644 272.306 336.942 273.101 337.065C273.897 337.188 274.71 337.134 275.483 336.907C276.255 336.679 276.968 336.284 277.57 335.75L284.89 329.25L277.43 321.37Z" fill="#FFCAC9"/>
<path d="M271.44 330C271.808 328.257 272.59 326.628 273.72 325.25L272.72 323.9C271.92 325.3 270.83 328.08 271.44 330Z" fill="#6E3636"/>
<path d="M271.44 330C271.808 328.257 272.59 326.628 273.72 325.25L272.72 323.9C271.92 325.3 270.83 328.08 271.44 330Z" fill="#E9B3B2"/>
<path d="M276.51 321.39L287 311.11C289.325 308.819 292.348 307.369 295.59 306.99H295.77C300.2 316.68 294.35 321.41 294.35 321.41L284.63 330.34C280.95 328.411 278.073 325.24 276.51 321.39Z" fill="#50F5A6"/>
<path opacity="0.4" d="M276.51 321.39L287 311.11C289.325 308.819 292.348 307.369 295.59 306.99H295.77C300.2 316.68 294.35 321.41 294.35 321.41L284.63 330.34C280.95 328.411 278.073 325.24 276.51 321.39Z" fill="white"/>
<path d="M295.84 283C295.635 282.767 295.503 282.478 295.462 282.17C295.421 281.862 295.473 281.549 295.61 281.27C295.338 281.341 295.054 281.353 294.776 281.307C294.499 281.26 294.234 281.156 294 281C293.763 280.855 293.57 280.648 293.443 280.401C293.316 280.154 293.26 279.877 293.28 279.6C293.311 279.323 293.431 279.064 293.622 278.862C293.814 278.66 294.066 278.526 294.34 278.48C293.827 278.369 293.378 278.06 293.09 277.62C292.77 277.204 292.627 276.68 292.69 276.16C292.782 275.684 293.002 275.241 293.326 274.88C293.65 274.519 294.066 274.253 294.53 274.11C295.466 273.84 296.451 273.789 297.41 273.96C297.258 273.435 297.296 272.874 297.517 272.374C297.739 271.875 298.129 271.47 298.62 271.23C299.062 271.079 299.535 271.04 299.995 271.117C300.456 271.194 300.891 271.384 301.26 271.67C301.991 272.244 302.619 272.937 303.12 273.72C304.17 273.153 305.332 272.821 306.523 272.748C307.715 272.674 308.908 272.861 310.02 273.295C311.132 273.729 312.137 274.399 312.964 275.26C313.791 276.121 314.421 277.151 314.81 278.28C315.683 278.569 316.472 279.068 317.108 279.732C317.744 280.396 318.208 281.205 318.46 282.09C318.908 283.863 318.8 285.731 318.15 287.44C317.502 289.133 316.663 290.747 315.65 292.25L314.27 294.44C313.69 295.35 312.22 297.62 311.64 298.54C310.345 299.14 308.92 299.407 307.495 299.318C306.071 299.229 304.691 298.786 303.48 298.03C301.111 296.455 299.285 294.189 298.25 291.54C297.164 288.781 296.357 285.92 295.84 283Z" fill="#263238"/>
<path d="M308.09 299.48C306.431 299.478 304.804 299.018 303.39 298.15C300.995 296.558 299.148 294.268 298.1 291.59C297.024 288.823 296.226 285.955 295.72 283.03C295.523 282.817 295.389 282.554 295.333 282.27C295.276 281.986 295.3 281.692 295.4 281.42C294.88 281.504 294.348 281.397 293.9 281.12C293.643 280.96 293.434 280.733 293.297 280.464C293.159 280.194 293.098 279.892 293.12 279.59C293.145 279.359 293.226 279.138 293.357 278.946C293.488 278.754 293.664 278.597 293.87 278.49C293.505 278.303 293.19 278.033 292.95 277.7C292.614 277.253 292.464 276.695 292.53 276.14C292.625 275.64 292.855 275.175 293.195 274.796C293.535 274.417 293.973 274.138 294.46 273.99C295.349 273.729 296.284 273.664 297.2 273.8C297.095 273.267 297.169 272.713 297.411 272.227C297.654 271.74 298.051 271.347 298.54 271.11C299.002 270.955 299.495 270.915 299.976 270.994C300.457 271.072 300.911 271.266 301.3 271.56C302.021 272.119 302.643 272.795 303.14 273.56C304.197 273.016 305.356 272.699 306.543 272.63C307.729 272.561 308.917 272.742 310.03 273.16C311.139 273.615 312.141 274.294 312.976 275.155C313.81 276.015 314.459 277.038 314.88 278.16C315.762 278.457 316.558 278.965 317.199 279.639C317.841 280.313 318.308 281.134 318.56 282.03C319.008 283.83 318.896 285.725 318.24 287.46C317.588 289.163 316.746 290.786 315.73 292.3C315.28 293.03 314.81 293.76 314.35 294.49L313 296.59C312.5 297.38 312 298.16 311.71 298.59C310.59 299.168 309.35 299.472 308.09 299.48ZM295.86 281L295.73 281.29C295.602 281.542 295.553 281.826 295.589 282.106C295.625 282.386 295.743 282.648 295.93 282.86C296.433 285.785 297.227 288.653 298.3 291.42C299.335 294.038 301.142 296.281 303.48 297.85C304.665 298.596 306.017 299.034 307.414 299.125C308.811 299.215 310.209 298.956 311.48 298.37C311.76 297.91 312.26 297.15 312.75 296.37C313.24 295.59 313.75 294.75 314.09 294.29C314.55 293.56 315.01 292.84 315.47 292.1C316.479 290.603 317.315 288.996 317.96 287.31C318.592 285.628 318.7 283.794 318.27 282.05C318.022 281.187 317.567 280.397 316.945 279.748C316.323 279.1 315.552 278.613 314.7 278.33H314.64V278.27C314.24 277.165 313.612 276.155 312.797 275.308C311.982 274.46 310.999 273.793 309.91 273.35C308.814 272.937 307.643 272.762 306.474 272.836C305.305 272.91 304.165 273.232 303.13 273.78L303.03 273.83L302.97 273.74C302.474 272.974 301.852 272.298 301.13 271.74C300.777 271.471 300.364 271.293 299.927 271.22C299.49 271.146 299.041 271.181 298.62 271.32C298.162 271.548 297.798 271.928 297.59 272.395C297.382 272.862 297.343 273.387 297.48 273.88L297.55 274.08H297.34C296.404 273.916 295.443 273.967 294.53 274.23C294.09 274.364 293.695 274.614 293.385 274.954C293.076 275.293 292.863 275.71 292.77 276.16C292.728 276.647 292.86 277.132 293.142 277.531C293.424 277.93 293.837 278.217 294.31 278.34L295.31 278.49L294.31 278.6C294.065 278.642 293.84 278.761 293.668 278.942C293.497 279.122 293.389 279.353 293.36 279.6C293.34 279.854 293.392 280.108 293.508 280.334C293.625 280.56 293.802 280.749 294.02 280.88C294.244 281.025 294.497 281.12 294.761 281.158C295.025 281.196 295.294 281.176 295.55 281.1L295.86 281Z" fill="#272525"/>
<path d="M294.58 288.62L292.84 291.62L294.56 292.25C294.503 291.04 294.509 289.829 294.58 288.62Z" fill="#FFCAC9"/>
<path d="M295.84 283C295.201 284.831 294.778 286.731 294.58 288.66C294.515 289.879 294.515 291.101 294.58 292.32C294.655 294.039 294.855 295.75 295.18 297.44C295.288 298.368 295.632 299.253 296.18 300.01C296.9 300.788 297.9 301.249 298.96 301.29C300.012 301.325 301.064 301.224 302.09 300.99V305.99C305.86 306.88 308.98 307.27 311.93 304.99L311.62 298.61C309.806 298.86 307.958 298.568 306.31 297.77C303.71 296.36 302.98 294.12 303.31 292.87C303.538 293.17 303.849 293.397 304.204 293.523C304.56 293.649 304.944 293.669 305.31 293.58C305.669 293.485 306.004 293.317 306.295 293.086C306.585 292.856 306.826 292.567 307 292.24C307.349 291.586 307.563 290.868 307.63 290.13C307.817 289.239 307.682 288.311 307.25 287.51C306.918 287.064 306.458 286.729 305.931 286.55C305.404 286.371 304.835 286.357 304.3 286.51C303.77 286.674 303.279 286.942 302.853 287.297C302.427 287.652 302.076 288.088 301.82 288.58C301.647 288.901 301.5 289.235 301.38 289.58C301.334 289.705 301.247 289.81 301.134 289.879C301.02 289.949 300.887 289.978 300.755 289.961C300.623 289.945 300.5 289.885 300.407 289.79C300.313 289.696 300.254 289.572 300.24 289.44C300.105 288.011 300.364 286.572 300.99 285.28C300.557 285.491 300.082 285.604 299.6 285.61C299.345 285.609 299.094 285.553 298.862 285.446C298.631 285.339 298.426 285.184 298.26 284.99C298.104 284.79 298.015 284.546 298.006 284.293C297.997 284.04 298.068 283.79 298.21 283.58C297.8 283.712 297.361 283.727 296.943 283.625C296.525 283.523 296.143 283.306 295.84 283Z" fill="#FFCAC9"/>
<path d="M205.93 438C209.095 441.158 213.049 443.41 217.38 444.52C218.62 444.84 220.08 445.22 220.54 446.42C220.676 447.01 220.625 447.627 220.394 448.186C220.162 448.745 219.763 449.219 219.25 449.54C217.635 450.632 215.667 451.074 213.74 450.78C211.836 450.482 209.973 449.962 208.19 449.23C206.406 448.494 204.528 448.012 202.61 447.8C201.698 447.797 200.786 447.743 199.88 447.64C199.428 447.587 198.991 447.441 198.599 447.21C198.206 446.979 197.866 446.669 197.6 446.3C197.6 440.75 199.04 438.76 199.04 438.76L205.93 438Z" fill="#455A64"/>
<path d="M206.06 435.55V439.31C203.53 442.07 199.52 440.23 199.06 438.76L198.93 435.55H206.06Z" fill="#FFA8A7"/>
<path d="M187.17 422.07C191.66 418.01 194.17 418.17 195.24 418.98C196.31 419.79 198.24 422.4 193.24 426.79C188.24 431.18 188.63 433.89 185.16 433.89C181.69 433.89 182.35 430.42 182.35 430.42C182.39 429.22 182.571 428.028 182.89 426.87L187.17 422.07Z" fill="#455A64"/>
<path d="M188.79 424.67V427.33C186.68 429.14 183.13 428.11 182.94 426.87L183.1 424.24L188.79 424.67Z" fill="#FFA8A7"/>
<path d="M209.39 350.85L211.39 397.03L206.11 435.55C203.3 437.36 198.96 435.55 198.96 435.55C198.38 423.7 195.78 406.89 197.84 397.9L193.94 373.07L192.59 393C192.37 404.71 189.33 417.17 188.79 424.65C187.871 425.014 186.881 425.164 185.896 425.09C184.91 425.015 183.954 424.718 183.1 424.22C181.35 408.65 177.88 400.22 181.2 389.13C178.89 368.18 176.91 355.13 179.82 349.86L209.39 350.85Z" fill="#263238"/>
<path opacity="0.2" d="M193.14 368.34L193.89 373.07L193.48 379.36L192 369.5C190.688 369.33 189.43 368.872 188.315 368.16C187.2 367.448 186.256 366.499 185.55 365.38C187.797 366.977 190.405 367.994 193.14 368.34Z" fill="black"/>
<path d="M200.42 307.6L186.8 305.78C181.1 305.23 178.65 311.48 178.73 317.26C178.73 320.67 180.55 329.26 181.64 338.2C180.424 341.076 179.603 344.104 179.2 347.2C177.85 353.85 200.31 357.58 208.88 353.08C209.397 352.798 209.825 352.377 210.115 351.865C210.405 351.352 210.545 350.768 210.52 350.18C210.13 338.08 208.65 323.43 208.65 323.43L200.42 307.6Z" fill="#455A64"/>
<path opacity="0.3" d="M200.42 307.6L186.8 305.78C181.1 305.23 178.65 311.48 178.73 317.26C178.73 320.67 180.55 329.26 181.64 338.2C180.424 341.076 179.603 344.104 179.2 347.2C177.85 353.85 200.31 357.58 208.88 353.08C209.397 352.798 209.825 352.377 210.115 351.865C210.405 351.352 210.545 350.768 210.52 350.18C210.13 338.08 208.65 323.43 208.65 323.43L200.42 307.6Z" fill="white"/>
<path d="M207 288.09C208.043 286.111 208.517 283.882 208.37 281.65C208.28 280.54 207.927 279.467 207.339 278.521C206.751 277.575 205.946 276.782 204.99 276.21C204.017 275.683 202.895 275.502 201.805 275.694C200.716 275.887 199.724 276.442 198.99 277.27C197.213 276.276 195.199 275.783 193.163 275.847C191.127 275.91 189.147 276.526 187.435 277.628C185.723 278.731 184.343 280.279 183.444 282.106C182.545 283.933 182.16 285.971 182.33 288C182.48 290.31 183.33 292.59 183.07 294.9C182.91 296.25 182.38 297.62 182.73 298.9C182.909 299.442 183.196 299.943 183.575 300.371C183.953 300.799 184.414 301.146 184.93 301.39C185.93 301.92 188.31 301.78 189.42 302.01C192.83 305.11 197.11 303.95 199.83 301.18C202.55 298.41 207 288.09 207 288.09Z" fill="#F28F8F"/>
<path opacity="0.5" d="M207 288.09C208.043 286.111 208.517 283.882 208.37 281.65C208.28 280.54 207.927 279.467 207.339 278.521C206.751 277.575 205.946 276.782 204.99 276.21C204.017 275.683 202.895 275.502 201.805 275.694C200.716 275.887 199.724 276.442 198.99 277.27C197.213 276.276 195.199 275.783 193.163 275.847C191.127 275.91 189.147 276.526 187.435 277.628C185.723 278.731 184.343 280.279 183.444 282.106C182.545 283.933 182.16 285.971 182.33 288C182.48 290.31 183.33 292.59 183.07 294.9C182.91 296.25 182.38 297.62 182.73 298.9C182.909 299.442 183.196 299.943 183.575 300.371C183.953 300.799 184.414 301.146 184.93 301.39C185.93 301.92 188.31 301.78 189.42 302.01C192.83 305.11 197.11 303.95 199.83 301.18C202.55 298.41 207 288.09 207 288.09Z" fill="black"/>
<path d="M207 288.09C208.043 286.111 208.517 283.882 208.37 281.65C208.28 280.54 207.927 279.467 207.339 278.521C206.751 277.575 205.946 276.782 204.99 276.21C204.017 275.683 202.895 275.502 201.805 275.694C200.716 275.887 199.724 276.442 198.99 277.27C197.213 276.276 195.199 275.783 193.163 275.847C191.127 275.91 189.147 276.526 187.435 277.628C185.723 278.731 184.343 280.279 183.444 282.106C182.545 283.933 182.16 285.971 182.33 288C182.48 290.31 183.33 292.59 183.07 294.9C182.91 296.25 182.38 297.62 182.73 298.9C182.909 299.442 183.196 299.943 183.575 300.371C183.953 300.799 184.414 301.146 184.93 301.39C185.93 301.92 188.31 301.78 189.42 302.01C192.83 305.11 197.11 303.95 199.83 301.18C202.55 298.41 207 288.09 207 288.09Z" fill="#8C5757"/>
<path d="M207.68 291.17L209.81 294.87L207.47 295.73L207.68 291.17Z" fill="#F28F8F"/>
<path d="M207.92 289.52C207.58 286.27 206.63 283.21 204.51 281.66C205.072 285.698 204.213 289.806 202.08 293.28C201.865 292.205 201.311 291.227 200.5 290.49C200.108 290.116 199.621 289.857 199.091 289.744C198.561 289.631 198.01 289.668 197.5 289.85C196.807 290.187 196.269 290.778 196 291.5C195.715 292.201 195.638 292.968 195.778 293.712C195.918 294.455 196.268 295.142 196.788 295.692C197.308 296.241 197.975 296.629 198.709 296.81C199.444 296.99 200.215 296.956 200.93 296.71C200.636 298.152 199.93 299.477 198.896 300.524C197.863 301.572 196.548 302.297 195.11 302.61C193.214 302.988 191.25 302.8 189.46 302.07L188.58 306.45C192.14 310.24 198.23 307.69 198.23 307.69L199.03 303.39C206.03 303.8 206.69 303.68 207.46 299.83C208.079 296.43 208.233 292.962 207.92 289.52Z" fill="#FFA8A7"/>
<path d="M192.4 284.81C191.418 281.985 189.437 279.616 186.83 278.15C185.341 279.311 184.154 280.815 183.371 282.534C182.587 284.252 182.23 286.134 182.33 288.02C182.48 290.33 183.33 292.61 183.07 294.92C182.91 296.27 182.38 297.64 182.73 298.92C182.909 299.462 183.196 299.963 183.575 300.391C183.953 300.819 184.414 301.165 184.93 301.41C185.93 301.94 188.31 301.8 189.42 302.03L189.87 302.4C191.059 300.139 191.988 297.75 192.64 295.28C193.594 291.843 193.511 288.2 192.4 284.81Z" fill="#8C5757"/>
<path d="M245.66 296.67L236.09 324.4L216.31 313.42L225.77 286L245.66 296.67Z" fill="#50F5A6"/>
<path opacity="0.3" d="M245.66 296.67L236.09 324.4L216.31 313.42L225.77 286L245.66 296.67Z" fill="black"/>
<path opacity="0.2" d="M245.66 296.67L236.09 324.4L216.31 313.42L225.77 286L245.66 296.67Z" fill="white"/>
<path d="M219.25 312.3L227.13 289.46L242.71 297.82L234.75 320.9L219.25 312.3Z" fill="white"/>
<path d="M229.87 291.16L238.53 295.7L238.91 294.55L237.23 293.07L232.48 290.68L230.32 290.28L229.87 291.16Z" fill="#455A64"/>
<path d="M232.48 290.68L232.86 289.8L237.49 292.29L237.23 293.07L232.48 290.68Z" fill="#455A64"/>
<path d="M230.17 288.36L240.64 293.98L241.09 292.89L230.53 287.34L230.17 288.36Z" fill="#455A64"/>
<path d="M233 288.64C233.91 285.76 239.39 288.47 238.32 291.44L233 288.64Z" fill="#455A64"/>
<path d="M214.89 319.05L222.19 328.53L234.88 316.05C235.587 315.351 236.04 314.436 236.17 313.45C236.77 308.71 238.09 305.33 239.77 305.93C240.83 306.3 239.47 310.93 239.47 310.93L241.05 310.03L242.9 304.68H243.73C244.169 304.68 244.598 304.817 244.956 305.071C245.314 305.326 245.585 305.685 245.73 306.1L246.52 308.38C246.988 309.731 247.012 311.195 246.589 312.56C246.166 313.925 245.319 315.12 244.17 315.97L241.38 318C240.967 318.316 240.609 318.698 240.32 319.13C235.922 325.884 230.943 332.241 225.44 338.13C224.823 338.758 224.006 339.152 223.13 339.243C222.254 339.334 221.374 339.117 220.64 338.63C212.87 333.49 206.45 324.81 206.45 324.81L214.89 319.05Z" fill="#FFA8A7"/>
<path d="M200.42 307.6L201.66 307.75C203.69 307.999 205.649 308.65 207.425 309.664C209.2 310.679 210.755 312.037 212 313.66L221.3 325.77C221.101 327.89 220.236 329.893 218.83 331.491C217.423 333.09 215.547 334.203 213.47 334.67L203.25 323.87C197.92 318.05 200.42 307.6 200.42 307.6Z" fill="#455A64"/>
<path opacity="0.4" d="M200.42 307.6L201.66 307.75C203.69 307.999 205.649 308.65 207.425 309.664C209.2 310.679 210.755 312.037 212 313.66L221.3 325.77C221.101 327.89 220.236 329.893 218.83 331.491C217.423 333.09 215.547 334.203 213.47 334.67L203.25 323.87C197.92 318.05 200.42 307.6 200.42 307.6Z" fill="white"/>
<path d="M124.106 218.638L120.554 220.689L121.399 203.648L124.951 201.597L124.106 218.638ZM138.774 196.697L134.339 199.258L133.651 213.128L130.088 215.184L130.776 201.315L126.423 203.828L126.58 200.656L138.931 193.526L138.774 196.697ZM139.806 209.574L140.651 192.533L145.959 189.468C147.86 188.37 149.285 187.938 150.232 188.172C151.187 188.401 151.627 189.281 151.551 190.81C151.507 191.692 151.294 192.546 150.911 193.374C150.528 194.201 149.988 194.96 149.29 195.651C150.049 195.44 150.62 195.535 151.001 195.937C151.382 196.338 151.549 196.999 151.504 197.92C151.421 199.59 150.898 201.112 149.936 202.486C148.982 203.848 147.604 205.056 145.803 206.111L139.806 209.574ZM143.727 200.272L143.525 204.357L145.859 203.01C146.502 202.638 147.004 202.186 147.365 201.651C147.728 201.108 147.924 200.529 147.954 199.912C148.025 198.492 147.448 198.132 146.224 198.831L143.727 200.272ZM143.861 197.58L145.718 196.508C146.496 196.051 147.059 195.567 147.407 195.056C147.754 194.544 147.943 193.977 147.974 193.352C148.01 192.634 147.856 192.223 147.513 192.118C147.17 192.005 146.6 192.179 145.801 192.64L144.056 193.648L143.861 197.58ZM165.632 192.617C165.049 193.635 164.219 194.664 163.142 195.703C162.066 196.741 160.898 197.624 159.64 198.35C157.705 199.467 156.192 199.677 155.103 198.98C154.014 198.282 153.489 196.74 153.529 194.352L153.592 192.883C153.675 191.205 154.005 189.594 154.581 188.049C155.157 186.495 155.939 185.108 156.927 183.886C157.921 182.653 159.047 181.673 160.306 180.946C162.146 179.884 163.55 179.547 164.516 179.936C165.49 180.314 166.013 181.418 166.087 183.247L162.657 185.228C162.582 184.346 162.352 183.82 161.966 183.648C161.58 183.477 161.015 183.606 160.271 184.036C159.378 184.552 158.666 185.387 158.135 186.542C157.605 187.697 157.296 189.088 157.209 190.715L157.158 191.745C157.073 193.446 157.26 194.581 157.718 195.151C158.184 195.708 158.957 195.674 160.04 195.049C160.967 194.514 161.669 193.878 162.146 193.14L162.277 190.495L159.801 191.925L159.941 189.104L165.979 185.618L165.632 192.617ZM182.712 177.787L177.11 181.022L176.908 185.083L183.525 181.263L183.368 184.423L173.189 190.3L174.035 173.258L184.234 167.37L184.077 170.542L177.439 174.374L177.261 177.967L182.863 174.733L182.712 177.787ZM190.589 173.706L188.904 174.679L188.569 181.42L185.007 183.477L185.853 166.435L189.415 164.379L189.088 170.968L190.458 170.177L193.627 161.947L197.94 159.457L193.49 169.666L197.602 176.205L193.39 178.637L190.589 173.706ZM208.205 153.53L211.767 151.474L210.922 168.515L207.36 170.572L207.893 159.827L202.052 173.636L198.49 175.693L199.335 158.651L202.897 156.595L202.364 167.351L208.205 153.53ZM225.724 159.969L222.161 162.026L222.849 148.156L217.542 151.221L216.854 165.09L213.291 167.147L214.137 150.105L226.569 142.928L225.724 159.969Z" fill="#37474F"/>
</svg>
