<svg width="161" height="161" viewBox="0 0 161 161" fill="none" xmlns="http://www.w3.org/2000/svg">
<path d="M80.5 0C36.0439 0 0 36.0439 0 80.5C0 124.956 36.0439 161 80.5 161C124.956 161 161 124.956 161 80.5C161 36.0439 124.956 0 80.5 0ZM80.5 147.583C59.5499 147.583 40.8269 137.917 28.5171 122.83C30.2546 118.885 33.7698 116.155 41.0416 114.471C56.0951 110.996 70.954 107.89 63.803 94.715C42.6382 55.6725 57.7722 33.5417 80.5 33.5417C102.785 33.5417 118.295 54.854 97.197 94.715C90.2539 107.81 104.576 110.922 119.958 114.471C127.217 116.148 130.759 118.865 132.51 122.796C120.193 137.91 101.464 147.583 80.5 147.583Z" fill="url(#paint0_linear)"/>
<defs>
<linearGradient id="paint0_linear" x1="25" y1="16" x2="143.5" y2="132" gradientUnits="userSpaceOnUse">
<stop stop-color="#00FE84"/>
<stop offset="1" stop-color="#00A3FF"/>
</linearGradient>
</defs>
</svg>
